SplineFontDB: 1.0
FontName: DejaVuSansCondensed-BoldOblique
FullName: DejaVu Sans Condensed Bold Oblique
FamilyName: DejaVu Sans Condensed
Weight: Bold
Copyright: Copyright (c) 2003 by Bitstream, Inc. All Rights Reserved.\nCopyright (c) 2006 by Tavmjong Bah. All Rights Reserved.\nDejaVu changes are in public domain\n
Version: 2.10
ItalicAngle: -11
UnderlinePosition: -85
UnderlineWidth: 90
Ascent: 1556
Descent: 492
Order2: 1
NeedsXUIDChange: 1
FSType: 0
PfmFamily: 17
TTFWeight: 700
TTFWidth: 5
LineGap: 0
VLineGap: 0
Panose: 2 11 8 6 3 3 4 11 2 4
OS2TypoAscent: 1556
OS2TypoAOffset: 0
OS2TypoDescent: -492
OS2TypoDOffset: 0
OS2TypoLinegap: 410
OS2WinAscent: 1901
OS2WinAOffset: 0
OS2WinDescent: 483
OS2WinDOffset: 0
HheadAscent: 1901
HheadAOffset: 0
HheadDescent: -483
HheadDOffset: 0
OS2Vendor: 'PfEd'
ScriptLang: 9
 3 cyrl 1 dflt grek 1 dflt latn 1 dflt 
 1 DFLT 1 dflt 
 1 latn 1 dflt 
 1 armn 1 dflt 
 1 latn 1 DNK  
 1 grek 1 dflt 
 1 hebr 1 dflt 
 2 arab 1 dflt hebr 1 dflt 
 1 cyrl 2 MKD  SRB  
ChainSub: class 0 0 'ccmp' 4 4 4 2
  Class: 19 i j uni0268 uni029D
  Class: 181 gravecomb acutecomb uni0302 tildecomb uni0304 uni0305 uni0306 uni0307 uni0308 uni030A uni030B uni030C uni030D uni030E uni030F uni0310 uni0311 uni0312 uni0313 uni0314 uni033D uni033E

StartChar: .notdef
Encoding: 0 -1 0
AltUni: 0
Width: 1106
Flags: W
Fore
91.7998 -362 m 1,0,-1
 91.7998 1444 l 1,1,-1
 1013.4 1444 l 1,2,-1
 1013.4 -362 l 1,3,-1
 91.7998 -362 l 1,0,-1
195.3 -248 m 1,4,-1
 910.8 -248 l 1,5,-1
 910.8 1329 l 1,6,-1
 195.3 1329 l 1,7,-1
 195.3 -248 l 1,4,-1
EndSplineSet
EndChar
StartChar: exclam
Encoding: 33 33 33
Width: 840
Flags: W
Fore
388.8 1493 m 1,0,-1
 713.7 1493 l 1,1,-1
 612 920 l 1,2,-1
 494.1 502 l 1,3,-1
 261.9 502 l 1,4,-1
 287.1 920 l 1,5,-1
 388.8 1493 l 1,0,-1
189.9 356 m 1,6,-1
 513.9 356 l 1,7,-1
 451.8 0 l 1,8,-1
 126.9 0 l 1,9,-1
 189.9 356 l 1,6,-1
EndSplineSet
EndChar
StartChar: quotedbl
Encoding: 34 34 34
Width: 960
Flags: W
Fore
784.8 1493 m 1,0,-1
 784.8 938 l 1,1,-1
 571.5 938 l 1,2,-1
 571.5 1493 l 1,3,-1
 784.8 1493 l 1,0,-1
388.8 1493 m 1,4,-1
 388.8 938 l 1,5,-1
 175.5 938 l 1,6,-1
 175.5 1493 l 1,7,-1
 388.8 1493 l 1,4,-1
EndSplineSet
EndChar
StartChar: numbersign
Encoding: 35 35 35
Width: 1282
Flags: W
Fore
921.6 872 m 1,0,-1
 684 872 l 1,1,-1
 621 598 l 1,2,-1
 858.6 598 l 1,3,-1
 921.6 872 l 1,0,-1
819.9 1470 m 1,4,-1
 733.5 1085 l 1,5,-1
 971.1 1085 l 1,6,-1
 1058.4 1470 l 1,7,-1
 1257.3 1470 l 1,8,-1
 1170 1085 l 1,9,-1
 1437.3 1085 l 1,10,-1
 1389.6 872 l 1,11,-1
 1122.3 872 l 1,12,-1
 1060.2 598 l 1,13,-1
 1327.5 598 l 1,14,-1
 1278.9 383 l 1,15,-1
 1013.4 383 l 1,16,-1
 927 0 l 1,17,-1
 728.1 0 l 1,18,-1
 814.5 383 l 1,19,-1
 576.9 383 l 1,20,-1
 490.5 0 l 1,21,-1
 289.8 0 l 1,22,-1
 376.2 383 l 1,23,-1
 119.7 383 l 1,24,-1
 167.4 598 l 1,25,-1
 420.3 598 l 1,26,-1
 483.3 872 l 1,27,-1
 228.6 872 l 1,28,-1
 276.3 1085 l 1,29,-1
 532.8 1085 l 1,30,-1
 619.2 1470 l 1,31,-1
 819.9 1470 l 1,4,-1
EndSplineSet
EndChar
StartChar: dollar
Encoding: 36 36 36
Width: 1282
Flags: W
Fore
536.4 -301 m 1,0,-1
 390.6 -301 l 1,1,-1
 443.7 0 l 1,2,3
 329.4 5 329.4 5 231.3 26.5 c 128,-1,4
 133.2 48 133.2 48 49.5 86 c 1,5,-1
 93.5996 348 l 1,6,7
 180 293 180 293 277.65 262.5 c 128,-1,8
 375.3 232 375.3 232 483.3 228 c 1,9,-1
 538.2 539 l 1,10,11
 349.2 570 349.2 570 263.25 650.5 c 128,-1,12
 177.3 731 177.3 731 177.3 874 c 0,13,14
 177.3 1073 177.3 1073 311.85 1195.5 c 128,-1,15
 446.4 1318 446.4 1318 675.9 1327 c 1,16,-1
 715.5 1556 l 1,17,-1
 860.4 1556 l 1,18,-1
 821.7 1329 l 1,19,20
 912.6 1323 912.6 1323 997.2 1306 c 128,-1,21
 1081.8 1289 1081.8 1289 1161 1262 c 1,22,-1
 1116.9 1008 l 1,23,24
 1060.2 1045 1060.2 1045 974.25 1068.5 c 128,-1,25
 888.3 1092 888.3 1092 781.2 1099 c 1,26,-1
 729.9 811 l 1,27,28
 921.6 775 921.6 775 1013.85 694 c 128,-1,29
 1106.1 613 1106.1 613 1106.1 479 c 0,30,31
 1106.1 259 1106.1 259 970.65 134 c 128,-1,32
 835.2 9 835.2 9 588.6 0 c 1,33,-1
 536.4 -301 l 1,0,-1
589.5 836 m 1,34,-1
 635.4 1098 l 1,35,36
 559.8 1090 559.8 1090 514.8 1049.5 c 128,-1,37
 469.8 1009 469.8 1009 469.8 948 c 0,38,39
 469.8 900 469.8 900 499.05 872.5 c 128,-1,40
 528.3 845 528.3 845 589.5 836 c 1,34,-1
678.6 512 m 1,41,-1
 629.1 227 l 1,42,43
 718.2 232 718.2 232 766.35 275 c 128,-1,44
 814.5 318 814.5 318 814.5 393 c 0,45,46
 814.5 444 814.5 444 781.65 472.5 c 128,-1,47
 748.8 501 748.8 501 678.6 512 c 1,41,-1
EndSplineSet
EndChar
StartChar: percent
Encoding: 37 37 37
Width: 1846
Flags: W
Fore
1408.5 616 m 0,0,1
 1331.1 616 1331.1 616 1281.15 532 c 128,-1,2
 1231.2 448 1231.2 448 1231.2 315 c 0,3,4
 1231.2 228 1231.2 228 1258.65 184.5 c 128,-1,5
 1286.1 141 1286.1 141 1341.9 141 c 0,6,7
 1420.2 141 1420.2 141 1469.7 225 c 128,-1,8
 1519.2 309 1519.2 309 1519.2 444 c 0,9,10
 1519.2 529 1519.2 529 1490.85 572.5 c 128,-1,11
 1462.5 616 1462.5 616 1408.5 616 c 0,0,1
1433.7 784 m 0,12,13
 1575 784 1575 784 1660.05 698.5 c 128,-1,14
 1745.1 613 1745.1 613 1745.1 473 c 0,15,16
 1745.1 249 1745.1 249 1625.85 110 c 128,-1,17
 1506.6 -29 1506.6 -29 1314 -29 c 0,18,19
 1172.7 -29 1172.7 -29 1087.65 57.5 c 128,-1,20
 1002.6 144 1002.6 144 1002.6 285 c 0,21,22
 1002.6 507 1002.6 507 1121.85 645.5 c 128,-1,23
 1241.1 784 1241.1 784 1433.7 784 c 0,12,13
478.8 -29 m 1,24,-1
 258.3 -29 l 1,25,-1
 1369.8 1520 l 1,26,-1
 1590.3 1520 l 1,27,-1
 478.8 -29 l 1,24,-1
534.6 1520 m 0,28,29
 675 1520 675 1520 760.5 1434 c 128,-1,30
 846 1348 846 1348 846 1208 c 0,31,32
 846 985 846 985 725.85 846 c 128,-1,33
 605.7 707 605.7 707 413.1 707 c 0,34,35
 271.8 707 271.8 707 186.75 792 c 128,-1,36
 101.7 877 101.7 877 101.7 1018 c 0,37,38
 101.7 1240 101.7 1240 221.85 1380 c 128,-1,39
 342 1520 342 1520 534.6 1520 c 0,28,29
506.7 1352 m 0,40,41
 429.3 1352 429.3 1352 379.8 1267.5 c 128,-1,42
 330.3 1183 330.3 1183 330.3 1051 c 0,43,44
 330.3 963 330.3 963 357.75 918.5 c 128,-1,45
 385.2 874 385.2 874 440.1 874 c 0,46,47
 518.4 874 518.4 874 567.9 959 c 128,-1,48
 617.4 1044 617.4 1044 617.4 1180 c 0,49,50
 617.4 1264 617.4 1264 589.05 1308 c 128,-1,51
 560.7 1352 560.7 1352 506.7 1352 c 0,40,41
EndSplineSet
EndChar
StartChar: ampersand
Encoding: 38 38 38
Width: 1607
Flags: W
Fore
789.3 915 m 2,0,-1
 1056.6 541 l 1,1,2
 1112.4 604 1112.4 604 1152.9 692 c 128,-1,3
 1193.4 780 1193.4 780 1218.6 895 c 1,4,-1
 1498.5 895 l 1,5,6
 1459.8 720 1459.8 720 1388.25 577 c 128,-1,7
 1316.7 434 1316.7 434 1208.7 322 c 1,8,-1
 1439.1 0 l 1,9,-1
 1044.9 0 l 1,10,-1
 969.3 106 l 1,11,12
 863.1 38 863.1 38 756.9 4.5 c 128,-1,13
 650.7 -29 650.7 -29 540 -29 c 0,14,15
 319.5 -29 319.5 -29 185.4 94 c 128,-1,16
 51.2998 217 51.2998 217 51.2998 416 c 0,17,18
 51.2998 567 51.2998 567 137.25 693.5 c 128,-1,19
 223.2 820 223.2 820 404.1 934 c 1,20,21
 380.7 978 380.7 978 369 1023 c 128,-1,22
 357.3 1068 357.3 1068 357.3 1116 c 0,23,24
 357.3 1292 357.3 1292 493.2 1406 c 128,-1,25
 629.1 1520 629.1 1520 844.2 1520 c 0,26,27
 926.1 1520 926.1 1520 1012.05 1505.5 c 128,-1,28
 1098 1491 1098 1491 1188.9 1462 c 1,29,-1
 1141.2 1184 l 1,30,31
 1062.9 1232 1062.9 1232 991.8 1255 c 128,-1,32
 920.7 1278 920.7 1278 849.6 1278 c 0,33,34
 772.2 1278 772.2 1278 727.2 1242 c 128,-1,35
 682.2 1206 682.2 1206 682.2 1145 c 0,36,37
 682.2 1107 682.2 1107 709.2 1048.5 c 128,-1,38
 736.2 990 736.2 990 789.3 915 c 2,0,-1
517.5 743 m 1,39,40
 445.5 692 445.5 692 408.15 625.5 c 128,-1,41
 370.8 559 370.8 559 370.8 483 c 0,42,43
 370.8 376 370.8 376 439.2 302.5 c 128,-1,44
 507.6 229 507.6 229 610.2 229 c 0,45,46
 664.2 229 664.2 229 717.3 250 c 128,-1,47
 770.4 271 770.4 271 823.5 313 c 1,48,-1
 517.5 743 l 1,39,40
EndSplineSet
EndChar
StartChar: quotesingle
Encoding: 39 39 39
Width: 564
Flags: W
Fore
388.8 1493 m 1,0,-1
 388.8 938 l 1,1,-1
 175.5 938 l 1,2,-1
 175.5 1493 l 1,3,-1
 388.8 1493 l 1,0,-1
EndSplineSet
EndChar
StartChar: parenleft
Encoding: 40 40 40
Width: 842
Flags: W
Fore
543.6 -270 m 1,0,-1
 281.7 -270 l 1,1,2
 211.5 -104 211.5 -104 176.85 55.5 c 128,-1,3
 142.2 215 142.2 215 142.2 373 c 0,4,5
 142.2 668 142.2 668 256.5 962.5 c 128,-1,6
 370.8 1257 370.8 1257 601.2 1554 c 1,7,-1
 862.2 1554 l 1,8,9
 652.5 1244 652.5 1244 549.45 940.5 c 128,-1,10
 446.4 637 446.4 637 446.4 332 c 0,11,12
 446.4 182 446.4 182 470.7 32.5 c 128,-1,13
 495 -117 495 -117 543.6 -270 c 1,0,-1
EndSplineSet
EndChar
StartChar: parenright
Encoding: 41 41 41
Width: 842
Flags: W
Fore
269.1 1554 m 1,0,-1
 532.8 1554 l 1,1,2
 602.1 1390 602.1 1390 636.3 1230.5 c 128,-1,3
 670.5 1071 670.5 1071 670.5 911 c 0,4,5
 670.5 613 670.5 613 556.65 318.5 c 128,-1,6
 442.8 24 442.8 24 214.2 -270 c 1,7,-1
 -49.5 -270 l 1,8,9
 160.2 40 160.2 40 263.7 344 c 128,-1,10
 367.2 648 367.2 648 367.2 954 c 0,11,12
 367.2 1104 367.2 1104 342.9 1252.5 c 128,-1,13
 318.6 1401 318.6 1401 269.1 1554 c 1,0,-1
EndSplineSet
EndChar
StartChar: asterisk
Encoding: 42 42 42
Width: 963
Flags: W
Fore
927 1217 m 1,0,-1
 630 1044 l 1,1,-1
 927 870 l 1,2,-1
 858.6 729 l 1,3,-1
 558.9 913 l 1,4,-1
 558.9 569 l 1,5,-1
 405.9 569 l 1,6,-1
 405.9 913 l 1,7,-1
 105.3 729 l 1,8,-1
 36.9004 870 l 1,9,-1
 337.5 1044 l 1,10,-1
 36.9004 1217 l 1,11,-1
 105.3 1358 l 1,12,-1
 405.9 1176 l 1,13,-1
 405.9 1520 l 1,14,-1
 558.9 1520 l 1,15,-1
 558.9 1176 l 1,16,-1
 858.6 1358 l 1,17,-1
 927 1217 l 1,0,-1
EndSplineSet
EndChar
StartChar: plus
Encoding: 43 43 43
Width: 1544
Flags: W
Fore
879.3 1284 m 1,0,-1
 879.3 760 l 1,1,-1
 1349.1 760 l 1,2,-1
 1349.1 524 l 1,3,-1
 879.3 524 l 1,4,-1
 879.3 0 l 1,5,-1
 665.1 0 l 1,6,-1
 665.1 524 l 1,7,-1
 195.3 524 l 1,8,-1
 195.3 760 l 1,9,-1
 665.1 760 l 1,10,-1
 665.1 1284 l 1,11,-1
 879.3 1284 l 1,0,-1
EndSplineSet
EndChar
StartChar: comma
Encoding: 44 44 44
Width: 700
Flags: W
Fore
147.6 387 m 1,0,-1
 471.6 387 l 1,1,-1
 418.5 82 l 1,2,-1
 128.7 -291 l 1,3,-1
 -63 -291 l 1,4,-1
 93.5996 82 l 1,5,-1
 147.6 387 l 1,0,-1
EndSplineSet
EndChar
StartChar: hyphen
Encoding: 45 45 45
Width: 765
Flags: W
Fore
98.0996 735 m 1,0,-1
 663.3 735 l 1,1,-1
 612 444 l 1,2,-1
 45.9004 444 l 1,3,-1
 98.0996 735 l 1,0,-1
EndSplineSet
KernsSLIFO: 356 -301 0 0 221 -339 0 0 376 -339 0 0 89 -339 0 0 88 -206 0 0 87 -92 0 0 86 -149 0 0 84 -301 0 0
EndChar
StartChar: period
Encoding: 46 46 46
Width: 700
Flags: W
Fore
153 387 m 1,0,-1
 477 387 l 1,1,-1
 409.5 0 l 1,2,-1
 84.5996 0 l 1,3,-1
 153 387 l 1,0,-1
EndSplineSet
EndChar
StartChar: slash
Encoding: 47 47 47
Width: 673
Flags: W
Fore
591.3 1493 m 1,0,-1
 800.1 1493 l 1,1,-1
 31.5 -190 l 1,2,-1
 -177.3 -190 l 1,3,-1
 591.3 1493 l 1,0,-1
EndSplineSet
EndChar
StartChar: zero
Encoding: 48 48 48
Width: 1282
Flags: W
AnchorPoint: "below" 511.2 0 basechar 0
AnchorPoint: "above" 777.6 1520 basechar 0
Fore
550.8 233 m 0,0,1
 620.1 233 620.1 233 673.65 279 c 128,-1,2
 727.2 325 727.2 325 763.2 414 c 0,3,4
 788.4 477 788.4 477 809.1 557.5 c 128,-1,5
 829.8 638 829.8 638 847.8 748 c 0,6,7
 863.1 837 863.1 837 871.2 912 c 128,-1,8
 879.3 987 879.3 987 879.3 1040 c 0,9,10
 879.3 1152 879.3 1152 843.3 1204.5 c 128,-1,11
 807.3 1257 807.3 1257 731.7 1257 c 0,12,13
 661.5 1257 661.5 1257 608.4 1212.5 c 128,-1,14
 555.3 1168 555.3 1168 520.2 1077 c 1,15,16
 493.2 1012 493.2 1012 471.15 929 c 128,-1,17
 449.1 846 449.1 846 432.9 748 c 0,18,19
 417.6 658 417.6 658 409.5 581 c 128,-1,20
 401.4 504 401.4 504 401.4 451 c 0,21,22
 401.4 340 401.4 340 438.3 286.5 c 128,-1,23
 475.2 233 475.2 233 550.8 233 c 0,0,1
1216.8 983 m 0,24,25
 1216.8 784 1216.8 784 1167.3 596 c 128,-1,26
 1117.8 408 1117.8 408 1028.7 266 c 0,27,28
 937.8 120 937.8 120 809.1 45.5 c 128,-1,29
 680.4 -29 680.4 -29 522 -29 c 0,30,31
 301.5 -29 301.5 -29 184.05 110 c 128,-1,32
 66.5996 249 66.5996 249 66.5996 510 c 0,33,34
 66.5996 706 66.5996 706 115.65 894.5 c 128,-1,35
 164.7 1083 164.7 1083 252.9 1223 c 0,36,37
 345.6 1370 345.6 1370 473.4 1445 c 128,-1,38
 601.2 1520 601.2 1520 761.4 1520 c 0,39,40
 980.1 1520 980.1 1520 1098.45 1380.5 c 128,-1,41
 1216.8 1241 1216.8 1241 1216.8 983 c 0,24,25
EndSplineSet
EndChar
StartChar: one
Encoding: 49 49 49
Width: 1282
Flags: W
AnchorPoint: "below" 511.2 0 basechar 0
AnchorPoint: "above" 777.6 1520 basechar 0
Fore
126.9 266 m 1,0,-1
 432.9 266 l 1,1,-1
 601.2 1231 l 1,2,-1
 274.5 1159 l 1,3,-1
 320.4 1421 l 1,4,-1
 645.3 1493 l 1,5,-1
 974.7 1493 l 1,6,-1
 761.4 266 l 1,7,-1
 1065.6 266 l 1,8,-1
 1019.7 0 l 1,9,-1
 79.2002 0 l 1,10,-1
 126.9 266 l 1,0,-1
EndSplineSet
EndChar
StartChar: two
Encoding: 50 50 50
Width: 1282
Flags: W
AnchorPoint: "below" 511.2 0 basechar 0
AnchorPoint: "above" 777.6 1520 basechar 0
Fore
455.4 283 m 1,0,-1
 1039.5 283 l 1,1,-1
 990 0 l 1,2,-1
 14.4004 0 l 1,3,-1
 64.7998 285 l 1,4,-1
 636.3 764 l 1,5,6
 729.9 844 729.9 844 778.95 926 c 128,-1,7
 828 1008 828 1008 828 1085 c 0,8,9
 828 1167 828 1167 777.6 1212 c 128,-1,10
 727.2 1257 727.2 1257 636.3 1257 c 0,11,12
 550.8 1257 550.8 1257 445.5 1219.5 c 128,-1,13
 340.2 1182 340.2 1182 207.9 1104 c 1,14,-1
 265.5 1421 l 1,15,16
 387.9 1471 387.9 1471 505.8 1495.5 c 128,-1,17
 623.7 1520 623.7 1520 738.9 1520 c 0,18,19
 944.1 1520 944.1 1520 1062 1421.5 c 128,-1,20
 1179.9 1323 1179.9 1323 1179.9 1153 c 0,21,22
 1179.9 1007 1179.9 1007 1107.9 887 c 128,-1,23
 1035.9 767 1035.9 767 791.1 563 c 2,24,-1
 455.4 283 l 1,0,-1
EndSplineSet
EndChar
StartChar: three
Encoding: 51 51 51
Width: 1282
Flags: W
AnchorPoint: "below" 511.2 0 basechar 0
AnchorPoint: "above" 777.6 1520 basechar 0
Fore
870.3 805 m 1,0,1
 972 779 972 779 1028.7 700 c 128,-1,2
 1085.4 621 1085.4 621 1085.4 506 c 0,3,4
 1085.4 258 1085.4 258 908.55 114.5 c 128,-1,5
 731.7 -29 731.7 -29 422.1 -29 c 0,6,7
 305.1 -29 305.1 -29 199.35 -10.5 c 128,-1,8
 93.5996 8 93.5996 8 0 45 c 1,9,-1
 51.2998 342 l 1,10,11
 131.4 290 131.4 290 225.9 261.5 c 128,-1,12
 320.4 233 320.4 233 414.9 233 c 0,13,14
 567 233 567 233 655.65 296.5 c 128,-1,15
 744.3 360 744.3 360 744.3 467 c 0,16,17
 744.3 556 744.3 556 676.8 600.5 c 128,-1,18
 609.3 645 609.3 645 473.4 645 c 2,19,-1
 335.7 645 l 1,20,-1
 379.8 893 l 1,21,-1
 525.6 893 l 2,22,23
 666.9 893 666.9 893 749.25 950 c 128,-1,24
 831.6 1007 831.6 1007 831.6 1104 c 0,25,26
 831.6 1180 831.6 1180 774.45 1220 c 128,-1,27
 717.3 1260 717.3 1260 608.4 1260 c 0,28,29
 531.9 1260 531.9 1260 441.9 1238 c 128,-1,30
 351.9 1216 351.9 1216 254.7 1174 c 1,31,-1
 304.2 1456 l 1,32,33
 410.4 1488 410.4 1488 513.45 1504 c 128,-1,34
 616.5 1520 616.5 1520 717.3 1520 c 0,35,36
 945 1520 945 1520 1059.75 1436 c 128,-1,37
 1174.5 1352 1174.5 1352 1174.5 1186 c 0,38,39
 1174.5 1037 1174.5 1037 1094.85 937.5 c 128,-1,40
 1015.2 838 1015.2 838 870.3 805 c 1,0,1
EndSplineSet
EndChar
StartChar: four
Encoding: 52 52 52
Width: 1282
Flags: W
AnchorPoint: "below" 511.2 0 basechar 0
AnchorPoint: "above" 777.6 1520 basechar 0
Fore
759.6 1165 m 1,0,-1
 281.7 551 l 1,1,-1
 650.7 551 l 1,2,-1
 759.6 1165 l 1,0,-1
750.6 1493 m 1,3,-1
 1144.8 1493 l 1,4,-1
 978.3 551 l 1,5,-1
 1170 551 l 1,6,-1
 1122.3 272 l 1,7,-1
 930.6 272 l 1,8,-1
 882.9 0 l 1,9,-1
 554.4 0 l 1,10,-1
 603 272 l 1,11,-1
 -1.7998 272 l 1,12,-1
 56.7002 602 l 1,13,-1
 750.6 1493 l 1,3,-1
EndSplineSet
EndChar
StartChar: five
Encoding: 53 53 53
Width: 1282
Flags: W
AnchorPoint: "below" 511.2 0 basechar 0
AnchorPoint: "above" 777.6 1520 basechar 0
Fore
325.8 1493 m 1,0,-1
 1187.1 1493 l 1,1,-1
 1137.6 1210 l 1,2,-1
 552.6 1210 l 1,3,-1
 512.1 979 l 1,4,5
 551.7 991 551.7 991 594.45 997.5 c 128,-1,6
 637.2 1004 637.2 1004 680.4 1004 c 0,7,8
 886.5 1004 886.5 1004 1002.6 899.5 c 128,-1,9
 1118.7 795 1118.7 795 1118.7 610 c 0,10,11
 1118.7 316 1118.7 316 939.6 143.5 c 128,-1,12
 760.5 -29 760.5 -29 453.6 -29 c 0,13,14
 341.1 -29 341.1 -29 234.9 -4.5 c 128,-1,15
 128.7 20 128.7 20 24.2998 70 c 1,16,-1
 77.4004 373 l 1,17,18
 177.3 301 177.3 301 271.35 267 c 128,-1,19
 365.4 233 365.4 233 462.6 233 c 0,20,21
 604.8 233 604.8 233 690.3 315.5 c 128,-1,22
 775.8 398 775.8 398 775.8 532 c 0,23,24
 775.8 628 775.8 628 711 684.5 c 128,-1,25
 646.2 741 646.2 741 534.6 741 c 0,26,27
 459 741 459 741 371.25 719.5 c 128,-1,28
 283.5 698 283.5 698 179.1 653 c 1,29,-1
 325.8 1493 l 1,0,-1
EndSplineSet
EndChar
StartChar: six
Encoding: 54 54 54
Width: 1282
Flags: W
AnchorPoint: "below" 511.2 0 basechar 0
AnchorPoint: "above" 777.6 1520 basechar 0
Fore
666.9 737 m 0,0,1
 564.3 737 564.3 737 498.6 643 c 128,-1,2
 432.9 549 432.9 549 432.9 401 c 0,3,4
 432.9 312 432.9 312 473.4 262.5 c 128,-1,5
 513.9 213 513.9 213 585.9 213 c 0,6,7
 687.6 213 687.6 213 753.75 305.5 c 128,-1,8
 819.9 398 819.9 398 819.9 539 c 0,9,10
 819.9 635 819.9 635 780.3 686 c 128,-1,11
 740.7 737 740.7 737 666.9 737 c 0,0,1
1216.8 1454 m 1,12,-1
 1168.2 1178 l 1,13,14
 1090.8 1222 1090.8 1222 1017.9 1244 c 128,-1,15
 945 1266 945 1266 872.1 1266 c 0,16,17
 704.7 1266 704.7 1266 601.2 1166 c 128,-1,18
 497.7 1066 497.7 1066 475.2 885 c 1,19,20
 545.4 936 545.4 936 619.65 960.5 c 128,-1,21
 693.9 985 693.9 985 777.6 985 c 0,22,23
 943.2 985 943.2 985 1048.5 876 c 128,-1,24
 1153.8 767 1153.8 767 1153.8 598 c 0,25,26
 1153.8 322 1153.8 322 991.35 145.5 c 128,-1,27
 828.9 -31 828.9 -31 573.3 -31 c 0,28,29
 343.8 -31 343.8 -31 217.8 113.5 c 128,-1,30
 91.7998 258 91.7998 258 91.7998 522 c 0,31,32
 91.7998 726 91.7998 726 147.6 911.5 c 128,-1,33
 203.4 1097 203.4 1097 304.2 1231 c 0,34,35
 412.2 1374 412.2 1374 559.35 1446 c 128,-1,36
 706.5 1518 706.5 1518 890.1 1518 c 0,37,38
 974.7 1518 974.7 1518 1054.8 1502 c 128,-1,39
 1134.9 1486 1134.9 1486 1216.8 1454 c 1,12,-1
EndSplineSet
EndChar
StartChar: seven
Encoding: 55 55 55
Width: 1282
Flags: W
AnchorPoint: "below" 511.2 0 basechar 0
AnchorPoint: "above" 777.6 1520 basechar 0
Fore
265.5 1493 m 1,0,-1
 1278.9 1493 l 1,1,-1
 1238.4 1274 l 1,2,-1
 490.5 0 l 1,3,-1
 144 0 l 1,4,-1
 855 1210 l 1,5,-1
 217.8 1210 l 1,6,-1
 265.5 1493 l 1,0,-1
EndSplineSet
EndChar
StartChar: eight
Encoding: 56 56 56
Width: 1282
Flags: W
AnchorPoint: "below" 511.2 0 basechar 0
AnchorPoint: "above" 777.6 1520 basechar 0
Fore
619.2 668 m 0,0,1
 513.9 668 513.9 668 443.25 588.5 c 128,-1,2
 372.6 509 372.6 509 372.6 393 c 0,3,4
 372.6 310 372.6 310 418.5 261.5 c 128,-1,5
 464.4 213 464.4 213 543.6 213 c 0,6,7
 650.7 213 650.7 213 720.9 291.5 c 128,-1,8
 791.1 370 791.1 370 791.1 487 c 0,9,10
 791.1 570 791.1 570 744.75 619 c 128,-1,11
 698.4 668 698.4 668 619.2 668 c 0,0,1
397.8 795 m 1,12,13
 300.6 840 300.6 840 252.45 912 c 128,-1,14
 204.3 984 204.3 984 204.3 1085 c 0,15,16
 204.3 1288 204.3 1288 354.15 1404 c 128,-1,17
 504 1520 504 1520 768.6 1520 c 0,18,19
 981 1520 981 1520 1098 1432 c 128,-1,20
 1215 1344 1215 1344 1215 1184 c 0,21,22
 1215 1042 1215 1042 1133.55 941 c 128,-1,23
 1052.1 840 1052.1 840 900.9 795 c 1,24,25
 1010.7 748 1010.7 748 1062.9 669 c 128,-1,26
 1115.1 590 1115.1 590 1115.1 469 c 0,27,28
 1115.1 239 1115.1 239 953.55 105 c 128,-1,29
 792 -29 792 -29 510.3 -29 c 0,30,31
 288 -29 288 -29 164.25 69.5 c 128,-1,32
 40.5 168 40.5 168 40.5 344 c 0,33,34
 40.5 503 40.5 503 135.45 622.5 c 128,-1,35
 230.4 742 230.4 742 397.8 795 c 1,12,13
737.1 1278 m 0,36,37
 645.3 1278 645.3 1278 589.95 1218.5 c 128,-1,38
 534.6 1159 534.6 1159 534.6 1061 c 0,39,40
 534.6 993 534.6 993 574.65 951 c 128,-1,41
 614.7 909 614.7 909 680.4 909 c 0,42,43
 772.2 909 772.2 909 827.55 968.5 c 128,-1,44
 882.9 1028 882.9 1028 882.9 1126 c 0,45,46
 882.9 1195 882.9 1195 842.85 1236.5 c 128,-1,47
 802.8 1278 802.8 1278 737.1 1278 c 0,36,37
EndSplineSet
EndChar
StartChar: nine
Encoding: 57 57 57
Width: 1282
Flags: W
AnchorPoint: "below" 511.2 0 basechar 0
AnchorPoint: "above" 777.6 1520 basechar 0
Fore
75.5996 33 m 1,0,-1
 123.3 309 l 1,1,2
 201.6 264 201.6 264 274.5 242.5 c 128,-1,3
 347.4 221 347.4 221 420.3 221 c 0,4,5
 587.7 221 587.7 221 691.2 321 c 128,-1,6
 794.7 421 794.7 421 816.3 602 c 1,7,8
 747 551 747 551 673.2 526.5 c 128,-1,9
 599.4 502 599.4 502 515.7 502 c 0,10,11
 351 502 351 502 245.7 611 c 128,-1,12
 140.4 720 140.4 720 140.4 889 c 0,13,14
 140.4 1165 140.4 1165 302.85 1341.5 c 128,-1,15
 465.3 1518 465.3 1518 720.9 1518 c 0,16,17
 950.4 1518 950.4 1518 1075.95 1373.5 c 128,-1,18
 1201.5 1229 1201.5 1229 1201.5 965 c 0,19,20
 1201.5 762 1201.5 762 1145.7 576.5 c 128,-1,21
 1089.9 391 1089.9 391 988.2 256 c 0,22,23
 880.2 113 880.2 113 733.95 41 c 128,-1,24
 587.7 -31 587.7 -31 404.1 -31 c 0,25,26
 318.6 -31 318.6 -31 237.6 -15 c 128,-1,27
 156.6 1 156.6 1 75.5996 33 c 1,0,-1
624.6 750 m 0,28,29
 727.2 750 727.2 750 792.9 844 c 128,-1,30
 858.6 938 858.6 938 858.6 1085 c 0,31,32
 858.6 1176 858.6 1176 819.45 1225 c 128,-1,33
 780.3 1274 780.3 1274 707.4 1274 c 0,34,35
 605.7 1274 605.7 1274 538.65 1181 c 128,-1,36
 471.6 1088 471.6 1088 471.6 948 c 0,37,38
 471.6 852 471.6 852 511.2 801 c 128,-1,39
 550.8 750 550.8 750 624.6 750 c 0,28,29
EndSplineSet
EndChar
StartChar: colon
Encoding: 58 58 58
Width: 737
Flags: W
Fore
270.9 1120 m 1,0,-1
 595.8 1120 l 1,1,-1
 529.2 733 l 1,2,-1
 204.3 733 l 1,3,-1
 270.9 1120 l 1,0,-1
144 387 m 1,4,-1
 468 387 l 1,5,-1
 399.6 0 l 1,6,-1
 75.5996 0 l 1,7,-1
 144 387 l 1,4,-1
EndSplineSet
EndChar
StartChar: semicolon
Encoding: 59 59 59
Width: 737
Flags: W
Fore
144 387 m 1,0,-1
 468 387 l 1,1,-1
 414.9 82 l 1,2,-1
 126.9 -291 l 1,3,-1
 -64.7998 -291 l 1,4,-1
 90 82 l 1,5,-1
 144 387 l 1,0,-1
270.9 1120 m 1,6,-1
 595.8 1120 l 1,7,-1
 529.2 733 l 1,8,-1
 204.3 733 l 1,9,-1
 270.9 1120 l 1,6,-1
EndSplineSet
EndChar
StartChar: less
Encoding: 60 60 60
Width: 1544
Flags: W
Fore
1349.1 973 m 1,0,-1
 481.5 641 l 1,1,-1
 1349.1 311 l 1,2,-1
 1349.1 61 l 1,3,-1
 195.3 524 l 1,4,-1
 195.3 760 l 1,5,-1
 1349.1 1223 l 1,6,-1
 1349.1 973 l 1,0,-1
EndSplineSet
EndChar
StartChar: equal
Encoding: 61 61 61
Width: 1544
Flags: W
Fore
195.3 987 m 1,0,-1
 1349.1 987 l 1,1,-1
 1349.1 752 l 1,2,-1
 195.3 752 l 1,3,-1
 195.3 987 l 1,0,-1
195.3 532 m 1,4,-1
 1349.1 532 l 1,5,-1
 1349.1 295 l 1,6,-1
 195.3 295 l 1,7,-1
 195.3 532 l 1,4,-1
EndSplineSet
EndChar
StartChar: greater
Encoding: 62 62 62
Width: 1544
Flags: W
Fore
195.3 973 m 1,0,-1
 195.3 1223 l 1,1,-1
 1349.1 760 l 1,2,-1
 1349.1 524 l 1,3,-1
 195.3 61 l 1,4,-1
 195.3 311 l 1,5,-1
 1063.8 641 l 1,6,-1
 195.3 973 l 1,0,-1
EndSplineSet
EndChar
StartChar: question
Encoding: 63 63 63
Width: 1069
Flags: W
Fore
254.7 356 m 1,0,-1
 578.7 356 l 1,1,-1
 515.7 0 l 1,2,-1
 191.7 0 l 1,3,-1
 254.7 356 l 1,0,-1
604.8 504 m 1,4,-1
 279.9 504 l 1,5,-1
 287.1 553 l 1,6,7
 301.5 633 301.5 633 340.65 695.5 c 128,-1,8
 379.8 758 379.8 758 497.7 860 c 2,9,-1
 564.3 918 l 2,10,11
 635.4 979 635.4 979 667.8 1032 c 128,-1,12
 700.2 1085 700.2 1085 700.2 1139 c 0,13,14
 700.2 1196 700.2 1196 663.75 1226.5 c 128,-1,15
 627.3 1257 627.3 1257 558.9 1257 c 0,16,17
 486.9 1257 486.9 1257 396.45 1223.5 c 128,-1,18
 306 1190 306 1190 202.5 1124 c 1,19,-1
 258.3 1438 l 1,20,21
 372.6 1480 372.6 1480 467.1 1500 c 128,-1,22
 561.6 1520 561.6 1520 648.9 1520 c 0,23,24
 823.5 1520 823.5 1520 922.5 1434.5 c 128,-1,25
 1021.5 1349 1021.5 1349 1021.5 1200 c 0,26,27
 1021.5 1081 1021.5 1081 973.8 987 c 128,-1,28
 926.1 893 926.1 893 810.9 791 c 2,29,-1
 742.5 731 l 2,30,31
 670.5 669 670.5 669 644.85 630.5 c 128,-1,32
 619.2 592 619.2 592 612 549 c 1,33,-1
 604.8 504 l 1,4,-1
EndSplineSet
EndChar
StartChar: at
Encoding: 64 64 64
Width: 1843
Flags: W
Fore
930.6 801 m 0,0,1
 835.2 801 835.2 801 766.8 696 c 128,-1,2
 698.4 591 698.4 591 698.4 446 c 0,3,4
 698.4 362 698.4 362 734.85 318 c 128,-1,5
 771.3 274 771.3 274 840.6 274 c 0,6,7
 936 274 936 274 1002.6 374.5 c 128,-1,8
 1069.2 475 1069.2 475 1069.2 621 c 0,9,10
 1069.2 707 1069.2 707 1033.2 754 c 128,-1,11
 997.2 801 997.2 801 930.6 801 c 0,0,1
1032.3 246 m 1,12,13
 991.8 171 991.8 171 924.3 129.5 c 128,-1,14
 856.8 88 856.8 88 775.8 88 c 0,15,16
 647.1 88 647.1 88 573.3 182.5 c 128,-1,17
 499.5 277 499.5 277 499.5 444 c 0,18,19
 499.5 665 499.5 665 627.3 826 c 128,-1,20
 755.1 987 755.1 987 932.4 987 c 0,21,22
 1007.1 987 1007.1 987 1063.35 945 c 128,-1,23
 1119.6 903 1119.6 903 1137.6 834 c 1,24,-1
 1159.2 967 l 1,25,-1
 1341.9 967 l 1,26,-1
 1222.2 274 l 1,27,28
 1358.1 296 1358.1 296 1449.45 437.5 c 128,-1,29
 1540.8 579 1540.8 579 1540.8 770 c 0,30,31
 1540.8 983 1540.8 983 1392.75 1118 c 128,-1,32
 1244.7 1253 1244.7 1253 1008 1253 c 0,33,34
 831.6 1253 831.6 1253 679.95 1177 c 128,-1,35
 528.3 1101 528.3 1101 422.1 958 c 0,36,37
 339.3 848 339.3 848 296.1 716 c 128,-1,38
 252.9 584 252.9 584 252.9 442 c 0,39,40
 252.9 173 252.9 173 401.85 2.5 c 128,-1,41
 550.8 -168 550.8 -168 784.8 -168 c 0,42,43
 891 -168 891 -168 994.95 -124.5 c 128,-1,44
 1098.9 -81 1098.9 -81 1192.5 2 c 1,45,-1
 1290.6 -156 l 1,46,47
 1159.2 -254 1159.2 -254 1030.5 -303 c 128,-1,48
 901.8 -352 901.8 -352 774 -352 c 0,49,50
 652.5 -352 652.5 -352 540 -311 c 128,-1,51
 427.5 -270 427.5 -270 339.3 -193 c 0,52,53
 213.3 -85 213.3 -85 148.05 74 c 128,-1,54
 82.7998 233 82.7998 233 82.7998 434 c 0,55,56
 82.7998 610 82.7998 610 136.8 774 c 128,-1,57
 190.8 938 190.8 938 293.4 1075 c 0,58,59
 424.8 1251 424.8 1251 609.75 1345.5 c 128,-1,60
 794.7 1440 794.7 1440 1008 1440 c 0,61,62
 1157.4 1440 1157.4 1440 1284.3 1393.5 c 128,-1,63
 1411.2 1347 1411.2 1347 1511.1 1255 c 1,64,65
 1605.6 1166 1605.6 1166 1656.9 1046.5 c 128,-1,66
 1708.2 927 1708.2 927 1708.2 797 c 0,67,68
 1708.2 482 1708.2 482 1524.15 285 c 128,-1,69
 1340.1 88 1340.1 88 1041.3 88 c 0,70,71
 1036.8 88 1036.8 88 1028.7 87 c 128,-1,72
 1020.6 86 1020.6 86 1017 86 c 0,73,74
 1012.5 86 1012.5 86 1009.35 86.5 c 128,-1,75
 1006.2 87 1006.2 87 1004.4 88 c 1,76,-1
 1032.3 246 l 1,12,13
EndSplineSet
EndChar
StartChar: A
Encoding: 65 65 65
Width: 1426
Flags: W
AnchorPoint: "below" 580.406 0 basechar 0
AnchorPoint: "above" 843.3 1520 basechar 0
Fore
905.4 272 m 1,0,-1
 369 272 l 1,1,-1
 235.8 0 l 1,2,-1
 -119.7 0 l 1,3,-1
 639.9 1493 l 1,4,-1
 1035.9 1493 l 1,5,-1
 1273.5 0 l 1,6,-1
 944.1 0 l 1,7,-1
 905.4 272 l 1,0,-1
499.5 543 m 1,8,-1
 860.4 543 l 1,9,-1
 779.4 1118 l 1,10,-1
 499.5 543 l 1,8,-1
EndSplineSet
KernsSLIFO: 7923 -149 0 0 563 -149 0 0 375 -149 0 0 7813 -92 0 0 7811 -92 0 0 7809 -92 0 0 373 -92 0 0 539 -112 0 0 355 -112 0 0 267 -63 0 0 265 -63 0 0 562 -235 0 0 7922 -235 0 0 374 -235 0 0 7812 -112 0 0 7810 -112 0 0 7808 -112 0 0 372 -112 0 0 370 -92 0 0 368 -92 0 0 364 -92 0 0 362 -92 0 0 360 -92 0 0 538 -196 0 0 354 -196 0 0 558 -63 0 0 492 -63 0 0 490 -63 0 0 336 -63 0 0 334 -63 0 0 332 -63 0 0 266 -63 0 0 264 -63 0 0 366 -92 0 0 357 -112 0 0 356 -196 0 0 271 -63 0 0 273 -63 0 0 269 -63 0 0 268 -63 0 0 263 -63 0 0 262 -63 0 0 253 -149 0 0 221 -235 0 0 217 -92 0 0 219 -92 0 0 218 -92 0 0 210 -63 0 0 212 -63 0 0 211 -63 0 0 8222 104 0 0 8218 104 0 0 376 -235 0 0 255 -149 0 0 8217 -253 0 0 8221 -253 0 0 338 -63 0 0 213 -63 0 0 216 -63 0 0 231 -63 0 0 220 -92 0 0 214 -63 0 0 199 -63 0 0 121 -149 0 0 119 -92 0 0 118 -112 0 0 116 -112 0 0 100 -63 0 0 99 -63 0 0 89 -235 0 0 87 -112 0 0 86 -139 0 0 85 -92 0 0 84 -196 0 0 79 -63 0 0 67 -63 0 0 59 38 0 0 58 38 0 0 46 38 0 0 44 38 0 0
EndChar
StartChar: B
Encoding: 66 66 66
Width: 1404
Flags: W
AnchorPoint: "below" 589.406 0 basechar 0
AnchorPoint: "above" 855.318 1520 basechar 0
Fore
737.1 915 m 2,0,1
 829.8 915 829.8 915 882 967 c 128,-1,2
 934.2 1019 934.2 1019 934.2 1110 c 0,3,4
 934.2 1169 934.2 1169 897.75 1200 c 128,-1,5
 861.3 1231 861.3 1231 792.9 1231 c 2,6,-1
 599.4 1231 l 1,7,-1
 543.6 915 l 1,8,-1
 737.1 915 l 2,0,1
634.5 262 m 2,9,10
 753.3 262 753.3 262 817.2 325 c 128,-1,11
 881.1 388 881.1 388 881.1 506 c 0,12,13
 881.1 581 881.1 581 837 617 c 128,-1,14
 792.9 653 792.9 653 702 653 c 2,15,-1
 497.7 653 l 1,16,-1
 429.3 262 l 1,17,-1
 634.5 262 l 2,9,10
1044.9 799 m 1,18,19
 1133.1 771 1133.1 771 1181.25 696.5 c 128,-1,20
 1229.4 622 1229.4 622 1229.4 512 c 0,21,22
 1229.4 271 1229.4 271 1067.85 135.5 c 128,-1,23
 906.3 0 906.3 0 613.8 0 c 2,24,-1
 38.7002 0 l 1,25,-1
 300.6 1493 l 1,26,-1
 819.9 1493 l 2,27,28
 1059.3 1493 1059.3 1493 1174.05 1415 c 128,-1,29
 1288.8 1337 1288.8 1337 1288.8 1174 c 0,30,31
 1288.8 1037 1288.8 1037 1221.3 933.5 c 128,-1,32
 1153.8 830 1153.8 830 1044.9 799 c 1,18,19
EndSplineSet
KernsSLIFO: 7922 -112 0 0 562 -112 0 0 374 -112 0 0 7812 -112 0 0 7810 -112 0 0 7808 -112 0 0 372 -112 0 0 221 -112 0 0 376 -112 0 0 89 -112 0 0 87 -112 0 0 86 -83 0 0
EndChar
StartChar: C
Encoding: 67 67 67
Width: 1352
Flags: W
AnchorPoint: "below" 687.681 0 basechar 0
AnchorPoint: "above" 968.4 1520 basechar 0
Fore
1116.9 70 m 1,0,1
 992.7 21 992.7 21 878.4 -4 c 128,-1,2
 764.1 -29 764.1 -29 661.5 -29 c 0,3,4
 390.6 -29 390.6 -29 228.6 136 c 128,-1,5
 66.5996 301 66.5996 301 66.5996 573 c 0,6,7
 66.5996 752 66.5996 752 117.9 910.5 c 128,-1,8
 169.2 1069 169.2 1069 269.1 1200 c 0,9,10
 387 1354 387 1354 553.05 1437 c 128,-1,11
 719.1 1520 719.1 1520 910.8 1520 c 0,12,13
 1015.2 1520 1015.2 1520 1120.5 1492.5 c 128,-1,14
 1225.8 1465 1225.8 1465 1334.7 1409 c 1,15,-1
 1278.9 1100 l 1,16,17
 1192.5 1173 1192.5 1173 1105.2 1207 c 128,-1,18
 1017.9 1241 1017.9 1241 918 1241 c 0,19,20
 710.1 1241 710.1 1241 569.7 1063 c 128,-1,21
 429.3 885 429.3 885 429.3 618 c 0,22,23
 429.3 446 429.3 446 515.7 348 c 128,-1,24
 602.1 250 602.1 250 754.2 250 c 0,25,26
 845.1 250 845.1 250 947.25 286.5 c 128,-1,27
 1049.4 323 1049.4 323 1176.3 401 c 1,28,-1
 1116.9 70 l 1,0,1
EndSplineSet
KernsSLIFO: 536 -73 0 0 348 -73 0 0 346 -73 0 0 350 -73 0 0 352 -73 0 0 83 -73 0 0
EndChar
StartChar: D
Encoding: 68 68 68
Width: 1530
Flags: W
AnchorPoint: "below" 568.706 0 basechar 0
AnchorPoint: "above" 882 1520 basechar 0
Fore
597.6 1202 m 1,0,-1
 436.5 291 l 1,1,-1
 560.7 291 l 2,2,3
 802.8 291 802.8 291 944.1 442 c 128,-1,4
 1085.4 593 1085.4 593 1085.4 850 c 0,5,6
 1085.4 1024 1085.4 1024 993.15 1113 c 128,-1,7
 900.9 1202 900.9 1202 719.1 1202 c 2,8,-1
 597.6 1202 l 1,0,-1
300.6 1493 m 1,9,-1
 665.1 1493 l 2,10,11
 926.1 1493 926.1 1493 1056.6 1458.5 c 128,-1,12
 1187.1 1424 1187.1 1424 1273.5 1343 c 0,13,14
 1360.8 1262 1360.8 1262 1404.9 1146.5 c 128,-1,15
 1449 1031 1449 1031 1449 885 c 0,16,17
 1449 682 1449 682 1373.85 502.5 c 128,-1,18
 1298.7 323 1298.7 323 1162.8 201 c 1,19,20
 1044 92 1044 92 886.95 46 c 128,-1,21
 729.9 0 729.9 0 404.1 0 c 2,22,-1
 38.7002 0 l 1,23,-1
 300.6 1493 l 1,9,-1
EndSplineSet
KernsSLIFO: 7922 -159 0 0 562 -159 0 0 374 -159 0 0 221 -159 0 0 8222 -36 0 0 8218 -36 0 0 376 -159 0 0 89 -159 0 0 45 38 0 0
EndChar
StartChar: E
Encoding: 69 69 69
Width: 1259
Flags: W
AnchorPoint: "below" 490.406 0 basechar 0
AnchorPoint: "above" 806.4 1520 basechar 0
Fore
300.6 1493 m 1,0,-1
 1234.8 1493 l 1,1,-1
 1183.5 1202 l 1,2,-1
 595.8 1202 l 1,3,-1
 547.2 924 l 1,4,-1
 1100.7 924 l 1,5,-1
 1048.5 633 l 1,6,-1
 495.9 633 l 1,7,-1
 436.5 291 l 1,8,-1
 1043.1 291 l 1,9,-1
 993.6 0 l 1,10,-1
 38.7002 0 l 1,11,-1
 300.6 1493 l 1,0,-1
EndSplineSet
EndChar
StartChar: F
Encoding: 70 70 70
Width: 1259
Flags: W
AnchorPoint: "below" 211.406 0 basechar 0
AnchorPoint: "above" 756.318 1520 basechar 0
Fore
300.6 1493 m 1,0,-1
 1234.8 1493 l 1,1,-1
 1183.5 1202 l 1,2,-1
 595.8 1202 l 1,3,-1
 547.2 924 l 1,4,-1
 1100.7 924 l 1,5,-1
 1048.5 633 l 1,6,-1
 495.9 633 l 1,7,-1
 385.2 0 l 1,8,-1
 38.7002 0 l 1,9,-1
 300.6 1493 l 1,0,-1
EndSplineSet
KernsSLIFO: 483 -235 0 0 7923 -188 0 0 563 -188 0 0 375 -188 0 0 371 -196 0 0 369 -196 0 0 365 -196 0 0 363 -196 0 0 361 -196 0 0 343 -225 0 0 559 -159 0 0 493 -159 0 0 491 -159 0 0 337 -159 0 0 335 -159 0 0 333 -159 0 0 281 -159 0 0 279 -159 0 0 277 -159 0 0 275 -159 0 0 261 -235 0 0 259 -235 0 0 257 -235 0 0 260 -264 0 0 258 -264 0 0 256 -264 0 0 252 -196 0 0 229 -235 0 0 230 -235 0 0 59 -112 0 0 242 -159 0 0 45 -102 0 0 8222 -452 0 0 367 -196 0 0 245 -159 0 0 235 -159 0 0 249 -196 0 0 44 -444 0 0 224 -235 0 0 195 -264 0 0 234 -159 0 0 341 -225 0 0 232 -159 0 0 196 -264 0 0 193 -264 0 0 8217 -36 0 0 251 -196 0 0 253 -188 0 0 8218 -452 0 0 227 -235 0 0 194 -264 0 0 248 -159 0 0 244 -159 0 0 65 -264 0 0 97 -235 0 0 228 -235 0 0 246 -159 0 0 250 -196 0 0 225 -235 0 0 345 -225 0 0 46 -452 0 0 226 -235 0 0 233 -159 0 0 283 -159 0 0 101 -159 0 0 339 -159 0 0 255 -188 0 0 111 -159 0 0 114 -225 0 0 117 -196 0 0 192 -264 0 0 121 -188 0 0 58 -112 0 0 243 -159 0 0
EndChar
StartChar: G
Encoding: 71 71 71
Width: 1512
Flags: W
AnchorPoint: "above" 972.495 1520 basechar 0
AnchorPoint: "below" 706.581 0 basechar 0
Fore
1255.5 111 m 1,0,1
 1124.1 40 1124.1 40 982.8 5.5 c 128,-1,2
 841.5 -29 841.5 -29 680.4 -29 c 0,3,4
 394.2 -29 394.2 -29 230.4 132.5 c 128,-1,5
 66.5996 294 66.5996 294 66.5996 573 c 0,6,7
 66.5996 754 66.5996 754 117.9 912.5 c 128,-1,8
 169.2 1071 169.2 1071 270.9 1202 c 0,9,10
 395.1 1362 395.1 1362 563.85 1441 c 128,-1,11
 732.6 1520 732.6 1520 949.5 1520 c 0,12,13
 1070.1 1520 1070.1 1520 1192.5 1492 c 128,-1,14
 1314.9 1464 1314.9 1464 1433.7 1409 c 1,15,-1
 1380.6 1100 l 1,16,17
 1270.8 1171 1270.8 1171 1165.95 1206 c 128,-1,18
 1061.1 1241 1061.1 1241 954.9 1241 c 0,19,20
 722.7 1241 722.7 1241 576.9 1069 c 128,-1,21
 431.1 897 431.1 897 431.1 627 c 0,22,23
 431.1 448 431.1 448 516.15 349 c 128,-1,24
 601.2 250 601.2 250 756 250 c 0,25,26
 806.4 250 806.4 250 856.8 257.5 c 128,-1,27
 907.2 265 907.2 265 958.5 281 c 1,28,-1
 1009.8 571 l 1,29,-1
 798.3 571 l 1,30,-1
 842.4 829 l 1,31,-1
 1380.6 829 l 1,32,-1
 1255.5 111 l 1,0,1
EndSplineSet
KernsSLIFO: 356 -36 0 0 221 -83 0 0 376 -83 0 0 89 -83 0 0 84 -36 0 0
EndChar
StartChar: H
Encoding: 72 72 72
Width: 1542
Flags: W
AnchorPoint: "above" 904.815 1520 basechar 0
AnchorPoint: "below" 638.906 0 basechar 0
Fore
300.6 1493 m 1,0,-1
 647.1 1493 l 1,1,-1
 547.2 924 l 1,2,-1
 1058.4 924 l 1,3,-1
 1157.4 1493 l 1,4,-1
 1503.9 1493 l 1,5,-1
 1242 0 l 1,6,-1
 895.5 0 l 1,7,-1
 1006.2 633 l 1,8,-1
 495.9 633 l 1,9,-1
 385.2 0 l 1,10,-1
 38.7002 0 l 1,11,-1
 300.6 1493 l 1,0,-1
EndSplineSet
EndChar
StartChar: I
Encoding: 73 73 73
Width: 685
Flags: W
AnchorPoint: "below" 210.656 6 basechar 0
AnchorPoint: "above" 485.1 1520 basechar 0
Fore
300.6 1493 m 1,0,-1
 647.1 1493 l 1,1,-1
 385.2 0 l 1,2,-1
 38.7002 0 l 1,3,-1
 300.6 1493 l 1,0,-1
EndSplineSet
EndChar
StartChar: J
Encoding: 74 74 74
Width: 685
Flags: W
AnchorPoint: "below" 170.243 -430 basechar 0
AnchorPoint: "above" 509.4 1520 basechar 0
Fore
300.6 1493 m 1,0,-1
 647.1 1493 l 1,1,-1
 411.3 145 l 1,2,3
 359.1 -147 359.1 -147 206.55 -278.5 c 128,-1,4
 54 -410 54 -410 -235.8 -410 c 2,5,-1
 -306 -410 l 1,6,-1
 -254.7 -119 l 1,7,-1
 -200.7 -119 l 2,8,9
 -93.5996 -119 -93.5996 -119 -25.6504 -51.5 c 128,-1,10
 42.2998 16 42.2998 16 64.7998 145 c 2,11,-1
 300.6 1493 l 1,0,-1
EndSplineSet
AlternateSubs: 0 2 'aalt' J.alt
Substitution: 0 2 'salt' J.alt
EndChar
StartChar: K
Encoding: 75 75 75
Width: 1428
Flags: W
AnchorPoint: "above" 928.215 1520 basechar 0
AnchorPoint: "below" 662.307 0 basechar 0
Fore
300.6 1493 m 1,0,-1
 647.1 1493 l 1,1,-1
 552.6 956 l 1,2,-1
 1124.1 1493 l 1,3,-1
 1542.6 1493 l 1,4,-1
 772.2 768 l 1,5,-1
 1352.7 0 l 1,6,-1
 945.9 0 l 1,7,-1
 494.1 623 l 1,8,-1
 385.2 0 l 1,9,-1
 38.7002 0 l 1,10,-1
 300.6 1493 l 1,0,-1
EndSplineSet
KernsSLIFO: 367 -112 0 0 366 -73 0 0 283 -112 0 0 268 -131 0 0 262 -131 0 0 253 -206 0 0 217 -73 0 0 219 -73 0 0 218 -73 0 0 210 -131 0 0 212 -131 0 0 211 -131 0 0 8222 38 0 0 8218 38 0 0 255 -206 0 0 339 -112 0 0 338 -178 0 0 213 -131 0 0 248 -112 0 0 216 -55 0 0 252 -112 0 0 251 -112 0 0 249 -112 0 0 250 -112 0 0 245 -112 0 0 246 -112 0 0 244 -112 0 0 242 -112 0 0 243 -112 0 0 235 -112 0 0 234 -112 0 0 232 -112 0 0 233 -112 0 0 220 -73 0 0 214 -131 0 0 199 -131 0 0 121 -206 0 0 117 -112 0 0 111 -112 0 0 101 -112 0 0 87 -55 0 0 85 -73 0 0 79 -131 0 0 67 -131 0 0 45 -253 0 0
EndChar
StartChar: L
Encoding: 76 76 76
Width: 1174
Flags: W
AnchorPoint: "above" 477.318 1520 basechar 0
AnchorPoint: "below" 515.606 0 basechar 0
Fore
300.6 1493 m 1,0,-1
 647.1 1493 l 1,1,-1
 436.5 291 l 1,2,-1
 1043.1 291 l 1,3,-1
 993.6 0 l 1,4,-1
 38.7002 0 l 1,5,-1
 300.6 1493 l 1,0,-1
EndSplineSet
KernsSLIFO: 366 -112 0 0 356 -339 0 0 253 -253 0 0 221 -319 0 0 217 -112 0 0 219 -112 0 0 218 -112 0 0 210 -73 0 0 212 -73 0 0 211 -73 0 0 376 -319 0 0 255 -253 0 0 8217 -509 0 0 8221 -528 0 0 338 -73 0 0 213 -73 0 0 216 -73 0 0 220 -112 0 0 214 -73 0 0 121 -253 0 0 89 -319 0 0 87 -178 0 0 86 -282 0 0 85 -112 0 0 84 -339 0 0 79 -73 0 0
EndChar
StartChar: M
Encoding: 77 77 77
Width: 1834
Flags: W
AnchorPoint: "above" 1051.51 1520 basechar 0
AnchorPoint: "below" 785.606 0 basechar 0
Fore
300.6 1493 m 1,0,-1
 726.3 1493 l 1,1,-1
 899.1 700 l 1,2,-1
 1352.7 1493 l 1,3,-1
 1795.5 1493 l 1,4,-1
 1533.6 0 l 1,5,-1
 1205.1 0 l 1,6,-1
 1396.8 1102 l 1,7,-1
 930.6 287 l 1,8,-1
 744.3 287 l 1,9,-1
 558.9 1102 l 1,10,-1
 367.2 0 l 1,11,-1
 38.7002 0 l 1,12,-1
 300.6 1493 l 1,0,-1
EndSplineSet
EndChar
StartChar: N
Encoding: 78 78 78
Width: 1542
Flags: W
AnchorPoint: "below" 660.507 0 basechar 0
AnchorPoint: "above" 968.4 1520 basechar 0
Fore
300.6 1493 m 1,0,-1
 687.6 1493 l 1,1,-1
 995.4 459 l 1,2,-1
 1176.3 1493 l 1,3,-1
 1503.9 1493 l 1,4,-1
 1242 0 l 1,5,-1
 855 0 l 1,6,-1
 547.2 1034 l 1,7,-1
 367.2 0 l 1,8,-1
 38.7002 0 l 1,9,-1
 300.6 1493 l 1,0,-1
EndSplineSet
EndChar
StartChar: O
Encoding: 79 79 79
Width: 1566
Flags: W
AnchorPoint: "above" 918.495 1520 basechar 0
AnchorPoint: "below" 652.581 0 basechar 0
Fore
1134 881 m 0,0,1
 1134 1057 1134 1057 1062.45 1149 c 128,-1,2
 990.9 1241 990.9 1241 855 1241 c 0,3,4
 675 1241 675 1241 553.05 1061.5 c 128,-1,5
 431.1 882 431.1 882 431.1 612 c 0,6,7
 431.1 440 431.1 440 502.2 345 c 128,-1,8
 573.3 250 573.3 250 700.2 250 c 0,9,10
 803.7 250 803.7 250 884.25 298.5 c 128,-1,11
 964.8 347 964.8 347 1021.5 442 c 0,12,13
 1075.5 533 1075.5 533 1104.75 647 c 128,-1,14
 1134 761 1134 761 1134 881 c 0,0,1
905.4 1520 m 0,15,16
 1173.6 1520 1173.6 1520 1336.95 1354.5 c 128,-1,17
 1500.3 1189 1500.3 1189 1500.3 922 c 0,18,19
 1500.3 740 1500.3 740 1450.35 578 c 128,-1,20
 1400.4 416 1400.4 416 1305 287 c 0,21,22
 1188 128 1188 128 1028.25 49.5 c 128,-1,23
 868.5 -29 868.5 -29 659.7 -29 c 0,24,25
 392.4 -29 392.4 -29 229.5 136 c 128,-1,26
 66.5996 301 66.5996 301 66.5996 569 c 0,27,28
 66.5996 752 66.5996 752 116.1 914 c 128,-1,29
 165.6 1076 165.6 1076 261.9 1206 c 0,30,31
 377.1 1364 377.1 1364 536.85 1442 c 128,-1,32
 696.6 1520 696.6 1520 905.4 1520 c 0,15,16
EndSplineSet
KernsSLIFO: 221 -149 0 0 376 -149 0 0 89 -149 0 0 88 -73 0 0 86 -73 0 0 46 -45 0 0 45 38 0 0 44 -45 0 0
EndChar
StartChar: P
Encoding: 80 80 80
Width: 1350
Flags: W
AnchorPoint: "below" 211.406 0 basechar 0
AnchorPoint: "above" 857.118 1520 basechar 0
Fore
300.6 1493 m 1,0,-1
 875.7 1493 l 2,1,2
 1087.2 1493 1087.2 1493 1206.45 1385.5 c 128,-1,3
 1325.7 1278 1325.7 1278 1325.7 1087 c 0,4,5
 1325.7 970 1325.7 970 1286.1 864.5 c 128,-1,6
 1246.5 759 1246.5 759 1172.7 680 c 0,7,8
 1092.6 595 1092.6 595 981.9 556.5 c 128,-1,9
 871.2 518 871.2 518 703.8 518 c 2,10,-1
 475.2 518 l 1,11,-1
 385.2 0 l 1,12,-1
 38.7002 0 l 1,13,-1
 300.6 1493 l 1,0,-1
599.4 1214 m 1,14,-1
 525.6 797 l 1,15,-1
 717.3 797 l 2,16,17
 839.7 797 839.7 797 904.5 861 c 128,-1,18
 969.3 925 969.3 925 969.3 1047 c 0,19,20
 969.3 1128 969.3 1128 922.95 1171 c 128,-1,21
 876.6 1214 876.6 1214 789.3 1214 c 2,22,-1
 599.4 1214 l 1,14,-1
EndSplineSet
KernsSLIFO: 252 -73 0 0 229 -131 0 0 230 -131 0 0 45 -36 0 0 8222 -415 0 0 367 -73 0 0 235 -55 0 0 249 -73 0 0 44 -528 0 0 224 -131 0 0 195 -188 0 0 234 -55 0 0 341 -63 0 0 8221 38 0 0 232 -55 0 0 196 -188 0 0 193 -188 0 0 8217 57 0 0 251 -73 0 0 8218 -415 0 0 227 -131 0 0 194 -188 0 0 117 -73 0 0 353 -73 0 0 65 -188 0 0 97 -131 0 0 228 -131 0 0 250 -73 0 0 351 -73 0 0 225 -131 0 0 345 -63 0 0 226 -131 0 0 233 -55 0 0 283 -55 0 0 101 -55 0 0 115 -73 0 0 114 -63 0 0 46 -528 0 0 192 -188 0 0
EndChar
StartChar: Q
Encoding: 81 81 81
Width: 1566
Flags: W
AnchorPoint: "below" 676.198 0 basechar 0
AnchorPoint: "above" 942.111 1520 basechar 0
Fore
684 -27 m 1,0,1
 674.1 -28 674.1 -28 664.2 -28.5 c 128,-1,2
 654.3 -29 654.3 -29 631.8 -29 c 0,3,4
 530.1 -29 530.1 -29 440.1 2 c 128,-1,5
 350.1 33 350.1 33 276.3 94 c 0,6,7
 177.3 175 177.3 175 121.95 300.5 c 128,-1,8
 66.5996 426 66.5996 426 66.5996 569 c 0,9,10
 66.5996 752 66.5996 752 116.55 914.5 c 128,-1,11
 166.5 1077 166.5 1077 261.9 1206 c 0,12,13
 378 1365 378 1365 536.85 1442.5 c 128,-1,14
 695.7 1520 695.7 1520 905.4 1520 c 0,15,16
 1173.6 1520 1173.6 1520 1336.95 1354.5 c 128,-1,17
 1500.3 1189 1500.3 1189 1500.3 922 c 0,18,19
 1500.3 608 1500.3 608 1363.05 371.5 c 128,-1,20
 1225.8 135 1225.8 135 981 27 c 1,21,-1
 1187.1 -299 l 1,22,-1
 856.8 -299 l 1,23,-1
 684 -27 l 1,0,1
1134 881 m 0,24,25
 1134 1057 1134 1057 1062.45 1149 c 128,-1,26
 990.9 1241 990.9 1241 855 1241 c 0,27,28
 675 1241 675 1241 553.05 1061.5 c 128,-1,29
 431.1 882 431.1 882 431.1 612 c 0,30,31
 431.1 440 431.1 440 502.2 345 c 128,-1,32
 573.3 250 573.3 250 700.2 250 c 0,33,34
 803.7 250 803.7 250 884.25 298.5 c 128,-1,35
 964.8 347 964.8 347 1021.5 442 c 0,36,37
 1075.5 533 1075.5 533 1104.75 647 c 128,-1,38
 1134 761 1134 761 1134 881 c 0,24,25
EndSplineSet
KernsSLIFO: 45 38 0 0
EndChar
StartChar: R
Encoding: 82 82 82
Width: 1419
Flags: W
AnchorPoint: "below" 509.307 0 basechar 0
AnchorPoint: "above" 801 1520 basechar 0
Fore
676.8 831 m 2,0,1
 794.7 831 794.7 831 855.45 892 c 128,-1,2
 916.2 953 916.2 953 916.2 1071 c 0,3,4
 916.2 1145 916.2 1145 874.35 1179.5 c 128,-1,5
 832.5 1214 832.5 1214 742.5 1214 c 2,6,-1
 599.4 1214 l 1,7,-1
 531 831 l 1,8,-1
 676.8 831 l 2,0,1
485.1 565 m 1,9,-1
 385.2 0 l 1,10,-1
 38.7002 0 l 1,11,-1
 300.6 1493 l 1,12,-1
 812.7 1493 l 2,13,14
 1034.1 1493 1034.1 1493 1148.4 1401 c 128,-1,15
 1262.7 1309 1262.7 1309 1262.7 1130 c 0,16,17
 1262.7 949 1262.7 949 1172.7 832 c 128,-1,18
 1082.7 715 1082.7 715 928.8 698 c 1,19,20
 999 682 999 682 1045.8 618.5 c 128,-1,21
 1092.6 555 1092.6 555 1127.7 424 c 2,22,-1
 1242 0 l 1,23,-1
 897.3 0 l 1,24,-1
 796.5 371 l 1,25,26
 765.9 482 765.9 482 722.25 523.5 c 128,-1,27
 678.6 565 678.6 565 595.8 565 c 2,28,-1
 485.1 565 l 1,9,-1
EndSplineSet
KernsSLIFO: 367 -112 0 0 356 -92 0 0 283 -102 0 0 253 -131 0 0 221 -188 0 0 376 -188 0 0 255 -131 0 0 339 -102 0 0 248 -102 0 0 252 -112 0 0 251 -112 0 0 249 -112 0 0 250 -112 0 0 245 -102 0 0 246 -102 0 0 244 -102 0 0 242 -102 0 0 243 -102 0 0 235 -102 0 0 234 -102 0 0 232 -102 0 0 233 -102 0 0 121 -131 0 0 117 -112 0 0 111 -102 0 0 101 -102 0 0 89 -188 0 0 84 -92 0 0 46 38 0 0 44 38 0 0
EndChar
StartChar: S
Encoding: 83 83 83
Width: 1327
Flags: W
AnchorPoint: "above" 768.193 1520 basechar 0
AnchorPoint: "below" 502.281 0 basechar 0
Fore
1225.8 1446 m 1,0,-1
 1170 1130 l 1,1,2
 1068.3 1186 1068.3 1186 969.3 1213.5 c 128,-1,3
 870.3 1241 870.3 1241 775.8 1241 c 0,4,5
 646.2 1241 646.2 1241 573.75 1196 c 128,-1,6
 501.3 1151 501.3 1151 501.3 1071 c 0,7,8
 501.3 1020 501.3 1020 533.25 991.5 c 128,-1,9
 565.2 963 565.2 963 665.1 936 c 2,10,-1
 807.3 897 l 2,11,12
 985.5 847 985.5 847 1068.75 752.5 c 128,-1,13
 1152 658 1152 658 1152 508 c 0,14,15
 1152 265 1152 265 985.95 118 c 128,-1,16
 819.9 -29 819.9 -29 540 -29 c 0,17,18
 409.5 -29 409.5 -29 280.35 -2 c 128,-1,19
 151.2 25 151.2 25 27.9004 78 c 1,20,-1
 82.7998 403 l 1,21,22
 202.5 326 202.5 326 315.45 288 c 128,-1,23
 428.4 250 428.4 250 538.2 250 c 0,24,25
 657 250 657 250 731.25 304 c 128,-1,26
 805.5 358 805.5 358 805.5 442 c 0,27,28
 805.5 497 805.5 497 772.2 527.5 c 128,-1,29
 738.9 558 738.9 558 626.4 590 c 2,30,-1
 485.1 629 l 2,31,32
 328.5 672 328.5 672 252 765 c 128,-1,33
 175.5 858 175.5 858 175.5 1006 c 0,34,35
 175.5 1239 175.5 1239 336.15 1379.5 c 128,-1,36
 496.8 1520 496.8 1520 768.6 1520 c 0,37,38
 877.5 1520 877.5 1520 992.25 1501.5 c 128,-1,39
 1107 1483 1107 1483 1225.8 1446 c 1,0,-1
EndSplineSet
KernsSLIFO: 350 -73 0 0 352 -73 0 0 83 -73 0 0
EndChar
StartChar: T
Encoding: 84 84 84
Width: 1257
Flags: W
AnchorPoint: "above" 763.519 1520 basechar 0
AnchorPoint: "below" 497.606 0 basechar 0
Fore
140.4 1493 m 1,0,-1
 1378.8 1493 l 1,1,-1
 1327.5 1202 l 1,2,-1
 881.1 1202 l 1,3,-1
 670.5 0 l 1,4,-1
 324 0 l 1,5,-1
 534.6 1202 l 1,6,-1
 88.2002 1202 l 1,7,-1
 140.4 1493 l 1,0,-1
EndSplineSet
KernsSLIFO: 252 -264 0 0 229 -243 0 0 230 -243 0 0 59 -112 0 0 242 -264 0 0 45 -301 0 0 8222 -301 0 0 367 -264 0 0 245 -264 0 0 235 -264 0 0 249 -264 0 0 58 -112 0 0 224 -243 0 0 195 -159 0 0 234 -264 0 0 231 -264 0 0 341 -225 0 0 232 -264 0 0 196 -159 0 0 193 -159 0 0 269 -264 0 0 345 -225 0 0 251 -264 0 0 253 -339 0 0 8218 -301 0 0 227 -243 0 0 194 -159 0 0 248 -264 0 0 244 -264 0 0 353 -243 0 0 65 -159 0 0 283 -264 0 0 351 -243 0 0 228 -243 0 0 119 -282 0 0 246 -264 0 0 250 -264 0 0 263 -264 0 0 225 -243 0 0 46 -348 0 0 84 47 0 0 226 -243 0 0 233 -264 0 0 356 47 0 0 97 -243 0 0 99 -264 0 0 101 -264 0 0 339 -264 0 0 255 -339 0 0 111 -264 0 0 115 -243 0 0 114 -225 0 0 117 -264 0 0 192 -159 0 0 121 -339 0 0 44 -329 0 0 243 -264 0 0
EndChar
StartChar: U
Encoding: 85 85 85
Width: 1496
Flags: W
AnchorPoint: "below" 618.942 0 basechar 0
AnchorPoint: "above" 880.2 1520 basechar 0
Fore
300.6 1493 m 1,0,-1
 647.1 1493 l 1,1,-1
 490.5 599 l 1,2,3
 481.5 551 481.5 551 477.45 514 c 128,-1,4
 473.4 477 473.4 477 473.4 449 c 0,5,6
 473.4 351 473.4 351 520.65 302.5 c 128,-1,7
 567.9 254 567.9 254 661.5 254 c 0,8,9
 787.5 254 787.5 254 855 332.5 c 128,-1,10
 922.5 411 922.5 411 954.9 598 c 1,11,-1
 1111.5 1493 l 1,12,-1
 1458 1493 l 1,13,-1
 1301.4 598 l 1,14,15
 1242.9 268 1242.9 268 1079.55 119.5 c 128,-1,16
 916.2 -29 916.2 -29 612 -29 c 0,17,18
 373.5 -29 373.5 -29 249.3 84.5 c 128,-1,19
 125.1 198 125.1 198 125.1 414 c 0,20,21
 125.1 450 125.1 450 129.6 494.5 c 128,-1,22
 134.1 539 134.1 539 144 598 c 1,23,-1
 300.6 1493 l 1,0,-1
EndSplineSet
KernsSLIFO: 193 -92 0 0 194 -92 0 0 195 -92 0 0 192 -92 0 0 196 -92 0 0 65 -92 0 0
EndChar
StartChar: V
Encoding: 86 86 86
Width: 1426
Flags: W
AnchorPoint: "below" 583.106 0 basechar 0
AnchorPoint: "above" 849.019 1520 basechar 0
Fore
140.4 1493 m 1,0,-1
 469.8 1493 l 1,1,-1
 634.5 377 l 1,2,-1
 1190.7 1493 l 1,3,-1
 1548 1493 l 1,4,-1
 789.3 0 l 1,5,-1
 376.2 0 l 1,6,-1
 140.4 1493 l 1,0,-1
EndSplineSet
KernsSLIFO: 367 -149 0 0 283 -149 0 0 210 -36 0 0 212 -36 0 0 211 -36 0 0 193 -139 0 0 194 -139 0 0 8222 -272 0 0 8218 -272 0 0 339 -149 0 0 338 -45 0 0 213 -36 0 0 195 -139 0 0 192 -139 0 0 248 -149 0 0 230 -159 0 0 216 -36 0 0 252 -149 0 0 251 -149 0 0 249 -149 0 0 250 -149 0 0 245 -149 0 0 246 -149 0 0 244 -149 0 0 242 -149 0 0 243 -149 0 0 235 -149 0 0 234 -149 0 0 232 -149 0 0 233 -149 0 0 229 -159 0 0 227 -159 0 0 228 -159 0 0 226 -159 0 0 224 -159 0 0 225 -159 0 0 214 -36 0 0 196 -139 0 0 117 -149 0 0 111 -149 0 0 105 -36 0 0 101 -149 0 0 97 -159 0 0 79 -36 0 0 65 -139 0 0 59 -92 0 0 58 -92 0 0 46 -319 0 0 45 -149 0 0 44 -319 0 0
EndChar
StartChar: W
Encoding: 87 87 87
Width: 2033
Flags: W
AnchorPoint: "above" 1149.94 1527 basechar 0
AnchorPoint: "below" 882.807 0 basechar 0
Fore
197.1 1493 m 1,0,-1
 517.5 1493 l 1,1,-1
 558.9 408 l 1,2,-1
 981 1493 l 1,3,-1
 1310.4 1493 l 1,4,-1
 1354.5 408 l 1,5,-1
 1762.2 1493 l 1,6,-1
 2106.9 1493 l 1,7,-1
 1528.2 0 l 1,8,-1
 1135.8 0 l 1,9,-1
 1090.8 1135 l 1,10,-1
 656.1 0 l 1,11,-1
 254.7 0 l 1,12,-1
 197.1 1493 l 1,0,-1
EndSplineSet
KernsSLIFO: 229 -139 0 0 230 -139 0 0 59 -63 0 0 242 -112 0 0 45 -92 0 0 46 -178 0 0 245 -112 0 0 235 -131 0 0 44 -178 0 0 224 -139 0 0 195 -73 0 0 234 -131 0 0 341 -120 0 0 232 -131 0 0 196 -73 0 0 193 -73 0 0 227 -139 0 0 194 -73 0 0 248 -112 0 0 244 -112 0 0 65 -73 0 0 97 -139 0 0 228 -139 0 0 246 -112 0 0 225 -139 0 0 345 -120 0 0 226 -139 0 0 233 -131 0 0 283 -131 0 0 101 -131 0 0 339 -112 0 0 111 -112 0 0 114 -120 0 0 192 -73 0 0 58 -63 0 0 243 -112 0 0
EndChar
StartChar: X
Encoding: 88 88 88
Width: 1421
Flags: W
AnchorPoint: "below" 578.606 0 basechar 0
AnchorPoint: "above" 845.742 1527 basechar 0
Fore
914.4 756 m 1,0,-1
 1243.8 0 l 1,1,-1
 891.9 0 l 1,2,-1
 673.2 500 l 1,3,-1
 279.9 0 l 1,4,-1
 -93.5996 0 l 1,5,-1
 510.3 766 l 1,6,-1
 191.7 1493 l 1,7,-1
 545.4 1493 l 1,8,-1
 752.4 1024 l 1,9,-1
 1120.5 1493 l 1,10,-1
 1496.7 1493 l 1,11,-1
 914.4 756 l 1,0,-1
EndSplineSet
KernsSLIFO: 283 -131 0 0 268 -73 0 0 262 -73 0 0 210 -73 0 0 212 -73 0 0 211 -73 0 0 338 -112 0 0 213 -73 0 0 216 -73 0 0 235 -131 0 0 234 -131 0 0 232 -131 0 0 233 -131 0 0 214 -73 0 0 199 -73 0 0 101 -131 0 0 79 -73 0 0 67 -73 0 0 45 -243 0 0
EndChar
StartChar: Y
Encoding: 89 89 89
Width: 1334
Flags: W
AnchorPoint: "above" 803.442 1527 basechar 0
AnchorPoint: "below" 536.307 0 basechar 0
Fore
116.1 1493 m 1,0,-1
 462.6 1493 l 1,1,-1
 691.2 940 l 1,2,-1
 1090.8 1493 l 1,3,-1
 1491.3 1493 l 1,4,-1
 828 623 l 1,5,-1
 719.1 0 l 1,6,-1
 372.6 0 l 1,7,-1
 481.5 623 l 1,8,-1
 116.1 1493 l 1,0,-1
EndSplineSet
KernsSLIFO: 367 -225 0 0 283 -264 0 0 268 -73 0 0 262 -73 0 0 210 -73 0 0 212 -73 0 0 211 -73 0 0 193 -196 0 0 194 -196 0 0 8222 -405 0 0 8218 -376 0 0 339 -264 0 0 338 -120 0 0 213 -73 0 0 195 -196 0 0 192 -196 0 0 248 -264 0 0 230 -243 0 0 216 -73 0 0 252 -225 0 0 251 -225 0 0 249 -225 0 0 250 -225 0 0 245 -264 0 0 246 -264 0 0 244 -264 0 0 242 -264 0 0 243 -264 0 0 235 -264 0 0 234 -264 0 0 232 -264 0 0 233 -264 0 0 229 -243 0 0 227 -243 0 0 228 -243 0 0 226 -243 0 0 224 -243 0 0 225 -243 0 0 214 -73 0 0 199 -73 0 0 196 -196 0 0 117 -225 0 0 111 -264 0 0 101 -264 0 0 97 -243 0 0 79 -73 0 0 67 -73 0 0 65 -196 0 0 59 -178 0 0 58 -178 0 0 46 -339 0 0 45 -301 0 0 44 -339 0 0
EndChar
StartChar: Z
Encoding: 90 90 90
Width: 1336
Flags: W
AnchorPoint: "above" 803.118 1520 basechar 0
AnchorPoint: "below" 535.105 -12 basechar 0
Fore
234 1493 m 1,0,-1
 1364.4 1493 l 1,1,-1
 1321.2 1255 l 1,2,-1
 450 291 l 1,3,-1
 1174.5 291 l 1,4,-1
 1122.3 0 l 1,5,-1
 -47.7002 0 l 1,6,-1
 -7.2002 238 l 1,7,-1
 866.7 1202 l 1,8,-1
 182.7 1202 l 1,9,-1
 234 1493 l 1,0,-1
EndSplineSet
KernsSLIFO: 45 -149 0 0
EndChar
StartChar: bracketleft
Encoding: 91 91 91
Width: 842
Flags: W
Fore
300.6 1556 m 1,0,-1
 858.6 1556 l 1,1,-1
 818.1 1331 l 1,2,-1
 567.9 1331 l 1,3,-1
 325.8 -45 l 1,4,-1
 578.7 -45 l 1,5,-1
 538.2 -270 l 1,6,-1
 -18 -270 l 1,7,-1
 300.6 1556 l 1,0,-1
EndSplineSet
EndChar
StartChar: backslash
Encoding: 92 92 92
Width: 673
Flags: W
Fore
309.6 -190 m 1,0,-1
 130.5 1493 l 1,1,-1
 330.3 1493 l 1,2,-1
 508.5 -190 l 1,3,-1
 309.6 -190 l 1,0,-1
EndSplineSet
EndChar
StartChar: bracketright
Encoding: 93 93 93
Width: 842
Flags: W
Fore
506.7 -270 m 1,0,-1
 -51.2998 -270 l 1,1,-1
 -12.5996 -45 l 1,2,-1
 239.4 -45 l 1,3,-1
 481.5 1331 l 1,4,-1
 228.6 1331 l 1,5,-1
 267.3 1556 l 1,6,-1
 826.2 1556 l 1,7,-1
 506.7 -270 l 1,0,-1
EndSplineSet
EndChar
StartChar: asciicircum
Encoding: 94 94 94
Width: 1544
Flags: W
Fore
882.9 1493 m 1,0,-1
 1358.1 936 l 1,1,-1
 1141.2 936 l 1,2,-1
 772.2 1237 l 1,3,-1
 404.1 936 l 1,4,-1
 186.3 936 l 1,5,-1
 661.5 1493 l 1,6,-1
 882.9 1493 l 1,0,-1
EndSplineSet
EndChar
StartChar: underscore
Encoding: 95 95 95
Width: 921
Flags: W
Fore
939.6 -293 m 1,0,-1
 939.6 -483 l 1,1,-1
 -18 -483 l 1,2,-1
 -18 -293 l 1,3,-1
 939.6 -293 l 1,0,-1
EndSplineSet
EndChar
StartChar: grave
Encoding: 96 96 96
Width: 921
Flags: W
Fore
495.9 1638 m 1,0,-1
 684 1262 l 1,1,-1
 506.7 1262 l 1,2,-1
 241.2 1638 l 1,3,-1
 495.9 1638 l 1,0,-1
EndSplineSet
EndChar
StartChar: a
Encoding: 97 97 97
Width: 1243
Flags: W
AnchorPoint: "below" 530.408 0 basechar 0
AnchorPoint: "above" 705.6 1147 basechar 0
Fore
606.6 504 m 2,0,1
 486 504 486 504 424.35 462.5 c 128,-1,2
 362.7 421 362.7 421 362.7 340 c 0,3,4
 362.7 279 362.7 279 399.15 244 c 128,-1,5
 435.6 209 435.6 209 499.5 209 c 0,6,7
 598.5 209 598.5 209 665.1 275.5 c 128,-1,8
 731.7 342 731.7 342 754.2 463 c 1,9,-1
 761.4 504 l 1,10,-1
 606.6 504 l 2,0,1
1109.7 639 m 2,11,-1
 997.2 0 l 1,12,-1
 675 0 l 1,13,-1
 702 166 l 1,14,15
 622.8 66 622.8 66 534.6 18.5 c 128,-1,16
 446.4 -29 446.4 -29 342.9 -29 c 0,17,18
 199.8 -29 199.8 -29 115.65 53.5 c 128,-1,19
 31.5 136 31.5 136 31.5 276 c 0,20,21
 31.5 490 31.5 490 180.45 603.5 c 128,-1,22
 329.4 717 329.4 717 610.2 717 c 2,23,-1
 800.1 717 l 1,24,-1
 803.7 745 l 1,25,26
 806.4 759 806.4 759 806.85 765 c 128,-1,27
 807.3 771 807.3 771 807.3 776 c 0,28,29
 807.3 842 807.3 842 751.05 875.5 c 128,-1,30
 694.8 909 694.8 909 584.1 909 c 0,31,32
 484.2 909 484.2 909 390.6 886 c 128,-1,33
 297 863 297 863 209.7 817 c 1,34,-1
 258.3 1090 l 1,35,36
 359.1 1118 359.1 1118 464.85 1132.5 c 128,-1,37
 570.6 1147 570.6 1147 684 1147 c 0,38,39
 908.1 1147 908.1 1147 1017 1061.5 c 128,-1,40
 1125.9 976 1125.9 976 1125.9 801 c 0,41,42
 1125.9 767 1125.9 767 1121.85 726.5 c 128,-1,43
 1117.8 686 1117.8 686 1109.7 639 c 2,11,-1
EndSplineSet
KernsSLIFO: 253 -63 0 0 255 -63 0 0 121 -63 0 0
Substitution: 0 2 'salt' uni0251
Substitution: 0 2 'aalt' uni0251
EndChar
StartChar: b
Encoding: 98 98 98
Width: 1319
Flags: W
AnchorPoint: "above" 452.744 1520 basechar 0
AnchorPoint: "below" 494.632 0 basechar 0
Fore
747.9 887 m 0,0,1
 623.7 887 623.7 887 544.95 759.5 c 128,-1,2
 466.2 632 466.2 632 466.2 428 c 0,3,4
 466.2 336 466.2 336 510.75 283.5 c 128,-1,5
 555.3 231 555.3 231 634.5 231 c 0,6,7
 756 231 756 231 835.2 356.5 c 128,-1,8
 914.4 482 914.4 482 914.4 678 c 0,9,10
 914.4 780 914.4 780 871.65 833.5 c 128,-1,11
 828.9 887 828.9 887 747.9 887 c 0,0,1
409.5 162 m 1,12,-1
 379.8 0 l 1,13,-1
 56.7002 0 l 1,14,-1
 328.5 1556 l 1,15,-1
 652.5 1556 l 1,16,-1
 547.2 956 l 1,17,18
 621 1054 621 1054 702 1100.5 c 128,-1,19
 783 1147 783 1147 879.3 1147 c 0,20,21
 1049.4 1147 1049.4 1147 1148.4 1027 c 128,-1,22
 1247.4 907 1247.4 907 1247.4 700 c 0,23,24
 1247.4 571 1247.4 571 1212.75 449 c 128,-1,25
 1178.1 327 1178.1 327 1113.3 227 c 0,26,27
 1031.4 101 1031.4 101 928.35 36 c 128,-1,28
 825.3 -29 825.3 -29 707.4 -29 c 0,29,30
 603.9 -29 603.9 -29 531.45 17.5 c 128,-1,31
 459 64 459 64 409.5 162 c 1,12,-1
EndSplineSet
EndChar
StartChar: c
Encoding: 99 99 99
Width: 1092
Flags: W
AnchorPoint: "below" 561.908 0 basechar 0
AnchorPoint: "above" 738.9 1147 basechar 0
Fore
1071 1085 m 1,0,-1
 1019.7 793 l 1,1,2
 954.9 841 954.9 841 891.9 866 c 128,-1,3
 828.9 891 828.9 891 768.6 891 c 0,4,5
 611.1 891 611.1 891 511.2 773.5 c 128,-1,6
 411.3 656 411.3 656 411.3 473 c 0,7,8
 411.3 356 411.3 356 473.4 291.5 c 128,-1,9
 535.5 227 535.5 227 648.9 227 c 0,10,11
 724.5 227 724.5 227 797.4 252 c 128,-1,12
 870.3 277 870.3 277 936 326 c 1,13,-1
 886.5 33 l 1,14,15
 806.4 2 806.4 2 725.4 -13.5 c 128,-1,16
 644.4 -29 644.4 -29 562.5 -29 c 0,17,18
 324.9 -29 324.9 -29 196.65 89.5 c 128,-1,19
 68.4004 208 68.4004 208 68.4004 426 c 0,20,21
 68.4004 563 68.4004 563 115.65 692 c 128,-1,22
 162.9 821 162.9 821 251.1 924 c 0,23,24
 349.2 1037 349.2 1037 476.1 1092 c 128,-1,25
 603 1147 603 1147 768.6 1147 c 0,26,27
 845.1 1147 845.1 1147 920.7 1131.5 c 128,-1,28
 996.3 1116 996.3 1116 1071 1085 c 1,0,-1
EndSplineSet
EndChar
StartChar: d
Encoding: 100 100 100
Width: 1319
Flags: W
AnchorPoint: "above" 1134.95 1520 basechar 0
AnchorPoint: "below" 522.532 0 basechar 0
Fore
566.1 231 m 0,0,1
 690.3 231 690.3 231 768.15 358 c 128,-1,2
 846 485 846 485 846 690 c 0,3,4
 846 783 846 783 802.35 835 c 128,-1,5
 758.7 887 758.7 887 680.4 887 c 0,6,7
 558 887 558 887 478.8 761.5 c 128,-1,8
 399.6 636 399.6 636 399.6 440 c 0,9,10
 399.6 338 399.6 338 442.35 284.5 c 128,-1,11
 485.1 231 485.1 231 566.1 231 c 0,0,1
905.4 956 m 1,12,-1
 1009.8 1556 l 1,13,-1
 1334.7 1556 l 1,14,-1
 1062 0 l 1,15,-1
 737.1 0 l 1,16,-1
 766.8 162 l 1,17,18
 693 64 693 64 612 17.5 c 128,-1,19
 531 -29 531 -29 434.7 -29 c 0,20,21
 264.6 -29 264.6 -29 165.6 91 c 128,-1,22
 66.5996 211 66.5996 211 66.5996 418 c 0,23,24
 66.5996 547 66.5996 547 101.25 669 c 128,-1,25
 135.9 791 135.9 791 200.7 891 c 0,26,27
 282.6 1017 282.6 1017 385.65 1082 c 128,-1,28
 488.7 1147 488.7 1147 606.6 1147 c 0,29,30
 710.1 1147 710.1 1147 782.55 1100.5 c 128,-1,31
 855 1054 855 1054 905.4 956 c 1,12,-1
EndSplineSet
EndChar
StartChar: e
Encoding: 101 101 101
Width: 1250
Flags: W
AnchorPoint: "below" 558.308 0 basechar 0
AnchorPoint: "above" 747.9 1147 basechar 0
Fore
1159.2 518 m 1,0,-1
 1148.4 461 l 1,1,-1
 394.2 461 l 1,2,3
 394.2 455 394.2 455 393.3 443.5 c 128,-1,4
 392.4 432 392.4 432 392.4 426 c 0,5,6
 392.4 317 392.4 317 451.35 263 c 128,-1,7
 510.3 209 510.3 209 628.2 209 c 0,8,9
 729.9 209 729.9 209 842.85 243 c 128,-1,10
 955.8 277 955.8 277 1080 344 c 1,11,-1
 1030.5 66 l 1,12,13
 912.6 18 912.6 18 796.05 -5.5 c 128,-1,14
 679.5 -29 679.5 -29 558.9 -29 c 0,15,16
 323.1 -29 323.1 -29 194.85 92 c 128,-1,17
 66.5996 213 66.5996 213 66.5996 434 c 0,18,19
 66.5996 562 66.5996 562 107.55 682.5 c 128,-1,20
 148.5 803 148.5 803 226.8 903 c 0,21,22
 319.5 1023 319.5 1023 448.65 1085 c 128,-1,23
 577.8 1147 577.8 1147 735.3 1147 c 0,24,25
 939.6 1147 939.6 1147 1059.75 1026 c 128,-1,26
 1179.9 905 1179.9 905 1179.9 700 c 0,27,28
 1179.9 660 1179.9 660 1174.95 615.5 c 128,-1,29
 1170 571 1170 571 1159.2 518 c 1,0,-1
855 682 m 1,30,31
 857.7 695 857.7 695 859.05 708.5 c 128,-1,32
 860.4 722 860.4 722 860.4 735 c 0,33,34
 860.4 815 860.4 815 817.2 862 c 128,-1,35
 774 909 774 909 700.2 909 c 0,36,37
 605.7 909 605.7 909 539.55 851.5 c 128,-1,38
 473.4 794 473.4 794 438.3 682 c 1,39,-1
 855 682 l 1,30,31
EndSplineSet
EndChar
StartChar: f
Encoding: 102 102 102
Width: 801
Flags: W
AnchorPoint: "above" 484.407 1520 basechar 0
AnchorPoint: "below" 218.495 0 basechar 0
Fore
995.4 1556 m 1,0,-1
 953.1 1321 l 1,1,-1
 775.8 1321 l 2,2,3
 708.3 1321 708.3 1321 677.25 1293.5 c 128,-1,4
 646.2 1266 646.2 1266 634.5 1199 c 1,5,-1
 619.2 1120 l 1,6,-1
 891.9 1120 l 1,7,-1
 847.8 864 l 1,8,-1
 575.1 864 l 1,9,-1
 423.9 0 l 1,10,-1
 99.9004 0 l 1,11,-1
 251.1 864 l 1,12,-1
 91.7998 864 l 1,13,-1
 136.8 1120 l 1,14,-1
 295.2 1120 l 1,15,-1
 309.6 1198 l 1,16,17
 342.9 1384 342.9 1384 448.2 1470 c 128,-1,18
 553.5 1556 553.5 1556 747.9 1556 c 2,19,-1
 995.4 1556 l 1,0,-1
EndSplineSet
KernsSLIFO: 8217 141 0 0 8221 86 0 0 46 -112 0 0 45 -36 0 0 44 -112 0 0
EndChar
StartChar: g
Encoding: 103 103 103
Width: 1319
Flags: W
AnchorPoint: "below" 491.482 -430 basechar 0
AnchorPoint: "above" 742.5 1147 basechar 0
Fore
770.4 190 m 1,0,1
 693 92 693 92 612.9 46 c 128,-1,2
 532.8 0 532.8 0 438.3 0 c 0,3,4
 267.3 0 267.3 0 167.85 122.5 c 128,-1,5
 68.4004 245 68.4004 245 68.4004 457 c 0,6,7
 68.4004 570 68.4004 570 103.05 683.5 c 128,-1,8
 137.7 797 137.7 797 202.5 897 c 0,9,10
 281.7 1018 281.7 1018 384.3 1081.5 c 128,-1,11
 486.9 1145 486.9 1145 604.8 1145 c 0,12,13
 711 1145 711 1145 783.45 1099 c 128,-1,14
 855.9 1053 855.9 1053 905.4 954 c 1,15,-1
 932.4 1120 l 1,16,-1
 1257.3 1120 l 1,17,-1
 1087.2 147 l 1,18,19
 1035 -154 1035 -154 864 -298 c 128,-1,20
 693 -442 693 -442 388.8 -442 c 0,21,22
 295.2 -442 295.2 -442 208.35 -426 c 128,-1,23
 121.5 -410 121.5 -410 36.9004 -377 c 1,24,-1
 84.5996 -98 l 1,25,26
 161.1 -152 161.1 -152 237.6 -178.5 c 128,-1,27
 314.1 -205 314.1 -205 394.2 -205 c 0,28,29
 554.4 -205 554.4 -205 640.35 -129 c 128,-1,30
 726.3 -53 726.3 -53 756 113 c 1,31,-1
 770.4 190 l 1,0,1
680.4 887 m 0,32,33
 561.6 887 561.6 887 482.85 768 c 128,-1,34
 404.1 649 404.1 649 404.1 469 c 0,35,36
 404.1 367 404.1 367 446.4 313.5 c 128,-1,37
 488.7 260 488.7 260 569.7 260 c 0,38,39
 687.6 260 687.6 260 766.8 378.5 c 128,-1,40
 846 497 846 497 846 674 c 0,41,42
 846 778 846 778 803.7 832.5 c 128,-1,43
 761.4 887 761.4 887 680.4 887 c 0,32,33
EndSplineSet
EndChar
StartChar: h
Encoding: 104 104 104
Width: 1312
Flags: W
AnchorPoint: "below" 492.095 0 basechar 0
AnchorPoint: "above" 508.5 1520 basechar 0
Fore
1188.9 682 m 2,0,-1
 1069.2 0 l 1,1,-1
 746.1 0 l 1,2,-1
 847.8 584 l 1,3,4
 858.6 641 858.6 641 864.45 680.5 c 128,-1,5
 870.3 720 870.3 720 870.3 743 c 0,6,7
 870.3 807 870.3 807 838.35 842 c 128,-1,8
 806.4 877 806.4 877 747.9 877 c 0,9,10
 648 877 648 877 576.45 790.5 c 128,-1,11
 504.9 704 504.9 704 477 551 c 1,12,-1
 379.8 0 l 1,13,-1
 56.7002 0 l 1,14,-1
 328.5 1556 l 1,15,-1
 652.5 1556 l 1,16,-1
 547.2 956 l 1,17,18
 636.3 1053 636.3 1053 726.3 1100 c 128,-1,19
 816.3 1147 816.3 1147 914.4 1147 c 0,20,21
 1053.9 1147 1053.9 1147 1129.5 1066 c 128,-1,22
 1205.1 985 1205.1 985 1205.1 838 c 0,23,24
 1205.1 806 1205.1 806 1201.05 767 c 128,-1,25
 1197 728 1197 728 1188.9 682 c 2,0,-1
EndSplineSet
EndChar
StartChar: i
Encoding: 105 105 105
Width: 631
Flags: W
AnchorPoint: "above" 491.829 1583 basechar 0
AnchorPoint: "below" 214.895 0 basechar 0
Fore
252.9 1120 m 1,0,-1
 576.9 1120 l 1,1,-1
 379.8 0 l 1,2,-1
 56.7002 0 l 1,3,-1
 252.9 1120 l 1,0,-1
328.5 1556 m 1,4,-1
 652.5 1556 l 1,5,-1
 601.2 1264 l 1,6,-1
 276.3 1264 l 1,7,-1
 328.5 1556 l 1,4,-1
EndSplineSet
Substitution: 0 65534 's001' dotlessi
EndChar
StartChar: j
Encoding: 106 106 106
Width: 631
Flags: W
AnchorPoint: "below" 143.231 -430 basechar 0
AnchorPoint: "above" 518.525 1585 basechar 0
Fore
252.9 1120 m 1,0,-1
 576.9 1120 l 1,1,-1
 383.4 20 l 2,2,3
 342 -215 342 -215 229.05 -328.5 c 128,-1,4
 116.1 -442 116.1 -442 -75.5996 -442 c 2,5,-1
 -235.8 -442 l 1,6,-1
 -195.3 -207 l 1,7,-1
 -138.6 -207 l 2,8,9
 -47.7002 -207 -47.7002 -207 -5.84961 -161.5 c 128,-1,10
 36 -116 36 -116 59.4004 20 c 1,11,-1
 252.9 1120 l 1,0,-1
328.5 1556 m 1,12,-1
 652.5 1556 l 1,13,-1
 601.2 1264 l 1,14,-1
 276.3 1264 l 1,15,-1
 328.5 1556 l 1,12,-1
EndSplineSet
Substitution: 0 65534 's001' dotlessj
EndChar
StartChar: k
Encoding: 107 107 107
Width: 1225
Flags: W
AnchorPoint: "above" 450.207 1520 basechar 0
AnchorPoint: "below" 492.095 0 basechar 0
Fore
328.5 1556 m 1,0,-1
 652.5 1556 l 1,1,-1
 504.9 713 l 1,2,-1
 939.6 1120 l 1,3,-1
 1319.4 1120 l 1,4,-1
 733.5 602 l 1,5,-1
 1159.2 0 l 1,6,-1
 791.1 0 l 1,7,-1
 464.4 483 l 1,8,-1
 379.8 0 l 1,9,-1
 56.7002 0 l 1,10,-1
 328.5 1556 l 1,0,-1
EndSplineSet
KernsSLIFO: 283 -73 0 0 339 -73 0 0 248 -45 0 0 245 -73 0 0 246 -73 0 0 244 -73 0 0 242 -73 0 0 243 -73 0 0 235 -73 0 0 234 -73 0 0 232 -73 0 0 233 -73 0 0 111 -73 0 0 101 -73 0 0
EndChar
StartChar: l
Encoding: 108 108 108
Width: 631
Flags: W
AnchorPoint: "above" 450.207 1520 basechar 0
AnchorPoint: "below" 184.295 0 basechar 0
Fore
328.5 1556 m 1,0,-1
 652.5 1556 l 1,1,-1
 379.8 0 l 1,2,-1
 56.7002 0 l 1,3,-1
 328.5 1556 l 1,0,-1
EndSplineSet
AlternateSubs: 0 2 'aalt' l.alt
Substitution: 0 2 'salt' l.alt
EndChar
StartChar: m
Encoding: 109 109 109
Width: 1920
Flags: W
AnchorPoint: "above" 1064.23 1147 basechar 0
AnchorPoint: "below" 863.57 0 basechar 0
Fore
1155.6 934 m 1,0,1
 1230.3 1037 1230.3 1037 1325.25 1092 c 128,-1,2
 1420.2 1147 1420.2 1147 1522.8 1147 c 0,3,4
 1657.8 1147 1657.8 1147 1735.65 1064.5 c 128,-1,5
 1813.5 982 1813.5 982 1813.5 838 c 0,6,7
 1813.5 808 1813.5 808 1809.45 769.5 c 128,-1,8
 1805.4 731 1805.4 731 1797.3 682 c 1,9,-1
 1677.6 0 l 1,10,-1
 1352.7 0 l 1,11,-1
 1454.4 584 l 1,12,-1
 1457.1 599 l 2,13,14
 1480.5 723 1480.5 723 1480.5 758 c 0,15,16
 1480.5 813 1480.5 813 1452.15 845 c 128,-1,17
 1423.8 877 1423.8 877 1375.2 877 c 0,18,19
 1282.5 877 1282.5 877 1218.15 792.5 c 128,-1,20
 1153.8 708 1153.8 708 1125.9 551 c 2,21,-1
 1028.7 0 l 1,22,-1
 703.8 0 l 1,23,-1
 807.3 584 l 1,24,25
 820.8 659 820.8 659 826.2 697.5 c 128,-1,26
 831.6 736 831.6 736 831.6 758 c 0,27,28
 831.6 814 831.6 814 803.7 845.5 c 128,-1,29
 775.8 877 775.8 877 726.3 877 c 0,30,31
 637.2 877 637.2 877 570.15 789.5 c 128,-1,32
 503.1 702 503.1 702 477 551 c 1,33,-1
 379.8 0 l 1,34,-1
 56.7002 0 l 1,35,-1
 252.9 1120 l 1,36,-1
 576.9 1120 l 1,37,-1
 547.2 956 l 1,38,39
 622.8 1051 622.8 1051 708.3 1099 c 128,-1,40
 793.8 1147 793.8 1147 886.5 1147 c 0,41,42
 990.9 1147 990.9 1147 1065.6 1087.5 c 128,-1,43
 1140.3 1028 1140.3 1028 1155.6 934 c 1,0,1
EndSplineSet
EndChar
StartChar: n
Encoding: 110 110 110
Width: 1312
Flags: W
AnchorPoint: "below" 512.569 0 basechar 0
AnchorPoint: "above" 728.1 1147 basechar 0
Fore
1188.9 682 m 2,0,-1
 1069.2 0 l 1,1,-1
 746.1 0 l 1,2,-1
 847.8 584 l 1,3,4
 858.6 641 858.6 641 864.45 680.5 c 128,-1,5
 870.3 720 870.3 720 870.3 743 c 0,6,7
 870.3 807 870.3 807 838.35 842 c 128,-1,8
 806.4 877 806.4 877 747.9 877 c 0,9,10
 648 877 648 877 576.45 790.5 c 128,-1,11
 504.9 704 504.9 704 477 551 c 1,12,-1
 379.8 0 l 1,13,-1
 56.7002 0 l 1,14,-1
 252.9 1120 l 1,15,-1
 576.9 1120 l 1,16,-1
 547.2 956 l 1,17,18
 636.3 1053 636.3 1053 726.3 1100 c 128,-1,19
 816.3 1147 816.3 1147 914.4 1147 c 0,20,21
 1053.9 1147 1053.9 1147 1129.5 1066 c 128,-1,22
 1205.1 985 1205.1 985 1205.1 838 c 0,23,24
 1205.1 806 1205.1 806 1201.05 767 c 128,-1,25
 1197 728 1197 728 1188.9 682 c 2,0,-1
EndSplineSet
EndChar
StartChar: o
Encoding: 111 111 111
Width: 1266
Flags: W
AnchorPoint: "below" 536.708 0 basechar 0
AnchorPoint: "above" 717.3 1147 basechar 0
Fore
691.2 891 m 0,0,1
 566.1 891 566.1 891 485.1 765 c 128,-1,2
 404.1 639 404.1 639 404.1 444 c 0,3,4
 404.1 338 404.1 338 447.75 282.5 c 128,-1,5
 491.4 227 491.4 227 575.1 227 c 0,6,7
 700.2 227 700.2 227 781.2 353.5 c 128,-1,8
 862.2 480 862.2 480 862.2 676 c 0,9,10
 862.2 781 862.2 781 818.55 836 c 128,-1,11
 774.9 891 774.9 891 691.2 891 c 0,0,1
717.3 1147 m 0,12,13
 942.3 1147 942.3 1147 1071 1020 c 128,-1,14
 1199.7 893 1199.7 893 1199.7 674 c 0,15,16
 1199.7 547 1199.7 547 1159.2 427.5 c 128,-1,17
 1118.7 308 1118.7 308 1041.3 209 c 0,18,19
 949.5 91 949.5 91 824.4 31 c 128,-1,20
 699.3 -29 699.3 -29 545.4 -29 c 0,21,22
 323.1 -29 323.1 -29 194.85 98 c 128,-1,23
 66.5996 225 66.5996 225 66.5996 444 c 0,24,25
 66.5996 570 66.5996 570 108 690.5 c 128,-1,26
 149.4 811 149.4 811 226.8 911 c 0,27,28
 316.8 1027 316.8 1027 441.45 1087 c 128,-1,29
 566.1 1147 566.1 1147 717.3 1147 c 0,12,13
EndSplineSet
EndChar
StartChar: p
Encoding: 112 112 112
Width: 1319
Flags: W
AnchorPoint: "above" 793.692 1147 basechar 0
AnchorPoint: "below" 517.809 -430 basechar 0
Fore
409.5 162 m 1,0,-1
 306 -426 l 1,1,-1
 -18 -426 l 1,2,-1
 252.9 1120 l 1,3,-1
 576.9 1120 l 1,4,-1
 547.2 956 l 1,5,6
 621 1054 621 1054 702 1100.5 c 128,-1,7
 783 1147 783 1147 879.3 1147 c 0,8,9
 1049.4 1147 1049.4 1147 1148.4 1027 c 128,-1,10
 1247.4 907 1247.4 907 1247.4 700 c 0,11,12
 1247.4 571 1247.4 571 1212.75 449 c 128,-1,13
 1178.1 327 1178.1 327 1113.3 227 c 0,14,15
 1031.4 101 1031.4 101 928.35 36 c 128,-1,16
 825.3 -29 825.3 -29 707.4 -29 c 0,17,18
 603.9 -29 603.9 -29 531.45 17.5 c 128,-1,19
 459 64 459 64 409.5 162 c 1,0,-1
747.9 887 m 0,20,21
 623.7 887 623.7 887 544.95 759.5 c 128,-1,22
 466.2 632 466.2 632 466.2 428 c 0,23,24
 466.2 336 466.2 336 510.75 283.5 c 128,-1,25
 555.3 231 555.3 231 634.5 231 c 0,26,27
 756 231 756 231 835.2 356.5 c 128,-1,28
 914.4 482 914.4 482 914.4 678 c 0,29,30
 914.4 780 914.4 780 871.65 833.5 c 128,-1,31
 828.9 887 828.9 887 747.9 887 c 0,20,21
EndSplineSet
EndChar
StartChar: q
Encoding: 113 113 113
Width: 1319
Flags: W
AnchorPoint: "above" 793.692 1147 basechar 0
AnchorPoint: "below" 517.809 -430 basechar 0
Fore
905.4 956 m 1,0,-1
 932.4 1120 l 1,1,-1
 1257.3 1120 l 1,2,-1
 986.4 -426 l 1,3,-1
 661.5 -426 l 1,4,-1
 765 162 l 1,5,6
 693 64 693 64 612 17.5 c 128,-1,7
 531 -29 531 -29 434.7 -29 c 0,8,9
 264.6 -29 264.6 -29 165.6 91 c 128,-1,10
 66.5996 211 66.5996 211 66.5996 418 c 0,11,12
 66.5996 547 66.5996 547 101.25 669 c 128,-1,13
 135.9 791 135.9 791 200.7 891 c 0,14,15
 282.6 1017 282.6 1017 385.65 1082 c 128,-1,16
 488.7 1147 488.7 1147 606.6 1147 c 0,17,18
 710.1 1147 710.1 1147 782.55 1100.5 c 128,-1,19
 855 1054 855 1054 905.4 956 c 1,0,-1
566.1 231 m 0,20,21
 690.3 231 690.3 231 768.15 358 c 128,-1,22
 846 485 846 485 846 690 c 0,23,24
 846 783 846 783 802.35 835 c 128,-1,25
 758.7 887 758.7 887 680.4 887 c 0,26,27
 558 887 558 887 478.8 761.5 c 128,-1,28
 399.6 636 399.6 636 399.6 440 c 0,29,30
 399.6 338 399.6 338 442.35 284.5 c 128,-1,31
 485.1 231 485.1 231 566.1 231 c 0,20,21
EndSplineSet
EndChar
StartChar: r
Encoding: 114 114 114
Width: 909
Flags: W
AnchorPoint: "below" 214.67 0 basechar 0
AnchorPoint: "above" 668.7 1147 basechar 0
Fore
947.7 815 m 1,0,1
 914.4 836 914.4 836 873.9 847 c 128,-1,2
 833.4 858 833.4 858 786.6 858 c 0,3,4
 663.3 858 663.3 858 581.85 770 c 128,-1,5
 500.4 682 500.4 682 471.6 516 c 1,6,-1
 379.8 0 l 1,7,-1
 56.7002 0 l 1,8,-1
 252.9 1120 l 1,9,-1
 576.9 1120 l 1,10,-1
 541.8 928 l 1,11,12
 605.7 1034 605.7 1034 701.55 1090.5 c 128,-1,13
 797.4 1147 797.4 1147 914.4 1147 c 0,14,15
 931.5 1147 931.5 1147 953.1 1145 c 128,-1,16
 974.7 1143 974.7 1143 1004.4 1139 c 1,17,-1
 947.7 815 l 1,0,1
EndSplineSet
KernsSLIFO: 8217 86 0 0 8221 38 0 0 46 -292 0 0 44 -301 0 0
EndChar
StartChar: s
Encoding: 115 115 115
Width: 1097
Flags: W
AnchorPoint: "below" 444.008 0 basechar 0
AnchorPoint: "above" 648.9 1147 basechar 0
Fore
1032.3 1085 m 1,0,-1
 984.6 807 l 1,1,2
 890.1 857 890.1 857 796.5 883 c 128,-1,3
 702.9 909 702.9 909 619.2 909 c 0,4,5
 523.8 909 523.8 909 472.05 881.5 c 128,-1,6
 420.3 854 420.3 854 420.3 803 c 0,7,8
 420.3 773 420.3 773 449.1 755 c 128,-1,9
 477.9 737 477.9 737 562.5 717 c 1,10,-1
 621 705 l 1,11,12
 816.3 659 816.3 659 894.6 586.5 c 128,-1,13
 972.9 514 972.9 514 972.9 385 c 0,14,15
 972.9 190 972.9 190 835.2 80.5 c 128,-1,16
 697.5 -29 697.5 -29 450 -29 c 0,17,18
 346.5 -29 346.5 -29 238.5 -11 c 128,-1,19
 130.5 7 130.5 7 18 43 c 1,20,-1
 66.5996 324 l 1,21,22
 153.9 267 153.9 267 253.35 238 c 128,-1,23
 352.8 209 352.8 209 457.2 209 c 0,24,25
 558.9 209 558.9 209 610.2 236 c 128,-1,26
 661.5 263 661.5 263 661.5 315 c 0,27,28
 661.5 351 661.5 351 632.7 371 c 128,-1,29
 603.9 391 603.9 391 513.9 412 c 1,30,-1
 455.4 424 l 1,31,32
 282.6 464 282.6 464 208.8 542 c 128,-1,33
 135 620 135 620 135 758 c 0,34,35
 135 945 135 945 262.35 1046 c 128,-1,36
 389.7 1147 389.7 1147 626.4 1147 c 0,37,38
 729.9 1147 729.9 1147 830.25 1131.5 c 128,-1,39
 930.6 1116 930.6 1116 1032.3 1085 c 1,0,-1
EndSplineSet
EndChar
StartChar: t
Encoding: 116 116 116
Width: 881
Flags: W
AnchorPoint: "above" 494.729 1520 basechar 0
AnchorPoint: "below" 228.816 0 basechar 0
Fore
663.3 1438 m 1,0,-1
 608.4 1120 l 1,1,-1
 937.8 1120 l 1,2,-1
 891.9 864 l 1,3,-1
 562.5 864 l 1,4,-1
 479.7 390 l 1,5,6
 476.1 374 476.1 374 474.75 363 c 128,-1,7
 473.4 352 473.4 352 473.4 342 c 0,8,9
 473.4 296 473.4 296 500.85 276 c 128,-1,10
 528.3 256 528.3 256 593.1 256 c 2,11,-1
 759.6 256 l 1,12,-1
 713.7 0 l 1,13,-1
 442.8 0 l 2,14,15
 297 0 297 0 220.5 68 c 128,-1,16
 144 136 144 136 144 264 c 0,17,18
 144 292 144 292 146.7 324 c 128,-1,19
 149.4 356 149.4 356 154.8 389 c 1,20,-1
 237.6 864 l 1,21,-1
 79.2002 864 l 1,22,-1
 123.3 1120 l 1,23,-1
 283.5 1120 l 1,24,-1
 339.3 1438 l 1,25,-1
 663.3 1438 l 1,0,-1
EndSplineSet
EndChar
StartChar: u
Encoding: 117 117 117
Width: 1312
Flags: W
AnchorPoint: "below" 556.169 0 basechar 0
AnchorPoint: "above" 738.9 1147 basechar 0
Fore
125.1 436 m 2,0,-1
 243 1120 l 1,1,-1
 566.1 1120 l 1,2,-1
 464.4 537 l 1,3,4
 453.6 480 453.6 480 448.2 440 c 128,-1,5
 442.8 400 442.8 400 442.8 377 c 0,6,7
 442.8 314 442.8 314 474.3 279 c 128,-1,8
 505.8 244 505.8 244 564.3 244 c 0,9,10
 664.2 244 664.2 244 736.2 330 c 128,-1,11
 808.2 416 808.2 416 835.2 569 c 2,12,-1
 932.4 1120 l 1,13,-1
 1255.5 1120 l 1,14,-1
 1060.2 0 l 1,15,-1
 735.3 0 l 1,16,-1
 765 164 l 1,17,18
 682.2 67 682.2 67 591.3 19 c 128,-1,19
 500.4 -29 500.4 -29 399.6 -29 c 0,20,21
 261.9 -29 261.9 -29 186.3 52 c 128,-1,22
 110.7 133 110.7 133 110.7 281 c 0,23,24
 110.7 316 110.7 316 114.3 355 c 128,-1,25
 117.9 394 117.9 394 125.1 436 c 2,0,-1
EndSplineSet
EndChar
StartChar: v
Encoding: 118 118 118
Width: 1201
Flags: W
AnchorPoint: "above" 703.892 1147 basechar 0
AnchorPoint: "below" 503.232 0 basechar 0
Fore
116.1 1120 m 1,0,-1
 413.1 1120 l 1,1,-1
 543.6 338 l 1,2,-1
 923.4 1120 l 1,3,-1
 1250.1 1120 l 1,4,-1
 657.9 0 l 1,5,-1
 316.8 0 l 1,6,-1
 116.1 1120 l 1,0,-1
EndSplineSet
KernsSLIFO: 46 -167 0 0 44 -167 0 0
EndChar
StartChar: w
Encoding: 119 119 119
Width: 1702
Flags: W
AnchorPoint: "below" 753.432 0 basechar 0
AnchorPoint: "above" 961.2 1147 basechar 0
Fore
160.2 1120 m 1,0,-1
 457.2 1120 l 1,1,-1
 492.3 350 l 1,2,-1
 796.5 1120 l 1,3,-1
 1052.1 1120 l 1,4,-1
 1089 352 l 1,5,-1
 1391.4 1120 l 1,6,-1
 1708.2 1120 l 1,7,-1
 1247.4 0 l 1,8,-1
 905.4 0 l 1,9,-1
 872.1 770 l 1,10,-1
 564.3 0 l 1,11,-1
 230.4 0 l 1,12,-1
 160.2 1120 l 1,0,-1
EndSplineSet
KernsSLIFO: 46 -131 0 0 44 -131 0 0
EndChar
StartChar: x
Encoding: 120 120 120
Width: 1188
Flags: W
AnchorPoint: "above" 695.792 1147 basechar 0
AnchorPoint: "below" 495.132 0 basechar 0
Fore
407.7 573 m 1,0,-1
 140.4 1120 l 1,1,-1
 475.2 1120 l 1,2,-1
 624.6 788 l 1,3,-1
 886.5 1120 l 1,4,-1
 1236.6 1120 l 1,5,-1
 777.6 575 l 1,6,-1
 1058.4 0 l 1,7,-1
 722.7 0 l 1,8,-1
 564.3 354 l 1,9,-1
 274.5 0 l 1,10,-1
 -75.5996 0 l 1,11,-1
 407.7 573 l 1,0,-1
EndSplineSet
EndChar
StartChar: y
Encoding: 121 121 121
Width: 1201
Flags: W
AnchorPoint: "below" 460.369 -430 basechar 0
AnchorPoint: "above" 720.9 1147 basechar 0
Fore
121.5 1120 m 1,0,-1
 425.7 1120 l 1,1,-1
 564.3 344 l 1,2,-1
 921.6 1120 l 1,3,-1
 1266.3 1120 l 1,4,-1
 628.2 -106 l 1,5,6
 521.1 -313 521.1 -313 430.2 -377.5 c 128,-1,7
 339.3 -442 339.3 -442 195.3 -442 c 2,8,-1
 0 -442 l 1,9,-1
 33.2998 -207 l 1,10,-1
 135 -207 l 2,11,12
 214.2 -207 214.2 -207 257.85 -177.5 c 128,-1,13
 301.5 -148 301.5 -148 335.7 -74 c 1,14,-1
 365.4 -14 l 1,15,-1
 121.5 1120 l 1,0,-1
EndSplineSet
KernsSLIFO: 46 -188 0 0 44 -159 0 0
EndChar
StartChar: z
Encoding: 122 122 122
Width: 1072
Flags: W
AnchorPoint: "below" 438.433 0 basechar 0
AnchorPoint: "above" 608.4 1147 basechar 0
Fore
200.7 1120 m 1,0,-1
 1080 1120 l 1,1,-1
 1035.9 870 l 1,2,-1
 407.7 256 l 1,3,-1
 928.8 256 l 1,4,-1
 884.7 0 l 1,5,-1
 -16.2002 0 l 1,6,-1
 26.0996 250 l 1,7,-1
 656.1 864 l 1,8,-1
 156.6 864 l 1,9,-1
 200.7 1120 l 1,0,-1
EndSplineSet
EndChar
StartChar: braceleft
Encoding: 123 123 123
Width: 1312
Flags: W
Fore
942.3 -109 m 1,0,-1
 903.6 -334 l 1,1,-1
 707.4 -334 l 2,2,3
 546.3 -334 546.3 -334 464.85 -272.5 c 128,-1,4
 383.4 -211 383.4 -211 383.4 -88 c 0,5,6
 383.4 -66 383.4 -66 386.55 -36 c 128,-1,7
 389.7 -6 389.7 -6 396 34 c 1,8,-1
 429.3 227 l 1,9,10
 434.7 257 434.7 257 437.4 284.5 c 128,-1,11
 440.1 312 440.1 312 440.1 334 c 0,12,13
 440.1 422 440.1 422 399.15 458 c 128,-1,14
 358.2 494 358.2 494 252.9 494 c 2,15,-1
 195.3 494 l 1,16,-1
 235.8 717 l 1,17,-1
 291.6 717 l 2,18,19
 418.5 717 418.5 717 477.45 775 c 128,-1,20
 536.4 833 536.4 833 562.5 983 c 1,21,-1
 597.6 1188 l 2,22,23
 630.9 1381 630.9 1381 735.75 1468.5 c 128,-1,24
 840.6 1556 840.6 1556 1037.7 1556 c 2,25,-1
 1233 1556 l 1,26,-1
 1194.3 1331 l 1,27,-1
 1131.3 1331 l 2,28,29
 1006.2 1331 1006.2 1331 959.85 1287.5 c 128,-1,30
 913.5 1244 913.5 1244 888.3 1102 c 2,31,-1
 858.6 936 l 1,32,33
 831.6 780 831.6 780 778.5 708.5 c 128,-1,34
 725.4 637 725.4 637 622.8 612 c 1,35,36
 694.8 591 694.8 591 728.1 546 c 128,-1,37
 761.4 501 761.4 501 761.4 424 c 0,38,39
 761.4 394 761.4 394 757.8 360.5 c 128,-1,40
 754.2 327 754.2 327 746.1 287 c 1,41,-1
 717.3 121 l 2,42,43
 709.2 75 709.2 75 706.5 51 c 128,-1,44
 703.8 27 703.8 27 703.8 10 c 0,45,46
 703.8 -57 703.8 -57 740.25 -83 c 128,-1,47
 776.7 -109 776.7 -109 881.1 -109 c 2,48,-1
 942.3 -109 l 1,0,-1
EndSplineSet
EndChar
StartChar: bar
Encoding: 124 124 124
Width: 673
Flags: W
Fore
438.3 1565 m 1,0,-1
 438.3 -483 l 1,1,-1
 234 -483 l 1,2,-1
 234 1565 l 1,3,-1
 438.3 1565 l 1,0,-1
EndSplineSet
EndChar
StartChar: braceright
Encoding: 125 125 125
Width: 1312
Flags: W
Fore
119.7 -109 m 1,0,-1
 182.7 -109 l 2,1,2
 308.7 -109 308.7 -109 355.05 -64.5 c 128,-1,3
 401.4 -20 401.4 -20 425.7 121 c 1,4,-1
 455.4 287 l 1,5,6
 482.4 442 482.4 442 535.95 514 c 128,-1,7
 589.5 586 589.5 586 693 612 c 1,8,9
 621 631 621 631 586.8 676 c 128,-1,10
 552.6 721 552.6 721 552.6 799 c 0,11,12
 552.6 823 552.6 823 556.65 857 c 128,-1,13
 560.7 891 560.7 891 567.9 936 c 1,14,-1
 597.6 1102 l 1,15,16
 604.8 1144 604.8 1144 607.5 1169 c 128,-1,17
 610.2 1194 610.2 1194 610.2 1212 c 0,18,19
 610.2 1280 610.2 1280 573.75 1305.5 c 128,-1,20
 537.3 1331 537.3 1331 432.9 1331 c 2,21,-1
 372.6 1331 l 1,22,-1
 411.3 1556 l 1,23,-1
 608.4 1556 l 2,24,25
 769.5 1556 769.5 1556 850.05 1495 c 128,-1,26
 930.6 1434 930.6 1434 930.6 1311 c 0,27,28
 930.6 1283 930.6 1283 927.45 1252.5 c 128,-1,29
 924.3 1222 924.3 1222 918 1188 c 1,30,-1
 882.9 983 l 1,31,32
 877.5 953 877.5 953 874.8 926 c 128,-1,33
 872.1 899 872.1 899 872.1 877 c 0,34,35
 872.1 789 872.1 789 913.95 753 c 128,-1,36
 955.8 717 955.8 717 1060.2 717 c 2,37,-1
 1116.9 717 l 1,38,-1
 1076.4 494 l 1,39,-1
 1021.5 494 l 2,40,41
 894.6 494 894.6 494 835.65 435.5 c 128,-1,42
 776.7 377 776.7 377 750.6 227 c 2,43,-1
 717.3 35 l 2,44,45
 684 -158 684 -158 578.7 -246 c 128,-1,46
 473.4 -334 473.4 -334 276.3 -334 c 2,47,-1
 81 -334 l 1,48,-1
 119.7 -109 l 1,0,-1
EndSplineSet
EndChar
StartChar: asciitilde
Encoding: 126 126 126
Width: 1544
Flags: W
Fore
1349.1 850 m 1,0,-1
 1349.1 606 l 1,1,2
 1253.7 526 1253.7 526 1173.15 491.5 c 128,-1,3
 1092.6 457 1092.6 457 1006.2 457 c 0,4,5
 909.9 457 909.9 457 781.2 515 c 0,6,7
 768.6 521 768.6 521 761.4 524 c 0,8,9
 755.1 527 755.1 527 741.6 533 c 0,10,11
 602.1 594 602.1 594 517.5 594 c 0,12,13
 438.3 594 438.3 594 360.9 555.5 c 128,-1,14
 283.5 517 283.5 517 195.3 434 c 1,15,-1
 195.3 678 l 1,16,17
 291.6 758 291.6 758 371.7 792.5 c 128,-1,18
 451.8 827 451.8 827 538.2 827 c 0,19,20
 634.5 827 634.5 827 763.2 769 c 0,21,22
 776.7 763 776.7 763 783 760 c 0,23,24
 789.3 757 789.3 757 802.8 751 c 0,25,26
 942.3 690 942.3 690 1026.9 690 c 0,27,28
 1104.3 690 1104.3 690 1180.35 727.5 c 128,-1,29
 1256.4 765 1256.4 765 1349.1 850 c 1,0,-1
EndSplineSet
EndChar
StartChar: exclamdown
Encoding: 161 161 161
Width: 840
Flags: W
Fore
650.7 1137 m 1,0,-1
 325.8 1137 l 1,1,-1
 388.8 1493 l 1,2,-1
 713.7 1493 l 1,3,-1
 650.7 1137 l 1,0,-1
451.8 0 m 1,4,-1
 126.9 0 l 1,5,-1
 228.6 573 l 1,6,-1
 346.5 991 l 1,7,-1
 578.7 991 l 1,8,-1
 552.6 573 l 1,9,-1
 451.8 0 l 1,4,-1
EndSplineSet
EndChar
StartChar: cent
Encoding: 162 162 162
Width: 1282
Flags: W
Fore
666.9 856 m 1,0,1
 575.1 810 575.1 810 519.75 705.5 c 128,-1,2
 464.4 601 464.4 601 464.4 473 c 0,3,4
 464.4 399 464.4 399 490.05 344.5 c 128,-1,5
 515.7 290 515.7 290 562.5 264 c 1,6,-1
 666.9 856 l 1,0,1
1124.1 1085 m 1,7,-1
 1072.8 793 l 1,8,9
 1005.3 843 1005.3 843 944.55 867 c 128,-1,10
 883.8 891 883.8 891 826.2 891 c 2,11,-1
 818.1 891 l 1,12,-1
 702.9 227 l 1,13,14
 783 229 783 229 854.55 253.5 c 128,-1,15
 926.1 278 926.1 278 990 326 c 1,16,-1
 939.6 33 l 1,17,18
 874.8 8 874.8 8 804.6 -7 c 128,-1,19
 734.4 -22 734.4 -22 657.9 -27 c 1,20,-1
 608.4 -313 l 1,21,-1
 462.6 -313 l 1,22,-1
 512.1 -23 l 1,23,24
 331.2 -1 331.2 -1 227.25 115.5 c 128,-1,25
 123.3 232 123.3 232 123.3 414 c 0,26,27
 123.3 705 123.3 705 287.1 906 c 128,-1,28
 450.9 1107 450.9 1107 717.3 1141 c 1,29,-1
 766.8 1432 l 1,30,-1
 912.6 1432 l 1,31,-1
 863.1 1145 l 1,32,33
 924.3 1143 924.3 1143 990 1128 c 128,-1,34
 1055.7 1113 1055.7 1113 1124.1 1085 c 1,7,-1
EndSplineSet
EndChar
StartChar: sterling
Encoding: 163 163 163
Width: 1282
Flags: W
Fore
1273.5 1466 m 1,0,-1
 1224 1180 l 1,1,2
 1170.9 1217 1170.9 1217 1107.9 1237 c 128,-1,3
 1044.9 1257 1044.9 1257 981 1257 c 0,4,5
 868.5 1257 868.5 1257 805.5 1195.5 c 128,-1,6
 742.5 1134 742.5 1134 719.1 1001 c 2,7,-1
 689.4 831 l 1,8,-1
 1025.1 831 l 1,9,-1
 984.6 592 l 1,10,-1
 647.1 592 l 1,11,-1
 589.5 266 l 1,12,-1
 1076.4 266 l 1,13,-1
 1030.5 0 l 1,14,-1
 12.5996 0 l 1,15,-1
 59.4004 266 l 1,16,-1
 261.9 266 l 1,17,-1
 318.6 592 l 1,18,-1
 145.8 592 l 1,19,-1
 186.3 831 l 1,20,-1
 360.9 831 l 1,21,-1
 390.6 1001 l 2,22,23
 437.4 1271 437.4 1271 573.3 1395.5 c 128,-1,24
 709.2 1520 709.2 1520 956.7 1520 c 0,25,26
 1039.5 1520 1039.5 1520 1118.7 1506.5 c 128,-1,27
 1197.9 1493 1197.9 1493 1273.5 1466 c 1,0,-1
EndSplineSet
EndChar
StartChar: currency
Encoding: 164 164 164
Width: 1172
Flags: W
Fore
390.6 268 m 1,0,-1
 204.3 61 l 1,1,-1
 66.5996 215 l 1,2,-1
 252.9 422 l 1,3,4
 227.7 471 227.7 471 215.1 524.5 c 128,-1,5
 202.5 578 202.5 578 202.5 641 c 0,6,7
 202.5 704 202.5 704 216 758 c 128,-1,8
 229.5 812 229.5 812 256.5 858 c 1,9,-1
 68.4004 1063 l 1,10,-1
 206.1 1217 l 1,11,-1
 392.4 1010 l 1,12,13
 435.6 1040 435.6 1040 484.2 1054.5 c 128,-1,14
 532.8 1069 532.8 1069 587.7 1069 c 0,15,16
 636.3 1069 636.3 1069 684.9 1055.5 c 128,-1,17
 733.5 1042 733.5 1042 784.8 1014 c 1,18,-1
 971.1 1221 l 1,19,-1
 1107.9 1067 l 1,20,-1
 921.6 860 l 1,21,22
 947.7 805 947.7 805 960.3 750 c 128,-1,23
 972.9 695 972.9 695 972.9 641 c 0,24,25
 972.9 578 972.9 578 959.85 525.5 c 128,-1,26
 946.8 473 946.8 473 919.8 426 c 1,27,-1
 1106.1 219 l 1,28,-1
 967.5 66 l 1,29,-1
 781.2 272 l 1,30,31
 739.8 242 739.8 242 692.1 227.5 c 128,-1,32
 644.4 213 644.4 213 587.7 213 c 0,33,34
 535.5 213 535.5 213 486.9 226.5 c 128,-1,35
 438.3 240 438.3 240 390.6 268 c 1,0,-1
587.7 422 m 0,36,37
 669.6 422 669.6 422 727.2 485.5 c 128,-1,38
 784.8 549 784.8 549 784.8 641 c 0,39,40
 784.8 733 784.8 733 727.65 796.5 c 128,-1,41
 670.5 860 670.5 860 587.7 860 c 0,42,43
 505.8 860 505.8 860 448.2 796.5 c 128,-1,44
 390.6 733 390.6 733 390.6 641 c 0,45,46
 390.6 548 390.6 548 447.3 485 c 128,-1,47
 504 422 504 422 587.7 422 c 0,36,37
EndSplineSet
EndChar
StartChar: yen
Encoding: 165 165 165
Width: 1282
Flags: W
Fore
1164.6 416 m 1,0,-1
 756 416 l 1,1,-1
 682.2 0 l 1,2,-1
 339.3 0 l 1,3,-1
 413.1 416 l 1,4,-1
 10.7998 416 l 1,5,-1
 45.9004 610 l 1,6,-1
 446.4 610 l 1,7,-1
 459 686 l 1,8,-1
 432.9 762 l 1,9,-1
 72 762 l 1,10,-1
 105.3 954 l 1,11,-1
 367.2 954 l 1,12,-1
 173.7 1493 l 1,13,-1
 504.9 1493 l 1,14,-1
 680.4 993 l 1,15,-1
 1026.9 1493 l 1,16,-1
 1391.4 1493 l 1,17,-1
 995.4 954 l 1,18,-1
 1259.1 954 l 1,19,-1
 1225.8 762 l 1,20,-1
 858.6 762 l 1,21,-1
 805.5 686 l 1,22,-1
 789.3 610 l 1,23,-1
 1197.9 610 l 1,24,-1
 1164.6 416 l 1,0,-1
EndSplineSet
EndChar
StartChar: brokenbar
Encoding: 166 166 166
Width: 673
Flags: W
Fore
438.3 1432 m 1,0,-1
 438.3 674 l 1,1,-1
 234 674 l 1,2,-1
 234 1432 l 1,3,-1
 438.3 1432 l 1,0,-1
438.3 408 m 1,4,-1
 438.3 -350 l 1,5,-1
 234 -350 l 1,6,-1
 234 408 l 1,7,-1
 438.3 408 l 1,4,-1
EndSplineSet
EndChar
StartChar: section
Encoding: 167 167 167
Width: 921
Flags: W
Fore
910.8 1462 m 1,0,-1
 872.1 1235 l 1,1,2
 791.1 1275 791.1 1275 726.3 1294 c 128,-1,3
 661.5 1313 661.5 1313 606.6 1313 c 0,4,5
 534.6 1313 534.6 1313 492.3 1282.5 c 128,-1,6
 450 1252 450 1252 450 1202 c 0,7,8
 450 1172 450 1172 472.05 1147 c 128,-1,9
 494.1 1122 494.1 1122 545.4 1096 c 2,10,-1
 626.4 1055 l 2,11,12
 783.9 977 783.9 977 841.5 901.5 c 128,-1,13
 899.1 826 899.1 826 899.1 715 c 0,14,15
 899.1 592 899.1 592 829.8 497 c 128,-1,16
 760.5 402 760.5 402 628.2 344 c 1,17,18
 679.5 308 679.5 308 703.8 264 c 128,-1,19
 728.1 220 728.1 220 728.1 166 c 0,20,21
 728.1 4 728.1 4 601.2 -95.5 c 128,-1,22
 474.3 -195 474.3 -195 261.9 -195 c 0,23,24
 186.3 -195 186.3 -195 105.3 -180.5 c 128,-1,25
 24.2998 -166 24.2998 -166 -61.2002 -137 c 1,26,-1
 -18 100 l 1,27,28
 73.7998 57 73.7998 57 145.8 35.5 c 128,-1,29
 217.8 14 217.8 14 272.7 14 c 0,30,31
 342 14 342 14 385.65 45.5 c 128,-1,32
 429.3 77 429.3 77 429.3 125 c 0,33,34
 429.3 156 429.3 156 407.7 179.5 c 128,-1,35
 386.1 203 386.1 203 315 240 c 2,36,-1
 193.5 301 l 2,37,38
 86.4004 355 86.4004 355 36 428.5 c 128,-1,39
 -14.4004 502 -14.4004 502 -14.4004 604 c 0,40,41
 -14.4004 727 -14.4004 727 51.75 822.5 c 128,-1,42
 117.9 918 117.9 918 244.8 977 c 1,43,44
 198 1018 198 1018 175.5 1064 c 128,-1,45
 153 1110 153 1110 153 1163 c 0,46,47
 153 1319 153 1319 277.65 1419.5 c 128,-1,48
 402.3 1520 402.3 1520 601.2 1520 c 0,49,50
 675.9 1520 675.9 1520 753.3 1505.5 c 128,-1,51
 830.7 1491 830.7 1491 910.8 1462 c 1,0,-1
399.6 854 m 1,52,53
 327.6 833 327.6 833 289.35 788.5 c 128,-1,54
 251.1 744 251.1 744 251.1 682 c 0,55,56
 251.1 621 251.1 621 294.75 578 c 128,-1,57
 338.4 535 338.4 535 485.1 471 c 1,58,59
 557.1 498 557.1 498 596.7 543.5 c 128,-1,60
 636.3 589 636.3 589 636.3 645 c 0,61,62
 636.3 706 636.3 706 585 752.5 c 128,-1,63
 533.7 799 533.7 799 399.6 854 c 1,52,53
EndSplineSet
EndChar
StartChar: dieresis
Encoding: 168 168 168
Width: 921
Flags: W
Fore
322.2 1585 m 1,0,-1
 536.4 1585 l 1,1,-1
 492.3 1339 l 1,2,-1
 279.9 1339 l 1,3,-1
 322.2 1585 l 1,0,-1
680.4 1585 m 1,4,-1
 891.9 1585 l 1,5,-1
 847.8 1339 l 1,6,-1
 636.3 1339 l 1,7,-1
 680.4 1585 l 1,4,-1
EndSplineSet
Ligature: 0 1 'liga' space uni0308
EndChar
StartChar: copyright
Encoding: 169 169 169
Width: 1843
Flags: W
Fore
1190.7 1126 m 1,0,-1
 1190.7 911 l 1,1,2
 1139.4 948 1139.4 948 1089.45 965.5 c 128,-1,3
 1039.5 983 1039.5 983 988.2 983 c 0,4,5
 886.5 983 886.5 983 829.35 919 c 128,-1,6
 772.2 855 772.2 855 772.2 741 c 0,7,8
 772.2 626 772.2 626 828.9 563 c 128,-1,9
 885.6 500 885.6 500 988.2 500 c 0,10,11
 1045.8 500 1045.8 500 1097.55 518 c 128,-1,12
 1149.3 536 1149.3 536 1190.7 571 c 1,13,-1
 1190.7 358 l 1,14,15
 1132.2 336 1132.2 336 1073.25 324.5 c 128,-1,16
 1014.3 313 1014.3 313 958.5 313 c 0,17,18
 768.6 313 768.6 313 654.3 430 c 128,-1,19
 540 547 540 547 540 741 c 0,20,21
 540 936 540 936 654.3 1052.5 c 128,-1,22
 768.6 1169 768.6 1169 958.5 1169 c 0,23,24
 1020.6 1169 1020.6 1169 1078.2 1158.5 c 128,-1,25
 1135.8 1148 1135.8 1148 1190.7 1126 c 1,0,-1
921.6 1331 m 0,26,27
 812.7 1331 812.7 1331 719.1 1287.5 c 128,-1,28
 625.5 1244 625.5 1244 547.2 1157 c 0,29,30
 468.9 1070 468.9 1070 429.75 966.5 c 128,-1,31
 390.6 863 390.6 863 390.6 741 c 0,32,33
 390.6 620 390.6 620 429.75 516.5 c 128,-1,34
 468.9 413 468.9 413 547.2 326 c 0,35,36
 624.6 240 624.6 240 718.65 197 c 128,-1,37
 812.7 154 812.7 154 921.6 154 c 0,38,39
 1032.3 154 1032.3 154 1125 196.5 c 128,-1,40
 1217.7 239 1217.7 239 1296 326 c 0,41,42
 1374.3 413 1374.3 413 1413.45 516.5 c 128,-1,43
 1452.6 620 1452.6 620 1452.6 741 c 0,44,45
 1452.6 863 1452.6 863 1413.45 966.5 c 128,-1,46
 1374.3 1070 1374.3 1070 1296 1157 c 0,47,48
 1216.8 1245 1216.8 1245 1123.65 1288 c 128,-1,49
 1030.5 1331 1030.5 1331 921.6 1331 c 0,26,27
921.6 1485 m 0,50,51
 1058.4 1485 1058.4 1485 1176.75 1430 c 128,-1,52
 1295.1 1375 1295.1 1375 1393.2 1266 c 0,53,54
 1491.3 1157 1491.3 1157 1539.9 1026 c 128,-1,55
 1588.5 895 1588.5 895 1588.5 741 c 0,56,57
 1588.5 589 1588.5 589 1539.9 458.5 c 128,-1,58
 1491.3 328 1491.3 328 1393.2 219 c 0,59,60
 1295.1 110 1295.1 110 1176.75 55 c 128,-1,61
 1058.4 0 1058.4 0 921.6 0 c 0,62,63
 784.8 0 784.8 0 666.45 55 c 128,-1,64
 548.1 110 548.1 110 450 219 c 0,65,66
 351.9 328 351.9 328 303.3 458.5 c 128,-1,67
 254.7 589 254.7 589 254.7 741 c 0,68,69
 254.7 895 254.7 895 303.3 1026 c 128,-1,70
 351.9 1157 351.9 1157 450 1266 c 0,71,72
 548.1 1375 548.1 1375 666.45 1430 c 128,-1,73
 784.8 1485 784.8 1485 921.6 1485 c 0,50,51
EndSplineSet
EndChar
StartChar: ordfeminine
Encoding: 170 170 170
Width: 1039
Flags: W
Fore
114.3 573 m 1,0,-1
 847.8 573 l 1,1,-1
 812.7 373 l 1,2,-1
 79.2002 373 l 1,3,-1
 114.3 573 l 1,0,-1
622.8 1081 m 2,4,5
 489.6 1081 489.6 1081 439.2 1052.5 c 128,-1,6
 388.8 1024 388.8 1024 388.8 954 c 0,7,8
 388.8 910 388.8 910 416.7 884 c 128,-1,9
 444.6 858 444.6 858 492.3 858 c 0,10,11
 567.9 858 567.9 858 626.4 914.5 c 128,-1,12
 684.9 971 684.9 971 700.2 1059 c 1,13,-1
 703.8 1081 l 1,14,-1
 622.8 1081 l 2,4,5
962.1 1165 m 1,15,-1
 884.7 717 l 1,16,-1
 661.5 717 l 1,17,-1
 684 842 l 1,18,19
 624.6 766 624.6 766 556.65 731 c 128,-1,20
 488.7 696 488.7 696 397.8 696 c 0,21,22
 285.3 696 285.3 696 222.75 751.5 c 128,-1,23
 160.2 807 160.2 807 160.2 907 c 0,24,25
 160.2 1062 160.2 1062 271.35 1140.5 c 128,-1,26
 382.5 1219 382.5 1219 601.2 1219 c 2,27,-1
 728.1 1219 l 1,28,-1
 731.7 1239 l 2,29,30
 732.6 1243 732.6 1243 733.05 1248 c 128,-1,31
 733.5 1253 733.5 1253 733.5 1264 c 0,32,33
 733.5 1308 733.5 1308 698.85 1331 c 128,-1,34
 664.2 1354 664.2 1354 595.8 1354 c 0,35,36
 516.6 1354 516.6 1354 438.3 1336.5 c 128,-1,37
 360 1319 360 1319 283.5 1284 c 1,38,-1
 315 1464 l 1,39,40
 403.2 1492 403.2 1492 481.95 1506 c 128,-1,41
 560.7 1520 560.7 1520 628.2 1520 c 0,42,43
 795.6 1520 795.6 1520 883.35 1456 c 128,-1,44
 971.1 1392 971.1 1392 971.1 1270 c 0,45,46
 971.1 1239 971.1 1239 968.85 1213.5 c 128,-1,47
 966.6 1188 966.6 1188 962.1 1165 c 1,15,-1
EndSplineSet
EndChar
StartChar: guillemotleft
Encoding: 171 171 171
Width: 1197
Flags: W
Fore
1095.3 1063 m 1,0,-1
 1050.3 811 l 1,1,-1
 738.9 582 l 1,2,-1
 971.1 360 l 1,3,-1
 932.4 137 l 1,4,-1
 552.6 506 l 1,5,-1
 585.9 692 l 1,6,-1
 1095.3 1063 l 1,0,-1
654.3 1063 m 1,7,-1
 610.2 811 l 1,8,-1
 298.8 582 l 1,9,-1
 531 360 l 1,10,-1
 492.3 137 l 1,11,-1
 112.5 506 l 1,12,-1
 145.8 692 l 1,13,-1
 654.3 1063 l 1,7,-1
EndSplineSet
EndChar
StartChar: logicalnot
Encoding: 172 172 172
Width: 1544
Flags: W
Fore
195.3 909 m 1,0,-1
 1349.1 909 l 1,1,-1
 1349.1 287 l 1,2,-1
 1137.6 287 l 1,3,-1
 1137.6 672 l 1,4,-1
 195.3 672 l 1,5,-1
 195.3 909 l 1,0,-1
EndSplineSet
EndChar
StartChar: sfthyphen
Encoding: 173 173 173
Width: 765
Flags: W
Fore
98.0996 735 m 1,0,-1
 663.3 735 l 1,1,-1
 612 444 l 1,2,-1
 45.9004 444 l 1,3,-1
 98.0996 735 l 1,0,-1
EndSplineSet
EndChar
StartChar: registered
Encoding: 174 174 174
Width: 1843
Flags: W
Fore
921.6 1331 m 0,0,1
 812.7 1331 812.7 1331 719.1 1287.5 c 128,-1,2
 625.5 1244 625.5 1244 547.2 1157 c 0,3,4
 468.9 1070 468.9 1070 429.75 966.5 c 128,-1,5
 390.6 863 390.6 863 390.6 741 c 0,6,7
 390.6 620 390.6 620 429.75 516.5 c 128,-1,8
 468.9 413 468.9 413 547.2 326 c 0,9,10
 624.6 240 624.6 240 718.65 197 c 128,-1,11
 812.7 154 812.7 154 921.6 154 c 0,12,13
 1032.3 154 1032.3 154 1125 196.5 c 128,-1,14
 1217.7 239 1217.7 239 1296 326 c 0,15,16
 1374.3 413 1374.3 413 1413.45 516.5 c 128,-1,17
 1452.6 620 1452.6 620 1452.6 741 c 0,18,19
 1452.6 863 1452.6 863 1413.45 966.5 c 128,-1,20
 1374.3 1070 1374.3 1070 1296 1157 c 0,21,22
 1216.8 1245 1216.8 1245 1123.65 1288 c 128,-1,23
 1030.5 1331 1030.5 1331 921.6 1331 c 0,0,1
870.3 1036 m 2,24,-1
 838.8 1036 l 1,25,-1
 838.8 829 l 1,26,-1
 870.3 829 l 2,27,28
 940.5 829 940.5 829 976.05 855.5 c 128,-1,29
 1011.6 882 1011.6 882 1011.6 934 c 0,30,31
 1011.6 986 1011.6 986 976.95 1011 c 128,-1,32
 942.3 1036 942.3 1036 870.3 1036 c 2,24,-1
903.6 1174 m 2,33,34
 1062 1174 1062 1174 1140.3 1114.5 c 128,-1,35
 1218.6 1055 1218.6 1055 1218.6 934 c 0,36,37
 1218.6 848 1218.6 848 1171.35 792 c 128,-1,38
 1124.1 736 1124.1 736 1037.7 719 c 1,39,40
 1074.6 697 1074.6 697 1106.55 657 c 128,-1,41
 1138.5 617 1138.5 617 1164.6 559 c 2,42,-1
 1264.5 338 l 1,43,-1
 1058.4 338 l 1,44,-1
 962.1 551 l 1,45,46
 927.9 629 927.9 629 901.8 661.5 c 128,-1,47
 875.7 694 875.7 694 849.6 694 c 2,48,-1
 838.8 694 l 1,49,-1
 838.8 338 l 1,50,-1
 647.1 338 l 1,51,-1
 647.1 1174 l 1,52,-1
 903.6 1174 l 2,33,34
921.6 1485 m 0,53,54
 1058.4 1485 1058.4 1485 1176.75 1430 c 128,-1,55
 1295.1 1375 1295.1 1375 1393.2 1266 c 0,56,57
 1491.3 1157 1491.3 1157 1539.9 1026 c 128,-1,58
 1588.5 895 1588.5 895 1588.5 741 c 0,59,60
 1588.5 589 1588.5 589 1539.9 458.5 c 128,-1,61
 1491.3 328 1491.3 328 1393.2 219 c 0,62,63
 1295.1 110 1295.1 110 1176.75 55 c 128,-1,64
 1058.4 0 1058.4 0 921.6 0 c 0,65,66
 784.8 0 784.8 0 666.45 55 c 128,-1,67
 548.1 110 548.1 110 450 219 c 0,68,69
 351.9 328 351.9 328 303.3 458.5 c 128,-1,70
 254.7 589 254.7 589 254.7 741 c 0,71,72
 254.7 895 254.7 895 303.3 1026 c 128,-1,73
 351.9 1157 351.9 1157 450 1266 c 0,74,75
 548.1 1375 548.1 1375 666.45 1430 c 128,-1,76
 784.8 1485 784.8 1485 921.6 1485 c 0,53,54
EndSplineSet
EndChar
StartChar: macron
Encoding: 175 175 175
Width: 921
Flags: W
Fore
318.6 1556 m 1,0,-1
 886.5 1556 l 1,1,-1
 853.2 1368 l 1,2,-1
 285.3 1368 l 1,3,-1
 318.6 1556 l 1,0,-1
EndSplineSet
LCarets: 0 65535 '    ' 1 0 
Ligature: 0 1 'liga' space uni0304
EndChar
StartChar: degree
Encoding: 176 176 176
Width: 921
Flags: W
Fore
460.8 1372 m 0,0,1
 396 1372 396 1372 351 1322 c 128,-1,2
 306 1272 306 1272 306 1200 c 0,3,4
 306 1128 306 1128 350.55 1079 c 128,-1,5
 395.1 1030 395.1 1030 460.8 1030 c 0,6,7
 525.6 1030 525.6 1030 570.6 1079.5 c 128,-1,8
 615.6 1129 615.6 1129 615.6 1200 c 0,9,10
 615.6 1272 615.6 1272 570.15 1322 c 128,-1,11
 524.7 1372 524.7 1372 460.8 1372 c 0,0,1
460.8 1534 m 0,12,13
 520.2 1534 520.2 1534 575.1 1508.5 c 128,-1,14
 630 1483 630 1483 673.2 1436 c 1,15,16
 715.5 1388 715.5 1388 737.55 1328 c 128,-1,17
 759.6 1268 759.6 1268 759.6 1200 c 0,18,19
 759.6 1133 759.6 1133 737.55 1072.5 c 128,-1,20
 715.5 1012 715.5 1012 675 967 c 0,21,22
 631.8 919 631.8 919 576 893.5 c 128,-1,23
 520.2 868 520.2 868 459 868 c 0,24,25
 332.1 868 332.1 868 246.15 963.5 c 128,-1,26
 160.2 1059 160.2 1059 160.2 1200 c 0,27,28
 160.2 1341 160.2 1341 247.05 1437.5 c 128,-1,29
 333.9 1534 333.9 1534 460.8 1534 c 0,12,13
EndSplineSet
EndChar
StartChar: plusminus
Encoding: 177 177 177
Width: 1544
Flags: W
Fore
879.3 1284 m 1,0,-1
 879.3 930 l 1,1,-1
 1349.1 930 l 1,2,-1
 1349.1 694 l 1,3,-1
 879.3 694 l 1,4,-1
 879.3 340 l 1,5,-1
 665.1 340 l 1,6,-1
 665.1 694 l 1,7,-1
 195.3 694 l 1,8,-1
 195.3 930 l 1,9,-1
 665.1 930 l 1,10,-1
 665.1 1284 l 1,11,-1
 879.3 1284 l 1,0,-1
195.3 238 m 1,12,-1
 1349.1 238 l 1,13,-1
 1349.1 0 l 1,14,-1
 195.3 0 l 1,15,-1
 195.3 238 l 1,12,-1
EndSplineSet
EndChar
StartChar: twosuperior
Encoding: 178 178 178
Width: 807
Flags: W
Fore
381.6 836 m 1,0,-1
 720.9 836 l 1,1,-1
 691.2 668 l 1,2,-1
 82.7998 668 l 1,3,-1
 110.7 821 l 1,4,-1
 440.1 1087 l 2,5,6
 512.1 1145 512.1 1145 547.2 1194.5 c 128,-1,7
 582.3 1244 582.3 1244 582.3 1286 c 0,8,9
 582.3 1326 582.3 1326 553.05 1349 c 128,-1,10
 523.8 1372 523.8 1372 471.6 1372 c 0,11,12
 410.4 1372 410.4 1372 344.25 1349 c 128,-1,13
 278.1 1326 278.1 1326 214.2 1282 c 1,14,-1
 246.6 1468 l 1,15,16
 321.3 1494 321.3 1494 388.35 1507 c 128,-1,17
 455.4 1520 455.4 1520 517.5 1520 c 0,18,19
 651.6 1520 651.6 1520 723.15 1465.5 c 128,-1,20
 794.7 1411 794.7 1411 794.7 1311 c 0,21,22
 794.7 1232 794.7 1232 746.1 1157.5 c 128,-1,23
 697.5 1083 697.5 1083 589.5 999 c 2,24,-1
 381.6 836 l 1,0,-1
EndSplineSet
EndChar
StartChar: threesuperior
Encoding: 179 179 179
Width: 807
Flags: W
Fore
599.4 1120 m 1,0,1
 666.9 1107 666.9 1107 702 1060.5 c 128,-1,2
 737.1 1014 737.1 1014 737.1 938 c 0,3,4
 737.1 801 737.1 801 631.8 727 c 128,-1,5
 526.5 653 526.5 653 332.1 653 c 0,6,7
 260.1 653 260.1 653 194.85 665 c 128,-1,8
 129.6 677 129.6 677 73.7998 700 c 1,9,-1
 103.5 872 l 1,10,11
 155.7 836 155.7 836 209.25 817.5 c 128,-1,12
 262.8 799 262.8 799 316.8 799 c 0,13,14
 414.9 799 414.9 799 470.25 837 c 128,-1,15
 525.6 875 525.6 875 525.6 942 c 0,16,17
 525.6 996 525.6 996 481.05 1021.5 c 128,-1,18
 436.5 1047 436.5 1047 342.9 1047 c 2,19,-1
 274.5 1047 l 1,20,-1
 298.8 1184 l 1,21,-1
 376.2 1184 l 2,22,23
 471.6 1184 471.6 1184 522.45 1213 c 128,-1,24
 573.3 1242 573.3 1242 573.3 1296 c 0,25,26
 573.3 1334 573.3 1334 539.1 1353 c 128,-1,27
 504.9 1372 504.9 1372 438.3 1372 c 0,28,29
 389.7 1372 389.7 1372 332.55 1359 c 128,-1,30
 275.4 1346 275.4 1346 206.1 1319 c 1,31,-1
 234 1485 l 1,32,33
 298.8 1502 298.8 1502 365.4 1511 c 128,-1,34
 432 1520 432 1520 497.7 1520 c 0,35,36
 637.2 1520 637.2 1520 711.9 1470 c 128,-1,37
 786.6 1420 786.6 1420 786.6 1327 c 0,38,39
 786.6 1246 786.6 1246 735.75 1190 c 128,-1,40
 684.9 1134 684.9 1134 599.4 1120 c 1,0,1
EndSplineSet
EndChar
StartChar: acute
Encoding: 180 180 180
Width: 921
Flags: W
Fore
729.9 1638 m 1,0,-1
 993.6 1638 l 1,1,-1
 599.4 1262 l 1,2,-1
 418.5 1262 l 1,3,-1
 729.9 1638 l 1,0,-1
EndSplineSet
LCarets: 0 65535 '    ' 1 0 
Ligature: 0 1 'liga' space acutecomb
EndChar
StartChar: mu
Encoding: 181 181 181
Width: 1356
Flags: W
Fore
-49.5 -428 m 1,0,-1
 221.4 1120 l 1,1,-1
 545.4 1120 l 1,2,-1
 431.1 469 l 2,3,4
 427.5 448 427.5 448 425.7 428 c 128,-1,5
 423.9 408 423.9 408 423.9 391 c 0,6,7
 423.9 318 423.9 318 462.6 279 c 128,-1,8
 501.3 240 501.3 240 575.1 240 c 0,9,10
 666.9 240 666.9 240 720.9 296 c 128,-1,11
 774.9 352 774.9 352 796.5 469 c 1,12,-1
 910.8 1120 l 1,13,-1
 1234.8 1120 l 1,14,-1
 1104.3 371 l 2,15,16
 1100.7 350 1100.7 350 1098.9 332.5 c 128,-1,17
 1097.1 315 1097.1 315 1097.1 301 c 0,18,19
 1097.1 272 1097.1 272 1109.25 258 c 128,-1,20
 1121.4 244 1121.4 244 1146.6 244 c 0,21,22
 1161.9 244 1161.9 244 1179.45 249.5 c 128,-1,23
 1197 255 1197 255 1215 266 c 1,24,-1
 1170 16 l 1,25,26
 1118.7 -7 1118.7 -7 1074.6 -18 c 128,-1,27
 1030.5 -29 1030.5 -29 990 -29 c 0,28,29
 910.8 -29 910.8 -29 866.25 9 c 128,-1,30
 821.7 47 821.7 47 803.7 129 c 1,31,32
 747.9 50 747.9 50 679.95 10.5 c 128,-1,33
 612 -29 612 -29 532.8 -29 c 0,34,35
 466.2 -29 466.2 -29 424.35 -5.5 c 128,-1,36
 382.5 18 382.5 18 362.7 66 c 1,37,-1
 276.3 -428 l 1,38,-1
 -49.5 -428 l 1,0,-1
EndSplineSet
EndChar
StartChar: paragraph
Encoding: 182 182 182
Width: 1172
Flags: W
Fore
643.5 1493 m 2,0,-1
 1111.5 1493 l 1,1,-1
 816.3 -197 l 1,2,-1
 645.3 -197 l 1,3,-1
 914.4 1346 l 1,4,-1
 744.3 1346 l 1,5,-1
 473.4 -197 l 1,6,-1
 304.2 -197 l 1,7,-1
 451.8 649 l 1,8,9
 300.6 669 300.6 669 218.7 761 c 128,-1,10
 136.8 853 136.8 853 136.8 1001 c 0,11,12
 136.8 1216 136.8 1216 277.65 1354.5 c 128,-1,13
 418.5 1493 418.5 1493 643.5 1493 c 2,0,-1
EndSplineSet
EndChar
StartChar: periodcentered
Encoding: 183 183 183
Width: 700
Flags: W
Fore
223.2 905 m 1,0,-1
 547.2 905 l 1,1,-1
 478.8 518 l 1,2,-1
 154.8 518 l 1,3,-1
 223.2 905 l 1,0,-1
EndSplineSet
EndChar
StartChar: cedilla
Encoding: 184 184 184
Width: 921
Flags: W
Fore
413.1 0 m 1,0,1
 446.4 -52 446.4 -52 461.7 -96 c 128,-1,2
 477 -140 477 -140 477 -182 c 0,3,4
 477 -286 477 -286 409.05 -343.5 c 128,-1,5
 341.1 -401 341.1 -401 217.8 -401 c 0,6,7
 173.7 -401 173.7 -401 130.05 -394.5 c 128,-1,8
 86.4004 -388 86.4004 -388 40.5 -375 c 1,9,-1
 66.5996 -219 l 1,10,11
 102.6 -236 102.6 -236 139.05 -245 c 128,-1,12
 175.5 -254 175.5 -254 209.7 -254 c 0,13,14
 269.1 -254 269.1 -254 303.3 -225.5 c 128,-1,15
 337.5 -197 337.5 -197 337.5 -150 c 0,16,17
 337.5 -124 337.5 -124 325.35 -89.5 c 128,-1,18
 313.2 -55 313.2 -55 285.3 0 c 1,19,-1
 413.1 0 l 1,0,1
EndSplineSet
Ligature: 0 1 'liga' space uni0327
EndChar
StartChar: onesuperior
Encoding: 185 185 185
Width: 807
Flags: W
Fore
151.2 825 m 1,0,-1
 335.7 825 l 1,1,-1
 427.5 1346 l 1,2,-1
 217.8 1294 l 1,3,-1
 244.8 1454 l 1,4,-1
 464.4 1503 l 1,5,-1
 661.5 1503 l 1,6,-1
 541.8 825 l 1,7,-1
 728.1 825 l 1,8,-1
 700.2 668 l 1,9,-1
 123.3 668 l 1,10,-1
 151.2 825 l 1,0,-1
EndSplineSet
EndChar
StartChar: ordmasculine
Encoding: 186 186 186
Width: 1039
Flags: W
Fore
647.1 1520 m 0,0,1
 811.8 1520 811.8 1520 908.1 1429.5 c 128,-1,2
 1004.4 1339 1004.4 1339 1004.4 1186 c 0,3,4
 1004.4 967 1004.4 967 871.65 832.5 c 128,-1,5
 738.9 698 738.9 698 520.2 698 c 0,6,7
 356.4 698 356.4 698 258.3 789.5 c 128,-1,8
 160.2 881 160.2 881 160.2 1032 c 0,9,10
 160.2 1249 160.2 1249 294.3 1384.5 c 128,-1,11
 428.4 1520 428.4 1520 647.1 1520 c 0,0,1
119.7 573 m 1,12,-1
 860.4 573 l 1,13,-1
 826.2 373 l 1,14,-1
 84.5996 373 l 1,15,-1
 119.7 573 l 1,12,-1
624.6 1350 m 0,16,17
 535.5 1350 535.5 1350 477 1257.5 c 128,-1,18
 418.5 1165 418.5 1165 418.5 1024 c 0,19,20
 418.5 948 418.5 948 450 908 c 128,-1,21
 481.5 868 481.5 868 541.8 868 c 0,22,23
 630.9 868 630.9 868 689.4 960 c 128,-1,24
 747.9 1052 747.9 1052 747.9 1194 c 0,25,26
 747.9 1269 747.9 1269 715.95 1309.5 c 128,-1,27
 684 1350 684 1350 624.6 1350 c 0,16,17
EndSplineSet
EndChar
StartChar: guillemotright
Encoding: 187 187 187
Width: 1197
Flags: W
Fore
105.3 135 m 1,0,-1
 149.4 389 l 1,1,-1
 459 618 l 1,2,-1
 228.6 840 l 1,3,-1
 267.3 1063 l 1,4,-1
 645.3 692 l 1,5,-1
 613.8 506 l 1,6,-1
 105.3 135 l 1,0,-1
545.4 135 m 1,7,-1
 589.5 389 l 1,8,-1
 899.1 618 l 1,9,-1
 666.9 840 l 1,10,-1
 707.4 1063 l 1,11,-1
 1085.4 692 l 1,12,-1
 1053.9 506 l 1,13,-1
 545.4 135 l 1,7,-1
EndSplineSet
EndChar
StartChar: questiondown
Encoding: 191 191 191
Width: 1069
Flags: W
Fore
486.9 989 m 1,0,-1
 810.9 989 l 1,1,-1
 801.9 938 l 1,2,3
 788.4 858 788.4 858 749.7 796.5 c 128,-1,4
 711 735 711 735 593.1 633 c 1,5,-1
 525.6 573 l 1,6,7
 453.6 512 453.6 512 422.1 460 c 128,-1,8
 390.6 408 390.6 408 390.6 354 c 0,9,10
 390.6 297 390.6 297 426.6 266.5 c 128,-1,11
 462.6 236 462.6 236 531 236 c 0,12,13
 603 236 603 236 694.35 270 c 128,-1,14
 785.7 304 785.7 304 888.3 369 c 1,15,-1
 833.4 55 l 1,16,17
 719.1 13 719.1 13 624.15 -7 c 128,-1,18
 529.2 -27 529.2 -27 442.8 -27 c 0,19,20
 267.3 -27 267.3 -27 167.85 58.5 c 128,-1,21
 68.4004 144 68.4004 144 68.4004 293 c 0,22,23
 68.4004 412 68.4004 412 116.1 506 c 128,-1,24
 163.8 600 163.8 600 278.1 702 c 2,25,-1
 346.5 762 l 2,26,27
 421.2 827 421.2 827 446.4 864.5 c 128,-1,28
 471.6 902 471.6 902 478.8 944 c 1,29,-1
 486.9 989 l 1,0,-1
837 1137 m 1,30,-1
 512.1 1137 l 1,31,-1
 575.1 1493 l 1,32,-1
 899.1 1493 l 1,33,-1
 837 1137 l 1,30,-1
EndSplineSet
EndChar
StartChar: Aring
Encoding: 197 197 197
Width: 1426
Flags: W
Fore
715.5 1616 m 0,0,1
 715.5 1562 715.5 1562 750.15 1523.5 c 128,-1,2
 784.8 1485 784.8 1485 833.4 1485 c 0,3,4
 882 1485 882 1485 916.65 1523.5 c 128,-1,5
 951.3 1562 951.3 1562 951.3 1616 c 0,6,7
 951.3 1670 951.3 1670 916.2 1708.5 c 128,-1,8
 881.1 1747 881.1 1747 833.4 1747 c 0,9,10
 784.8 1747 784.8 1747 750.15 1708.5 c 128,-1,11
 715.5 1670 715.5 1670 715.5 1616 c 0,0,1
1039.5 1456 m 1,12,-1
 1273.5 0 l 1,13,-1
 944.1 0 l 1,14,-1
 905.4 272 l 1,15,-1
 369 272 l 1,16,-1
 235.8 0 l 1,17,-1
 -119.7 0 l 1,18,-1
 622.8 1458 l 1,19,20
 599.4 1495 599.4 1495 588.15 1533.5 c 128,-1,21
 576.9 1572 576.9 1572 576.9 1616 c 0,22,23
 576.9 1733 576.9 1733 652.05 1817 c 128,-1,24
 727.2 1901 727.2 1901 833.4 1901 c 0,25,26
 938.7 1901 938.7 1901 1013.85 1817 c 128,-1,27
 1089 1733 1089 1733 1089 1616 c 0,28,29
 1089 1568 1089 1568 1077.3 1529.5 c 128,-1,30
 1065.6 1491 1065.6 1491 1039.5 1456 c 1,12,-1
499.5 543 m 1,31,-1
 860.4 543 l 1,32,-1
 779.4 1118 l 1,33,-1
 499.5 543 l 1,31,-1
EndSplineSet
Ligature: 0 0 'liga' A uni030A
EndChar
StartChar: AE
Encoding: 198 198 198
Width: 1999
Flags: W
Fore
886.5 1237 m 1,0,-1
 549 627 l 1,1,-1
 888.3 627 l 1,2,-1
 995.4 1237 l 1,3,-1
 886.5 1237 l 1,0,-1
696.6 1493 m 1,4,-1
 1975.5 1493 l 1,5,-1
 1924.2 1202 l 1,6,-1
 1336.5 1202 l 1,7,-1
 1288.8 924 l 1,8,-1
 1841.4 924 l 1,9,-1
 1790.1 633 l 1,10,-1
 1236.6 633 l 1,11,-1
 1178.1 291 l 1,12,-1
 1783.8 291 l 1,13,-1
 1734.3 0 l 1,14,-1
 779.4 0 l 1,15,-1
 840.6 350 l 1,16,-1
 397.8 350 l 1,17,-1
 202.5 0 l 1,18,-1
 -144 0 l 1,19,-1
 696.6 1493 l 1,4,-1
EndSplineSet
KernsSLIFO: 45 -36 0 0
EndChar
StartChar: Eth
Encoding: 208 208 208
Width: 1557
Flags: W
Fore
626.4 1202 m 1,0,-1
 575.1 903 l 1,1,-1
 796.5 903 l 1,2,-1
 750.6 643 l 1,3,-1
 529.2 643 l 1,4,-1
 466.2 291 l 1,5,-1
 589.5 291 l 2,6,7
 833.4 291 833.4 291 975.15 442.5 c 128,-1,8
 1116.9 594 1116.9 594 1116.9 850 c 0,9,10
 1116.9 1024 1116.9 1024 1023.75 1113 c 128,-1,11
 930.6 1202 930.6 1202 747.9 1202 c 2,12,-1
 626.4 1202 l 1,0,-1
330.3 1493 m 1,13,-1
 694.8 1493 l 2,14,15
 955.8 1493 955.8 1493 1086.3 1458.5 c 128,-1,16
 1216.8 1424 1216.8 1424 1303.2 1343 c 0,17,18
 1390.5 1262 1390.5 1262 1435.5 1146 c 128,-1,19
 1480.5 1030 1480.5 1030 1480.5 885 c 0,20,21
 1480.5 684 1480.5 684 1404.45 504 c 128,-1,22
 1328.4 324 1328.4 324 1192.5 201 c 0,23,24
 1073.7 92 1073.7 92 916.65 46 c 128,-1,25
 759.6 0 759.6 0 432.9 0 c 2,26,-1
 68.4004 0 l 1,27,-1
 180.9 643 l 1,28,-1
 -3.59961 643 l 1,29,-1
 42.2998 903 l 1,30,-1
 226.8 903 l 1,31,-1
 330.3 1493 l 1,13,-1
EndSplineSet
KernsSLIFO: 7922 -159 0 0 562 -159 0 0 374 -159 0 0 221 -159 0 0 8222 -36 0 0 8218 -36 0 0 376 -159 0 0 89 -159 0 0 45 38 0 0
EndChar
StartChar: multiply
Encoding: 215 215 215
Width: 1544
Flags: W
Fore
1314 1075 m 1,0,-1
 923.4 641 l 1,1,-1
 1314 209 l 1,2,-1
 1162.8 41 l 1,3,-1
 772.2 473 l 1,4,-1
 381.6 41 l 1,5,-1
 230.4 209 l 1,6,-1
 621 641 l 1,7,-1
 230.4 1075 l 1,8,-1
 381.6 1243 l 1,9,-1
 772.2 809 l 1,10,-1
 1162.8 1243 l 1,11,-1
 1314 1075 l 1,0,-1
EndSplineSet
EndChar
StartChar: Oslash
Encoding: 216 216 216
Width: 1566
Flags: W
AnchorPoint: "above" 951.3 1520 basechar 0
Fore
1076.4 1128 m 1,0,1
 1040.4 1185 1040.4 1185 985.5 1213 c 128,-1,2
 930.6 1241 930.6 1241 856.8 1241 c 0,3,4
 675 1241 675 1241 553.95 1062.5 c 128,-1,5
 432.9 884 432.9 884 432.9 612 c 0,6,7
 432.9 590 432.9 590 436.5 538 c 0,8,9
 436.5 532 l 1,10,-1
 1076.4 1128 l 1,0,1
142.2 258 m 1,11,12
 104.4 332 104.4 332 85.5 410.5 c 128,-1,13
 66.5996 489 66.5996 489 66.5996 569 c 0,14,15
 66.5996 752 66.5996 752 116.1 914 c 128,-1,16
 165.6 1076 165.6 1076 261.9 1206 c 0,17,18
 378 1365 378 1365 536.85 1442.5 c 128,-1,19
 695.7 1520 695.7 1520 905.4 1520 c 0,20,21
 1038.6 1520 1038.6 1520 1143.45 1481 c 128,-1,22
 1248.3 1442 1248.3 1442 1327.5 1364 c 1,23,-1
 1559.7 1579 l 1,24,-1
 1651.5 1456 l 1,25,-1
 1419.3 1243 l 1,26,27
 1459.8 1167 1459.8 1167 1480.05 1086 c 128,-1,28
 1500.3 1005 1500.3 1005 1500.3 920 c 0,29,30
 1500.3 738 1500.3 738 1450.35 576 c 128,-1,31
 1400.4 414 1400.4 414 1305 285 c 0,32,33
 1188 127 1188 127 1027.8 49 c 128,-1,34
 867.6 -29 867.6 -29 659.7 -29 c 0,35,36
 527.4 -29 527.4 -29 421.2 12 c 128,-1,37
 315 53 315 53 232.2 135 c 1,38,-1
 5.40039 -78 l 1,39,-1
 -86.4004 45 l 1,40,-1
 142.2 258 l 1,11,12
485.1 371 m 1,41,42
 520.2 312 520.2 312 575.1 281 c 128,-1,43
 630 250 630 250 700.2 250 c 0,44,45
 803.7 250 803.7 250 884.25 298.5 c 128,-1,46
 964.8 347 964.8 347 1021.5 442 c 0,47,48
 1075.5 534 1075.5 534 1105.65 648.5 c 128,-1,49
 1135.8 763 1135.8 763 1135.8 879 c 0,50,51
 1135.8 904 1135.8 904 1129.5 957 c 0,52,53
 1128.6 965 1128.6 965 1127.7 969 c 1,54,-1
 485.1 371 l 1,41,42
EndSplineSet
KernsSLIFO: 221 -36 0 0 193 -36 0 0 194 -36 0 0 376 -36 0 0 195 -36 0 0 192 -36 0 0 196 -36 0 0 89 -36 0 0 88 -73 0 0 86 -36 0 0 65 -36 0 0 46 -45 0 0 45 38 0 0 44 -45 0 0
EndChar
StartChar: Thorn
Encoding: 222 222 222
Width: 1368
Flags: W
Fore
300.6 1493 m 1,0,-1
 647.1 1493 l 1,1,-1
 608.4 1270 l 1,2,-1
 829.8 1270 l 2,3,4
 1041.3 1270 1041.3 1270 1161 1162.5 c 128,-1,5
 1280.7 1055 1280.7 1055 1280.7 864 c 0,6,7
 1280.7 747 1280.7 747 1241.55 642.5 c 128,-1,8
 1202.4 538 1202.4 538 1127.7 459 c 0,9,10
 1047.6 373 1047.6 373 935.55 334 c 128,-1,11
 823.5 295 823.5 295 657.9 295 c 2,12,-1
 436.5 295 l 1,13,-1
 385.2 0 l 1,14,-1
 38.7002 0 l 1,15,-1
 300.6 1493 l 1,0,-1
558.9 993 m 1,16,-1
 486.9 573 l 1,17,-1
 670.5 573 l 2,18,19
 792.9 573 792.9 573 858.15 638 c 128,-1,20
 923.4 703 923.4 703 923.4 825 c 0,21,22
 923.4 907 923.4 907 877.95 950 c 128,-1,23
 832.5 993 832.5 993 744.3 993 c 2,24,-1
 558.9 993 l 1,16,-1
EndSplineSet
EndChar
StartChar: germandbls
Encoding: 223 223 223
Width: 1325
Flags: W
Fore
251.1 1114 m 1,0,1
 288.9 1338 288.9 1338 427.95 1447 c 128,-1,2
 567 1556 567 1556 812.7 1556 c 0,3,4
 1016.1 1556 1016.1 1556 1121.85 1468 c 128,-1,5
 1227.6 1380 1227.6 1380 1227.6 1210 c 0,6,7
 1227.6 1190 1227.6 1190 1225.35 1166 c 128,-1,8
 1223.1 1142 1223.1 1142 1218.6 1115 c 1,9,-1
 1205.1 1042 l 1,10,11
 1069.2 1037 1069.2 1037 989.1 990.5 c 128,-1,12
 909 944 909 944 909 872 c 0,13,14
 909 817 909 817 1000.8 745 c 0,15,16
 1008.9 739 1008.9 739 1014.3 735 c 2,17,-1
 1069.2 692 l 2,18,19
 1144.8 633 1144.8 633 1179.9 563.5 c 128,-1,20
 1215 494 1215 494 1215 403 c 0,21,22
 1215 210 1215 210 1089.9 90.5 c 128,-1,23
 964.8 -29 964.8 -29 759.6 -29 c 0,24,25
 689.4 -29 689.4 -29 621.45 -16.5 c 128,-1,26
 553.5 -4 553.5 -4 486.9 20 c 1,27,-1
 531 264 l 1,28,29
 581.4 237 581.4 237 631.35 223 c 128,-1,30
 681.3 209 681.3 209 728.1 209 c 0,31,32
 801.9 209 801.9 209 846.9 247 c 128,-1,33
 891.9 285 891.9 285 891.9 346 c 0,34,35
 891.9 386 891.9 386 871.2 418.5 c 128,-1,36
 850.5 451 850.5 451 781.2 506 c 2,37,-1
 726.3 549 l 2,38,39
 666 596 666 596 639 646.5 c 128,-1,40
 612 697 612 697 612 760 c 0,41,42
 612 898 612 898 694.35 997 c 128,-1,43
 776.7 1096 776.7 1096 932.4 1145 c 1,44,45
 933.3 1151 933.3 1151 933.75 1159 c 128,-1,46
 934.2 1167 934.2 1167 934.2 1182 c 0,47,48
 934.2 1249 934.2 1249 897.3 1284 c 128,-1,49
 860.4 1319 860.4 1319 789.3 1319 c 0,50,51
 697.5 1319 697.5 1319 644.85 1265.5 c 128,-1,52
 592.2 1212 592.2 1212 573.3 1100 c 1,53,-1
 379.8 0 l 1,54,-1
 56.7002 0 l 1,55,-1
 251.1 1114 l 1,0,1
EndSplineSet
EndChar
StartChar: ae
Encoding: 230 230 230
Width: 1931
Flags: W
AnchorPoint: "above" 1059.57 1147 basechar 0
AnchorPoint: "below" 858.908 0 basechar 0
Fore
606.6 504 m 2,0,1
 486 504 486 504 424.35 462.5 c 128,-1,2
 362.7 421 362.7 421 362.7 340 c 0,3,4
 362.7 279 362.7 279 399.15 244 c 128,-1,5
 435.6 209 435.6 209 499.5 209 c 0,6,7
 598.5 209 598.5 209 665.1 275.5 c 128,-1,8
 731.7 342 731.7 342 754.2 463 c 1,9,-1
 761.4 504 l 1,10,-1
 606.6 504 l 2,0,1
261.9 1090 m 1,11,12
 367.2 1118 367.2 1118 467.55 1132.5 c 128,-1,13
 567.9 1147 567.9 1147 661.5 1147 c 0,14,15
 795.6 1147 795.6 1147 883.8 1110.5 c 128,-1,16
 972 1074 972 1074 1023.3 997 c 1,17,18
 1108.8 1074 1108.8 1074 1204.65 1110.5 c 128,-1,19
 1300.5 1147 1300.5 1147 1417.5 1147 c 0,20,21
 1618.2 1147 1618.2 1147 1737.9 1025 c 128,-1,22
 1857.6 903 1857.6 903 1857.6 702 c 0,23,24
 1857.6 657 1857.6 657 1853.1 611 c 128,-1,25
 1848.6 565 1848.6 565 1839.6 518 c 1,26,-1
 1827 461 l 1,27,-1
 1074.6 461 l 1,28,29
 1074.6 455 1074.6 455 1073.7 443.5 c 128,-1,30
 1072.8 432 1072.8 432 1072.8 426 c 0,31,32
 1072.8 317 1072.8 317 1131.75 263 c 128,-1,33
 1190.7 209 1190.7 209 1308.6 209 c 0,34,35
 1409.4 209 1409.4 209 1521.45 242.5 c 128,-1,36
 1633.5 276 1633.5 276 1758.6 344 c 1,37,-1
 1710.9 66 l 1,38,39
 1593 18 1593 18 1475.55 -5.5 c 128,-1,40
 1358.1 -29 1358.1 -29 1236.6 -29 c 0,41,42
 1080.9 -29 1080.9 -29 974.7 22.5 c 128,-1,43
 868.5 74 868.5 74 809.1 178 c 1,44,45
 703.8 73 703.8 73 592.65 22 c 128,-1,46
 481.5 -29 481.5 -29 357.3 -29 c 0,47,48
 204.3 -29 204.3 -29 117.9 52 c 128,-1,49
 31.5 133 31.5 133 31.5 274 c 0,50,51
 31.5 490 31.5 490 180.45 603.5 c 128,-1,52
 329.4 717 329.4 717 613.8 717 c 2,53,-1
 798.3 717 l 1,54,-1
 803.7 746 l 1,55,56
 806.4 759 806.4 759 806.85 765 c 128,-1,57
 807.3 771 807.3 771 807.3 776 c 0,58,59
 807.3 842 807.3 842 751.5 875.5 c 128,-1,60
 695.7 909 695.7 909 587.7 909 c 0,61,62
 485.1 909 485.1 909 391.95 886 c 128,-1,63
 298.8 863 298.8 863 214.2 817 c 1,64,-1
 261.9 1090 l 1,11,12
1535.4 682 m 1,65,66
 1538.1 695 1538.1 695 1539.45 708.5 c 128,-1,67
 1540.8 722 1540.8 722 1540.8 735 c 0,68,69
 1540.8 815 1540.8 815 1497.15 862 c 128,-1,70
 1453.5 909 1453.5 909 1380.6 909 c 0,71,72
 1286.1 909 1286.1 909 1219.05 851 c 128,-1,73
 1152 793 1152 793 1118.7 682 c 1,74,-1
 1535.4 682 l 1,65,66
EndSplineSet
EndChar
StartChar: eth
Encoding: 240 240 240
Width: 1266
Flags: W
AnchorPoint: "below" 500.932 0 basechar 0
AnchorPoint: "above" 766.844 1520 basechar 0
Fore
862.2 743 m 1,0,1
 815.4 770 815.4 770 769.5 783.5 c 128,-1,2
 723.6 797 723.6 797 676.8 797 c 0,3,4
 550.8 797 550.8 797 477.45 703 c 128,-1,5
 404.1 609 404.1 609 404.1 451 c 0,6,7
 404.1 342 404.1 342 449.1 284.5 c 128,-1,8
 494.1 227 494.1 227 578.7 227 c 0,9,10
 704.7 227 704.7 227 785.7 353.5 c 128,-1,11
 866.7 480 866.7 480 866.7 678 c 0,12,13
 866.7 691 866.7 691 863.1 731 c 0,14,15
 863.1 738 863.1 738 862.2 743 c 1,0,1
1083.6 1100 m 2,16,17
 1141.2 1008 1141.2 1008 1170.45 902 c 128,-1,18
 1199.7 796 1199.7 796 1199.7 680 c 0,19,20
 1199.7 550 1199.7 550 1158.75 428.5 c 128,-1,21
 1117.8 307 1117.8 307 1039.5 207 c 0,22,23
 948.6 91 948.6 91 823.05 31 c 128,-1,24
 697.5 -29 697.5 -29 543.6 -29 c 0,25,26
 326.7 -29 326.7 -29 196.65 96 c 128,-1,27
 66.5996 221 66.5996 221 66.5996 426 c 0,28,29
 66.5996 706 66.5996 706 230.4 880.5 c 128,-1,30
 394.2 1055 394.2 1055 657.9 1055 c 0,31,32
 702 1055 702 1055 741.15 1048 c 128,-1,33
 780.3 1041 780.3 1041 812.7 1028 c 1,34,-1
 676.8 1243 l 1,35,-1
 330.3 1135 l 1,36,-1
 298.8 1264 l 1,37,-1
 604.8 1358 l 1,38,-1
 481.5 1556 l 1,39,-1
 798.3 1556 l 1,40,-1
 872.1 1440 l 1,41,-1
 1218.6 1546 l 1,42,-1
 1250.1 1419 l 1,43,-1
 944.1 1325 l 1,44,-1
 1083.6 1100 l 2,16,17
EndSplineSet
EndChar
StartChar: divide
Encoding: 247 247 247
Width: 1544
Flags: W
Fore
634.5 395 m 1,0,-1
 910.8 395 l 1,1,-1
 910.8 86 l 1,2,-1
 634.5 86 l 1,3,-1
 634.5 395 l 1,0,-1
634.5 1198 m 1,4,-1
 910.8 1198 l 1,5,-1
 910.8 889 l 1,6,-1
 634.5 889 l 1,7,-1
 634.5 1198 l 1,4,-1
195.3 760 m 1,8,-1
 1349.1 760 l 1,9,-1
 1349.1 524 l 1,10,-1
 195.3 524 l 1,11,-1
 195.3 760 l 1,8,-1
EndSplineSet
EndChar
StartChar: oslash
Encoding: 248 248 248
Width: 1266
Flags: W
AnchorPoint: "above" 737.104 1147 basechar 0
AnchorPoint: "below" 536.445 0 basechar 0
Fore
814.5 842 m 1,0,1
 793.8 866 793.8 866 762.75 878.5 c 128,-1,2
 731.7 891 731.7 891 691.2 891 c 0,3,4
 565.2 891 565.2 891 489.15 771.5 c 128,-1,5
 413.1 652 413.1 652 404.1 438 c 1,6,-1
 814.5 842 l 1,0,1
136.8 174 m 1,7,8
 101.7 233 101.7 233 84.1504 301.5 c 128,-1,9
 66.5996 370 66.5996 370 66.5996 446 c 0,10,11
 66.5996 572 66.5996 572 107.55 691.5 c 128,-1,12
 148.5 811 148.5 811 226.8 911 c 0,13,14
 316.8 1028 316.8 1028 441.45 1087.5 c 128,-1,15
 566.1 1147 566.1 1147 720.9 1147 c 0,16,17
 814.5 1147 814.5 1147 891.9 1124 c 128,-1,18
 969.3 1101 969.3 1101 1030.5 1055 c 1,19,-1
 1203.3 1223 l 1,20,-1
 1290.6 1112 l 1,21,-1
 1125.9 950 l 1,22,23
 1162.8 891 1162.8 891 1181.25 822 c 128,-1,24
 1199.7 753 1199.7 753 1199.7 674 c 0,25,26
 1199.7 547 1199.7 547 1159.2 427.5 c 128,-1,27
 1118.7 308 1118.7 308 1041.3 209 c 0,28,29
 950.4 93 950.4 93 823.95 32 c 128,-1,30
 697.5 -29 697.5 -29 545.4 -29 c 0,31,32
 447.3 -29 447.3 -29 368.55 -4.5 c 128,-1,33
 289.8 20 289.8 20 228.6 70 c 1,34,-1
 54.9004 -102 l 1,35,-1
 -31.5 10 l 1,36,-1
 136.8 174 l 1,7,8
448.2 283 m 1,37,38
 470.7 255 470.7 255 501.75 241 c 128,-1,39
 532.8 227 532.8 227 575.1 227 c 0,40,41
 702 227 702 227 778.95 351 c 128,-1,42
 855.9 475 855.9 475 862.2 692 c 1,43,-1
 448.2 283 l 1,37,38
EndSplineSet
EndChar
StartChar: thorn
Encoding: 254 254 254
Width: 1319
Flags: W
Fore
409.5 162 m 1,0,-1
 306 -426 l 1,1,-1
 -18 -426 l 1,2,-1
 328.5 1556 l 1,3,-1
 652.5 1556 l 1,4,-1
 547.2 956 l 1,5,6
 621 1054 621 1054 702 1100.5 c 128,-1,7
 783 1147 783 1147 879.3 1147 c 0,8,9
 1049.4 1147 1049.4 1147 1148.4 1027 c 128,-1,10
 1247.4 907 1247.4 907 1247.4 700 c 0,11,12
 1247.4 571 1247.4 571 1212.75 449 c 128,-1,13
 1178.1 327 1178.1 327 1113.3 227 c 0,14,15
 1031.4 101 1031.4 101 928.35 36 c 128,-1,16
 825.3 -29 825.3 -29 707.4 -29 c 0,17,18
 603.9 -29 603.9 -29 531.45 17.5 c 128,-1,19
 459 64 459 64 409.5 162 c 1,0,-1
747.9 887 m 0,20,21
 623.7 887 623.7 887 544.95 759.5 c 128,-1,22
 466.2 632 466.2 632 466.2 428 c 0,23,24
 466.2 336 466.2 336 510.75 283.5 c 128,-1,25
 555.3 231 555.3 231 634.5 231 c 0,26,27
 756 231 756 231 835.2 356.5 c 128,-1,28
 914.4 482 914.4 482 914.4 678 c 0,29,30
 914.4 780 914.4 780 871.65 833.5 c 128,-1,31
 828.9 887 828.9 887 747.9 887 c 0,20,21
EndSplineSet
EndChar
StartChar: dcroat
Encoding: 273 273 273
Width: 1319
Flags: W
Fore
566.1 231 m 0,0,1
 690.3 231 690.3 231 768.15 358 c 128,-1,2
 846 485 846 485 846 690 c 0,3,4
 846 783 846 783 802.35 835 c 128,-1,5
 758.7 887 758.7 887 680.4 887 c 0,6,7
 558 887 558 887 478.8 761.5 c 128,-1,8
 399.6 636 399.6 636 399.6 440 c 0,9,10
 399.6 338 399.6 338 442.35 284.5 c 128,-1,11
 485.1 231 485.1 231 566.1 231 c 0,0,1
905.4 956 m 1,12,-1
 956.7 1251 l 1,13,-1
 601.2 1251 l 1,14,-1
 634.5 1440 l 1,15,-1
 990 1440 l 1,16,-1
 1009.8 1556 l 1,17,-1
 1334.7 1556 l 1,18,-1
 1314 1440 l 1,19,-1
 1505.7 1440 l 1,20,-1
 1472.4 1251 l 1,21,-1
 1280.7 1251 l 1,22,-1
 1062 0 l 1,23,-1
 737.1 0 l 1,24,-1
 766.8 162 l 1,25,26
 693 64 693 64 612 17.5 c 128,-1,27
 531 -29 531 -29 434.7 -29 c 0,28,29
 264.6 -29 264.6 -29 165.6 91 c 128,-1,30
 66.5996 211 66.5996 211 66.5996 418 c 0,31,32
 66.5996 547 66.5996 547 101.25 669 c 128,-1,33
 135.9 791 135.9 791 200.7 891 c 0,34,35
 282.6 1017 282.6 1017 385.65 1082 c 128,-1,36
 488.7 1147 488.7 1147 606.6 1147 c 0,37,38
 710.1 1147 710.1 1147 782.55 1100.5 c 128,-1,39
 855 1054 855 1054 905.4 956 c 1,12,-1
EndSplineSet
EndChar
StartChar: Hbar
Encoding: 294 294 294
Width: 1794
Flags: W
AnchorPoint: "above" 1062.9 1520 basechar 0
Fore
425.7 1493 m 1,0,-1
 772.2 1493 l 1,1,-1
 739.8 1306 l 1,2,-1
 1251 1306 l 1,3,-1
 1283.4 1493 l 1,4,-1
 1629.9 1493 l 1,5,-1
 1597.5 1306 l 1,6,-1
 1723.5 1306 l 1,7,-1
 1689.3 1112 l 1,8,-1
 1563.3 1112 l 1,9,-1
 1368.9 0 l 1,10,-1
 1022.4 0 l 1,11,-1
 1133.1 633 l 1,12,-1
 621.9 633 l 1,13,-1
 511.2 0 l 1,14,-1
 164.7 0 l 1,15,-1
 359.1 1112 l 1,16,-1
 233.1 1112 l 1,17,-1
 267.3 1306 l 1,18,-1
 393.3 1306 l 1,19,-1
 425.7 1493 l 1,0,-1
705.6 1112 m 1,20,-1
 673.2 924 l 1,21,-1
 1184.4 924 l 1,22,-1
 1216.8 1112 l 1,23,-1
 705.6 1112 l 1,20,-1
EndSplineSet
EndChar
StartChar: hbar
Encoding: 295 295 295
Width: 1456
Flags: W
AnchorPoint: "above" 609.3 1520 basechar 0
Fore
1290.15 682 m 2,0,-1
 1170.9 0 l 1,1,-1
 846.9 0 l 1,2,-1
 937.8 520 l 18,3,4
 962.55 662 962.55 662 967.05 722 c 0,5,6
 967.95 737 967.95 737 967.95 750 c 0,7,8
 967.95 784 967.95 784 960.75 803 c 0,9,10
 948.15 838 948.15 838 919.35 857.5 c 0,11,12
 891 877 891 877 848.7 877 c 0,13,14
 747.9 877 747.9 877 675.45 790.5 c 128,-1,15
 603 704 603 704 576 551 c 9,16,-1
 479.7 0 l 1,17,-1
 157.5 0 l 1,18,-1
 377.1 1255 l 1,19,-1
 233.1 1255 l 1,20,-1
 266.4 1449 l 1,21,-1
 410.4 1449 l 1,22,-1
 429.3 1556 l 1,23,-1
 751.5 1556 l 1,24,-1
 732.6 1449 l 1,25,-1
 1059.3 1449 l 1,26,-1
 1026 1255 l 1,27,-1
 699.3 1255 l 1,28,-1
 647.1 956 l 1,29,30
 737.1 1054 737.1 1054 826.65 1100.5 c 0,31,32
 916.65 1147 916.65 1147 1015.65 1147 c 0,33,34
 1190.25 1147 1190.25 1147 1260 1028 c 0,35,36
 1304.55 952 1304.55 952 1304.55 832.5 c 0,37,38
 1304.55 764.5 1304.55 764.5 1290.15 682 c 2,0,-1
EndSplineSet
EndChar
StartChar: dotlessi
Encoding: 305 305 305
Width: 631
Flags: W
AnchorPoint: "below" 217.032 0 basechar 0
AnchorPoint: "above" 416.7 1147 basechar 0
Fore
252.9 1120 m 1,0,-1
 576.9 1120 l 1,1,-1
 379.8 0 l 1,2,-1
 56.7002 0 l 1,3,-1
 252.9 1120 l 1,0,-1
EndSplineSet
EndChar
StartChar: kgreenlandic
Encoding: 312 312 312
Width: 1225
Flags: W
Fore
252.9 1120 m 1,0,-1
 575.1 1120 l 1,1,-1
 503.1 709 l 1,2,-1
 945.9 1120 l 1,3,-1
 1320.3 1120 l 1,4,-1
 738 606 l 1,5,-1
 1162.8 0 l 1,6,-1
 772.2 0 l 1,7,-1
 460.8 467 l 1,8,-1
 378.9 0 l 1,9,-1
 56.7002 0 l 1,10,-1
 252.9 1120 l 1,0,-1
EndSplineSet
EndChar
StartChar: Lslash
Encoding: 321 321 321
Width: 1216
Flags: W
Fore
369 1493 m 1,0,-1
 715.5 1493 l 1,1,-1
 624.6 977 l 1,2,-1
 930.6 1128 l 1,3,-1
 1025.1 918 l 1,4,-1
 575.1 698 l 1,5,-1
 504.9 291 l 1,6,-1
 1111.5 291 l 1,7,-1
 1062 0 l 1,8,-1
 107.1 0 l 1,9,-1
 195.3 502 l 1,10,-1
 51.2998 428 l 1,11,-1
 -42.2998 643 l 1,12,-1
 243 778 l 1,13,-1
 369 1493 l 1,0,-1
EndSplineSet
KernsSLIFO: 366 -73 0 0 356 -339 0 0 253 -253 0 0 221 -319 0 0 217 -73 0 0 219 -73 0 0 218 -73 0 0 210 -73 0 0 212 -73 0 0 211 -73 0 0 376 -319 0 0 255 -253 0 0 8217 -264 0 0 8221 -264 0 0 338 -73 0 0 213 -73 0 0 216 -73 0 0 220 -73 0 0 214 -73 0 0 121 -253 0 0 89 -319 0 0 87 -159 0 0 86 -282 0 0 85 -73 0 0 84 -339 0 0 79 -73 0 0
EndChar
StartChar: lslash
Encoding: 322 322 322
Width: 691
Flags: W
Fore
367.2 1556 m 1,0,-1
 691.2 1556 l 1,1,-1
 599.4 1040 l 1,2,-1
 750.6 1118 l 1,3,-1
 840.6 915 l 1,4,-1
 552.6 770 l 1,5,-1
 418.5 0 l 1,6,-1
 93.5996 0 l 1,7,-1
 198.9 598 l 1,8,-1
 73.7998 530 l 1,9,-1
 -12.5996 733 l 1,10,-1
 246.6 868 l 1,11,-1
 367.2 1556 l 1,0,-1
EndSplineSet
EndChar
StartChar: Eng
Encoding: 330 330 330
Width: 1542
Flags: W
AnchorPoint: "above" 968.4 1520 basechar 0
Fore
318.6 1493 m 1,0,-1
 630 1493 l 1,1,-1
 1008.9 529 l 1,2,-1
 1177.2 1493 l 1,3,-1
 1489.5 1493 l 1,4,-1
 1232.1 20 l 2,5,6
 1192.5 -203 1192.5 -203 1072.8 -324 c 0,7,8
 954.9 -442 954.9 -442 770.4 -442 c 2,9,-1
 517.5 -442 l 1,10,-1
 558 -207 l 1,11,-1
 707.4 -207 l 2,12,13
 799.2 -207 799.2 -207 842.4 -161 c 0,14,15
 884.7 -115 884.7 -115 908.1 20 c 1,16,-1
 537.3 964 l 1,17,-1
 369 0 l 1,18,-1
 57.5996 0 l 1,19,-1
 318.6 1493 l 1,0,-1
EndSplineSet
Substitution: 0 2 'salt' Eng.alt
Substitution: 0 4 'locl' Eng.alt
Substitution: 0 2 'aalt' Eng.alt
EndChar
StartChar: eng
Encoding: 331 331 331
Width: 1312
Flags: W
Fore
1225.8 682 m 2,0,-1
 1109.7 20 l 2,1,2
 1071 -203 1071 -203 951.3 -324 c 0,3,4
 833.4 -442 833.4 -442 648.9 -442 c 2,5,-1
 396 -442 l 1,6,-1
 436.5 -207 l 1,7,-1
 585.9 -207 l 2,8,9
 677.7 -207 677.7 -207 720 -161 c 128,-1,10
 762.3 -115 762.3 -115 785.7 20 c 2,11,-1
 873.9 522 l 2,12,13
 899.1 667 899.1 667 903.6 722 c 0,14,15
 904.5 736 904.5 736 904.5 748 c 0,16,17
 904.5 784 904.5 784 897.3 803 c 0,18,19
 883.8 838 883.8 838 855 858 c 0,20,21
 826.2 877 826.2 877 784.8 877 c 0,22,23
 684 877 684 877 611.1 790 c 0,24,25
 538.2 704 538.2 704 512.1 551 c 2,26,-1
 414.9 0 l 1,27,-1
 92.7002 0 l 1,28,-1
 288.9 1120 l 1,29,-1
 611.1 1120 l 1,30,-1
 582.3 956 l 1,31,32
 672.3 1054 672.3 1054 762.3 1100 c 0,33,34
 852.3 1147 852.3 1147 951.3 1147 c 0,35,36
 1125.9 1147 1125.9 1147 1196.1 1028 c 0,37,38
 1240.2 952 1240.2 952 1240.2 833 c 0,39,40
 1240.2 765 1240.2 765 1225.8 682 c 2,0,-1
EndSplineSet
EndChar
StartChar: OE
Encoding: 338 338 338
Width: 2151
Flags: W
Fore
1141.2 1202 m 1,0,-1
 1046.7 1202 l 2,1,2
 920.7 1202 920.7 1202 827.1 1178.5 c 128,-1,3
 733.5 1155 733.5 1155 665.1 1106 c 0,4,5
 563.4 1032 563.4 1032 501.75 907 c 128,-1,6
 440.1 782 440.1 782 440.1 647 c 0,7,8
 440.1 464 440.1 464 548.55 377.5 c 128,-1,9
 657 291 657 291 886.5 291 c 2,10,-1
 982.8 291 l 1,11,-1
 1141.2 1202 l 1,0,-1
1111.5 1493 m 1,12,-1
 2126.7 1493 l 1,13,-1
 2075.4 1202 l 1,14,-1
 1489.5 1202 l 1,15,-1
 1439.1 924 l 1,16,-1
 1992.6 924 l 1,17,-1
 1941.3 633 l 1,18,-1
 1387.8 633 l 1,19,-1
 1329.3 291 l 1,20,-1
 1936.8 291 l 1,21,-1
 1885.5 0 l 1,22,-1
 842.4 0 l 1,23,-1
 792.9 0 l 2,24,25
 451.8 0 451.8 0 264.6 151 c 128,-1,26
 77.4004 302 77.4004 302 77.4004 575 c 0,27,28
 77.4004 817 77.4004 817 183.6 1022.5 c 128,-1,29
 289.8 1228 289.8 1228 477 1350 c 1,30,31
 592.2 1423 592.2 1423 733.95 1458 c 128,-1,32
 875.7 1493 875.7 1493 1060.2 1493 c 2,33,-1
 1111.5 1493 l 1,12,-1
EndSplineSet
EndChar
StartChar: oe
Encoding: 339 339 339
Width: 2016
Flags: W
AnchorPoint: "below" 919.206 0 basechar 0
AnchorPoint: "above" 1119.87 1147 basechar 0
Fore
1618.2 682 m 1,0,1
 1620.9 695 1620.9 695 1622.25 708.5 c 128,-1,2
 1623.6 722 1623.6 722 1623.6 735 c 0,3,4
 1623.6 815 1623.6 815 1580.4 862 c 128,-1,5
 1537.2 909 1537.2 909 1463.4 909 c 0,6,7
 1368.9 909 1368.9 909 1300.95 850.5 c 128,-1,8
 1233 792 1233 792 1199.7 682 c 1,9,-1
 1618.2 682 l 1,0,1
1922.4 518 m 2,10,-1
 1911.6 461 l 1,11,-1
 1157.4 461 l 1,12,13
 1157.4 455 1157.4 455 1156.5 443.5 c 128,-1,14
 1155.6 432 1155.6 432 1155.6 426 c 0,15,16
 1155.6 317 1155.6 317 1214.55 263 c 128,-1,17
 1273.5 209 1273.5 209 1391.4 209 c 0,18,19
 1492.2 209 1492.2 209 1605.6 243 c 128,-1,20
 1719 277 1719 277 1843.2 344 c 1,21,-1
 1793.7 66 l 1,22,23
 1675.8 18 1675.8 18 1558.8 -5.5 c 128,-1,24
 1441.8 -29 1441.8 -29 1319.4 -29 c 0,25,26
 1179.9 -29 1179.9 -29 1089.9 10 c 128,-1,27
 999.9 49 999.9 49 947.7 131 c 1,28,29
 866.7 49 866.7 49 770.4 10 c 128,-1,30
 674.1 -29 674.1 -29 550.8 -29 c 0,31,32
 324.9 -29 324.9 -29 195.75 97.5 c 128,-1,33
 66.5996 224 66.5996 224 66.5996 444 c 0,34,35
 66.5996 571 66.5996 571 107.55 691.5 c 128,-1,36
 148.5 812 148.5 812 225 911 c 0,37,38
 315.9 1028 315.9 1028 441.9 1087.5 c 128,-1,39
 567.9 1147 567.9 1147 722.7 1147 c 0,40,41
 848.7 1147 848.7 1147 940.05 1106.5 c 128,-1,42
 1031.4 1066 1031.4 1066 1089 985 c 1,43,44
 1173.6 1066 1173.6 1066 1276.2 1106.5 c 128,-1,45
 1378.8 1147 1378.8 1147 1502.1 1147 c 0,46,47
 1702.8 1147 1702.8 1147 1822.95 1025 c 128,-1,48
 1943.1 903 1943.1 903 1943.1 702 c 0,49,50
 1943.1 662 1943.1 662 1937.7 615.5 c 128,-1,51
 1932.3 569 1932.3 569 1922.4 518 c 2,10,-1
691.2 891 m 0,52,53
 566.1 891 566.1 891 485.1 765 c 128,-1,54
 404.1 639 404.1 639 404.1 444 c 0,55,56
 404.1 338 404.1 338 447.75 282.5 c 128,-1,57
 491.4 227 491.4 227 575.1 227 c 0,58,59
 700.2 227 700.2 227 781.2 353.5 c 128,-1,60
 862.2 480 862.2 480 862.2 676 c 0,61,62
 862.2 781 862.2 781 818.55 836 c 128,-1,63
 774.9 891 774.9 891 691.2 891 c 0,52,53
EndSplineSet
EndChar
StartChar: Tbar
Encoding: 358 358 358
Width: 1257
Flags: W
TeX: 0 0 0 0
Fore
139.5 1493 m 1,0,-1
 1377.9 1493 l 1,1,-1
 1327.5 1202 l 1,2,-1
 882 1202 l 1,3,-1
 792.9 697 l 1,4,-1
 1015.2 697 l 1,5,-1
 981.9 505 l 1,6,-1
 759.6 505 l 1,7,-1
 671.4 0 l 1,8,-1
 324.9 0 l 1,9,-1
 413.1 505 l 1,10,-1
 190.8 505 l 1,11,-1
 224.1 697 l 1,12,-1
 446.4 697 l 1,13,-1
 535.5 1202 l 1,14,-1
 89.0996 1202 l 1,15,-1
 139.5 1493 l 1,0,-1
EndSplineSet
EndChar
StartChar: tbar
Encoding: 359 359 359
Width: 881
Flags: W
TeX: 0 0 0 0
Fore
632.7 1438 m 1,0,-1
 576.9 1120 l 1,1,-1
 909 1120 l 1,2,-1
 864 864 l 1,3,-1
 531.9 864 l 1,4,-1
 507.6 722 l 1,5,-1
 673.2 722 l 1,6,-1
 639 530 l 1,7,-1
 473.4 530 l 1,8,-1
 449.1 389 l 2,9,10
 443.7 360 443.7 360 443.7 338 c 0,11,12
 443.7 301 443.7 301 458.1 284 c 0,13,14
 481.5 256 481.5 256 564.3 256 c 2,15,-1
 729.9 256 l 1,16,-1
 684.9 0 l 1,17,-1
 408.6 0 l 2,18,19
 217.8 0 217.8 0 153.9 88 c 0,20,21
 113.4 145 113.4 145 113.4 250 c 0,22,23
 113.4 311 113.4 311 126.9 389 c 2,24,-1
 151.2 530 l 1,25,-1
 -9 530 l 1,26,-1
 25.2002 722 l 1,27,-1
 185.4 722 l 1,28,-1
 209.7 864 l 1,29,-1
 49.5 864 l 1,30,-1
 94.5 1120 l 1,31,-1
 254.7 1120 l 1,32,-1
 310.5 1438 l 1,33,-1
 632.7 1438 l 1,0,-1
EndSplineSet
EndChar
StartChar: longs
Encoding: 383 383 383
Width: 801
Flags: W
TeX: 0 0 0 0
Fore
423.9 0 m 1,0,-1
 99.9004 0 l 1,1,-1
 251.1 864 l 1,2,-1
 91.7998 864 l 1,3,-1
 136.8 1120 l 1,4,-1
 295.2 1120 l 1,5,-1
 309.6 1198 l 1,6,7
 342.9 1384 342.9 1384 448.2 1470 c 128,-1,8
 553.5 1556 553.5 1556 747.9 1556 c 2,9,-1
 995.4 1556 l 1,10,-1
 953.1 1321 l 1,11,-1
 775.8 1321 l 2,12,13
 708.3 1321 708.3 1321 676.8 1294 c 0,14,15
 646.2 1266 646.2 1266 634.5 1199 c 1,16,-1
 423.9 0 l 1,0,-1
EndSplineSet
EndChar
StartChar: uni0180
Encoding: 384 384 384
Width: 1319
Flags: W
TeX: 117 0 0 0
AnchorPoint: "above" 452.744 1520 basechar 0
Fore
510.3 956 m 1,0,1
 594 1054 594 1054 684 1100 c 0,2,3
 773.1 1147 773.1 1147 878.4 1147 c 0,4,5
 1064.7 1147 1064.7 1147 1155.6 982 c 0,6,7
 1246.5 818 1246.5 818 1200.6 559 c 0,8,9
 1155.6 300 1155.6 300 1007.1 136 c 0,10,11
 858.6 -29 858.6 -29 672.3 -29 c 0,12,13
 567 -29 567 -29 494.1 18 c 0,14,15
 421.2 64 421.2 64 371.7 162 c 1,16,-1
 343.8 0 l 1,17,-1
 21.5996 0 l 1,18,-1
 237.6 1237 l 1,19,-1
 99 1237 l 1,20,-1
 135 1442 l 1,21,-1
 273.6 1442 l 1,22,-1
 293.4 1556 l 1,23,-1
 615.6 1556 l 1,24,-1
 595.8 1442 l 1,25,-1
 891 1442 l 1,26,-1
 855 1237 l 1,27,-1
 559.8 1237 l 1,28,-1
 510.3 956 l 1,0,1
597.6 231 m 0,29,30
 701.1 231 701.1 231 770.4 315 c 0,31,32
 839.7 399 839.7 399 867.6 559 c 0,33,34
 895.5 719 895.5 719 855.9 803 c 0,35,36
 816.3 887 816.3 887 712.8 887 c 0,37,38
 609.3 887 609.3 887 539.1 802 c 0,39,40
 468.9 718 468.9 718 441 559 c 0,41,42
 413.1 400 413.1 400 453.6 316 c 0,43,44
 494.1 231 494.1 231 597.6 231 c 0,29,30
EndSplineSet
EndChar
StartChar: uni0181
Encoding: 385 385 385
Width: 1494
Flags: W
TeX: 117 0 0 0
AnchorPoint: "above" 924.615 1520 basechar 0
Fore
827.1 915 m 2,0,1
 909 915 909 915 958.5 955 c 0,2,3
 1007.1 995 1007.1 995 1020.6 1073 c 0,4,5
 1034.1 1150 1034.1 1150 999 1190 c 0,6,7
 963.9 1231 963.9 1231 882 1231 c 2,8,-1
 690.3 1231 l 1,9,-1
 635.4 915 l 1,10,-1
 827.1 915 l 2,0,1
724.5 262 m 2,11,12
 828.9 262 828.9 262 890.1 311 c 0,13,14
 951.3 360 951.3 360 968.4 459 c 0,15,16
 985.5 556 985.5 556 941.4 604 c 0,17,18
 898.2 653 898.2 653 792.9 653 c 2,19,-1
 589.5 653 l 1,20,-1
 521.1 262 l 1,21,-1
 724.5 262 l 2,11,12
1140.3 799 m 1,22,23
 1245.6 763 1245.6 763 1289.7 666 c 0,24,25
 1333.8 569 1333.8 569 1309.5 428 c 0,26,27
 1271.7 212 1271.7 212 1121.4 106 c 0,28,29
 972 0 972 0 703.8 0 c 2,30,-1
 128.7 0 l 1,31,-1
 343.8 1231 l 1,32,33
 278.1 1231 278.1 1231 272.7 1230 c 0,34,35
 231.3 1226 231.3 1226 215.1 1210 c 0,36,37
 181.8 1176 181.8 1176 171 1126 c 0,38,39
 167.4 1112 167.4 1112 162 1079 c 1,40,-1
 -67.5 1079 l 1,41,-1
 -54 1156 l 2,42,43
 -30.5996 1294 -30.5996 1294 24.2998 1359 c 0,44,45
 45 1383 45 1383 79.2002 1412 c 0,46,47
 157.5 1475 157.5 1475 285.3 1488 c 0,48,49
 331.2 1493 331.2 1493 389.7 1493 c 2,50,-1
 909.9 1493 l 2,51,52
 1189.8 1493 1189.8 1493 1298.7 1399 c 0,53,54
 1408.5 1305 1408.5 1305 1371.6 1098 c 0,55,56
 1352.7 989 1352.7 989 1293.3 912 c 0,57,58
 1233.9 836 1233.9 836 1140.3 799 c 1,22,23
EndSplineSet
EndChar
StartChar: uni0183
Encoding: 387 387 387
Width: 1319
Flags: W
TeX: 117 0 0 0
Fore
510.3 956 m 1,0,1
 594 1054 594 1054 684 1100 c 0,2,3
 773.1 1147 773.1 1147 878.4 1147 c 0,4,5
 1064.7 1147 1064.7 1147 1155.6 982 c 0,6,7
 1246.5 818 1246.5 818 1200.6 559 c 0,8,9
 1155.6 300 1155.6 300 1007.1 136 c 0,10,11
 858.6 -29 858.6 -29 672.3 -29 c 0,12,13
 567 -29 567 -29 494.1 18 c 0,14,15
 421.2 64 421.2 64 371.7 162 c 1,16,-1
 343.8 0 l 1,17,-1
 21.5996 0 l 1,18,-1
 293.4 1556 l 1,19,-1
 1219.5 1556 l 1,20,-1
 1168.2 1265 l 1,21,-1
 564.3 1265 l 1,22,-1
 510.3 956 l 1,0,1
597.6 231 m 0,23,24
 701.1 231 701.1 231 770.4 315 c 0,25,26
 839.7 399 839.7 399 867.6 559 c 0,27,28
 895.5 719 895.5 719 855.9 803 c 0,29,30
 816.3 887 816.3 887 712.8 887 c 0,31,32
 609.3 887 609.3 887 539.1 802 c 0,33,34
 468.9 718 468.9 718 441 559 c 0,35,36
 413.1 400 413.1 400 453.6 316 c 0,37,38
 494.1 231 494.1 231 597.6 231 c 0,23,24
EndSplineSet
EndChar
StartChar: uni0184
Encoding: 388 388 388
Width: 1404
Flags: W
TeX: 117 0 0 0
Fore
707.4 262 m 2,0,1
 816.3 262 816.3 262 873 307 c 0,2,3
 933.3 356 933.3 356 949.5 449 c 0,4,5
 965.7 540 965.7 540 921.6 588 c 0,6,7
 882 633 882 633 772.2 633 c 2,8,-1
 568.8 633 l 1,9,-1
 504 262 l 1,10,-1
 707.4 262 l 2,0,1
686.7 0 m 10,11,-1
 111.6 0 l 17,12,-1
 273.6 924 l 1,0,0
 135 1104 l 1,0,0
 719.1 1493 l 25,14,-1
 620.1 924 l 1,17,-1
 848.7 924 l 2,18,19
 1103.4 924 1103.4 924 1227.6 807 c 0,20,21
 1340.1 701 1340.1 701 1297.8 461 c 24,22,23
 1256.4 223 1256.4 223 1107 117 c 0,24,25
 941.4 0 941.4 0 686.7 0 c 10,11,-1
EndSplineSet
EndChar
StartChar: uni0185
Encoding: 389 389 389
Width: 1319
Flags: W
TeX: 117 0 0 0
Fore
557.1 956 m 1,0,1
 640.8 1054 640.8 1054 730.8 1100 c 0,2,3
 819.9 1147 819.9 1147 925.2 1147 c 0,4,5
 1111.5 1147 1111.5 1147 1202.4 982 c 0,6,7
 1293.3 818 1293.3 818 1247.4 559 c 0,8,9
 1202.4 300 1202.4 300 1053.9 136 c 0,10,11
 905.4 -29 905.4 -29 719.1 -29 c 0,12,13
 613.8 -29 613.8 -29 540.9 18 c 0,14,15
 468 64 468 64 418.5 162 c 1,16,-1
 390.6 0 l 1,17,-1
 68.4004 0 l 1,18,-1
 229.5 924 l 1,0,0
 106.2 1104 l 1,19,-1
 662.4 1556 l 1,20,-1
 557.1 956 l 1,0,1
644.4 231 m 0,23,24
 747.9 231 747.9 231 817.2 315 c 0,25,26
 886.5 399 886.5 399 914.4 559 c 0,27,28
 942.3 719 942.3 719 902.7 803 c 0,29,30
 863.1 887 863.1 887 759.6 887 c 0,31,32
 656.1 887 656.1 887 585.9 802 c 0,33,34
 515.7 718 515.7 718 487.8 559 c 0,35,36
 459.9 400 459.9 400 500.4 316 c 0,37,38
 540.9 231 540.9 231 644.4 231 c 0,23,24
EndSplineSet
EndChar
StartChar: uni0186
Encoding: 390 390 390
Width: 1352
Flags: W
TeX: 117 0 0 0
AnchorPoint: "above" 663.3 1520 basechar 0
Fore
-24.2998 82 m 1,0,-1
 31.5 391 l 1,1,2
 117.9 318 117.9 318 205.2 284 c 128,-1,3
 292.5 250 292.5 250 392.4 250 c 0,4,5
 600.3 250 600.3 250 740.7 428 c 128,-1,6
 881.1 606 881.1 606 881.1 873 c 0,7,8
 881.1 1045 881.1 1045 794.7 1143 c 128,-1,9
 708.3 1241 708.3 1241 556.2 1241 c 0,10,11
 465.3 1241 465.3 1241 363.15 1204.5 c 128,-1,12
 261 1168 261 1168 134.1 1090 c 1,13,-1
 193.5 1421 l 1,14,15
 317.7 1470 317.7 1470 432 1495 c 128,-1,16
 546.3 1520 546.3 1520 648.9 1520 c 0,17,18
 919.8 1520 919.8 1520 1081.8 1355 c 128,-1,19
 1243.8 1190 1243.8 1190 1243.8 918 c 0,20,21
 1243.8 739 1243.8 739 1192.5 580.5 c 128,-1,22
 1141.2 422 1141.2 422 1041.3 291 c 0,23,24
 923.4 137 923.4 137 757.35 54 c 128,-1,25
 591.3 -29 591.3 -29 399.6 -29 c 0,26,27
 295.2 -29 295.2 -29 189.9 -1.5 c 128,-1,28
 84.5996 26 84.5996 26 -24.2998 82 c 1,0,-1
EndSplineSet
EndChar
StartChar: uni0187
Encoding: 391 391 391
Width: 1352
Flags: W
TeX: 117 0 0 0
AnchorPoint: "above" 921.051 1520 basechar 0
Fore
1086.3 82 m 1,0,1
 981 27 981 27 873 -1 c 0,2,3
 764.1 -29 764.1 -29 651.6 -29 c 0,4,5
 315.9 -29 315.9 -29 156.6 180 c 0,6,7
 -3.59961 388 -3.59961 388 59.4004 745 c 0,8,9
 121.5 1103 121.5 1103 354.6 1312 c 0,10,11
 586.8 1520 586.8 1520 922.5 1520 c 0,12,13
 966.6 1520 966.6 1520 1007.1 1516 c 1,14,15
 1064.7 1665 1064.7 1665 1168.2 1754 c 0,16,17
 1329.3 1892 1329.3 1892 1605.6 1892 c 2,18,-1
 1675.8 1892 l 1,19,-1
 1624.5 1601 l 1,20,-1
 1570.5 1601 l 2,21,22
 1462.5 1601 1462.5 1601 1395.9 1534 c 0,23,24
 1328.4 1467 1328.4 1467 1305.9 1337 c 2,25,-1
 1264.5 1100 l 1,26,27
 1180.8 1173 1180.8 1173 1093.5 1207 c 0,28,29
 1005.3 1241 1005.3 1241 901.8 1241 c 0,30,31
 716.4 1241 716.4 1241 587.7 1109 c 0,32,33
 458.1 977 458.1 977 417.6 745 c 0,34,35
 377.1 514 377.1 514 459.9 382 c 0,36,37
 543.6 250 543.6 250 729 250 c 0,38,39
 832.5 250 832.5 250 931.5 284 c 0,40,41
 1031.4 318 1031.4 318 1140.3 391 c 1,42,-1
 1086.3 82 l 1,0,1
EndSplineSet
EndChar
StartChar: uni0188
Encoding: 392 392 392
Width: 1092
Flags: W
TeX: 117 0 0 0
AnchorPoint: "above" 733.176 1147 basechar 0
Fore
1020.6 1021 m 2,0,-1
 981 793 l 1,1,2
 924.3 843 924.3 843 862.2 867 c 0,3,4
 800.1 891 800.1 891 729 891 c 0,5,6
 594 891 594 891 503.1 804 c 0,7,8
 413.1 716 413.1 716 385.2 559 c 0,9,10
 358.2 402 358.2 402 417.6 314 c 0,11,12
 477.9 227 477.9 227 612.9 227 c 0,13,14
 688.5 227 688.5 227 760.5 252 c 0,15,16
 833.4 277 833.4 277 899.1 326 c 1,17,-1
 847.8 33 l 1,18,19
 766.8 2 766.8 2 686.7 -14 c 0,20,21
 605.7 -29 605.7 -29 527.4 -29 c 0,22,23
 254.7 -29 254.7 -29 127.8 126 c 0,24,25
 1.7998 282 1.7998 282 49.5 559 c 0,26,27
 98.0996 836 98.0996 836 279 992 c 0,28,29
 459 1146 459 1146 729 1147 c 1,30,31
 773.1 1282 773.1 1282 855.9 1364 c 0,32,33
 973.8 1483 973.8 1483 1158.3 1483 c 2,34,-1
 1317.6 1483 l 1,35,-1
 1276.2 1248 l 1,36,-1
 1220.4 1248 l 2,37,38
 1128.6 1248 1128.6 1248 1086.3 1202 c 0,39,40
 1044 1156 1044 1156 1020.6 1021 c 2,0,-1
EndSplineSet
EndChar
StartChar: uni018A
Encoding: 394 394 394
Width: 1620
Flags: W
TeX: 117 0 0 0
AnchorPoint: "above" 924.615 1520 basechar 0
Fore
685.8 1202 m 1,0,-1
 525.6 291 l 1,1,-1
 649.8 291 l 2,2,3
 862.2 291 862.2 291 995.4 408 c 0,4,5
 1127.7 525 1127.7 525 1166.4 748 c 0,6,7
 1205.1 970 1205.1 970 1114.2 1086 c 0,8,9
 1023.3 1202 1023.3 1202 810 1202 c 2,10,-1
 685.8 1202 l 1,0,-1
343.8 1231 m 1,11,12
 278.1 1231 278.1 1231 272.7 1230 c 0,13,14
 231.3 1226 231.3 1226 215.1 1210 c 0,15,16
 181.8 1176 181.8 1176 171 1126 c 0,17,18
 167.4 1112 167.4 1112 162 1079 c 1,19,-1
 -67.5 1079 l 1,20,-1
 -54 1156 l 2,21,22
 -30.5996 1294 -30.5996 1294 24.2998 1359 c 0,23,24
 45 1383 45 1383 79.2002 1412 c 0,25,26
 157.5 1475 157.5 1475 285.3 1488 c 0,27,28
 331.2 1493 331.2 1493 389.7 1493 c 2,29,-1
 755.1 1493 l 2,30,31
 1061.1 1493 1061.1 1493 1202.4 1444 c 0,32,33
 1342.8 1396 1342.8 1396 1431 1280 c 0,34,35
 1507.5 1178 1507.5 1178 1530 1047 c 0,36,37
 1553.4 915 1553.4 915 1523.7 748 c 0,38,39
 1494 579 1494 579 1425.6 446 c 0,40,41
 1356.3 314 1356.3 314 1243.8 213 c 0,42,43
 1115.1 97 1115.1 97 955.8 48 c 0,44,45
 796.5 0 796.5 0 494.1 0 c 2,46,-1
 128.7 0 l 1,47,-1
 343.8 1231 l 1,11,12
EndSplineSet
EndChar
StartChar: uni018B
Encoding: 395 395 395
Width: 1404
Flags: W
TeX: 117 0 0 0
Fore
640.8 262 m 2,0,-1
 844.2 262 l 1,1,-1
 909 633 l 1,2,-1
 705.6 633 l 2,3,4
 595.8 633 595.8 633 540 588 c 0,5,6
 479.7 540 479.7 540 463.5 449 c 0,7,8
 447.3 356 447.3 356 491.4 307 c 0,9,10
 531.9 262 531.9 262 640.8 262 c 2,0,-1
569.7 0 m 18,11,12
 315 0 315 0 190.8 117 c 0,13,14
 77.4004 223 77.4004 223 119.7 461 c 0,15,16
 161.1 701 161.1 701 311.4 807 c 0,17,18
 477 924 477 924 731.7 924 c 2,19,-1
 959.4 924 l 1,20,-1
 1008.9 1202 l 1,21,-1
 429.3 1202 l 1,22,-1
 479.7 1493 l 1,23,-1
 1405.8 1493 l 1,24,-1
 1144.8 0 l 1,25,-1
 569.7 0 l 18,11,12
EndSplineSet
EndChar
StartChar: uni018C
Encoding: 396 396 396
Width: 1319
Flags: W
TeX: 117 0 0 0
Fore
873.9 956 m 1,0,-1
 927.9 1265 l 1,1,-1
 325.8 1265 l 1,2,-1
 377.1 1556 l 1,3,-1
 1303.2 1556 l 1,4,-1
 1031.4 0 l 1,5,-1
 709.2 0 l 1,6,-1
 737.1 162 l 1,7,8
 653.4 64 653.4 64 564.3 18 c 0,9,10
 475.2 -29 475.2 -29 369.9 -29 c 0,11,12
 183.6 -29 183.6 -29 92.7002 136 c 0,13,14
 1.7998 300 1.7998 300 46.7998 559 c 0,15,16
 92.7002 818 92.7002 818 241.2 982 c 0,17,18
 389.7 1147 389.7 1147 576 1147 c 0,19,20
 681.3 1147 681.3 1147 754.2 1100 c 0,21,22
 824.4 1056 824.4 1056 873.9 956 c 1,0,-1
534.6 231 m 0,23,24
 638.1 231 638.1 231 707.4 315 c 0,25,26
 776.7 399 776.7 399 804.6 559 c 0,27,28
 832.5 719 832.5 719 792.9 803 c 0,29,30
 753.3 887 753.3 887 649.8 887 c 0,31,32
 547.2 887 547.2 887 477.9 803 c 0,33,34
 408.6 719 408.6 719 380.7 559 c 0,35,36
 352.8 399 352.8 399 392.4 315 c 0,37,38
 432 231 432 231 534.6 231 c 0,23,24
EndSplineSet
EndChar
StartChar: uni018D
Encoding: 397 397 397
Width: 1266
Flags: W
TeX: 117 0 0 0
AnchorPoint: "above" 839.445 1520 basechar 0
Fore
145.8 -118 m 17,0,1
 243.9 -188 243.9 -188 501.3 -188 c 0,2,3
 684 -188 684 -188 696.6 -115 c 0,4,5
 708.3 -49 708.3 -49 519.3 -16 c 0,6,7
 301.5 21 301.5 21 195.3 133 c 0,8,9
 65.7002 268 65.7002 268 114.3 545 c 0,10,11
 161.1 810 161.1 810 335.7 966 c 0,12,13
 511.2 1123 511.2 1123 769.5 1123 c 0,14,15
 1026.9 1123 1026.9 1123 1148.4 966 c 0,16,17
 1269 810 1269 810 1220.4 535 c 0,18,19
 1184.4 330 1184.4 330 1008.9 166 c 0,20,21
 954 116 954 116 891 84 c 1,22,23
 1009.8 5 1009.8 5 981.9 -154 c 0,24,25
 934.2 -426 934.2 -426 459 -426 c 0,26,27
 220.5 -426 220.5 -426 104.4 -356 c 1,28,-1
 145.8 -118 l 17,0,1
686.7 214 m 1,29,30
 738 236 738 236 785.7 292 c 0,31,32
 860.4 379 860.4 379 887.4 536 c 0,33,34
 915.3 693 915.3 693 871.2 781 c 0,35,36
 828 869 828 869 724.5 869 c 0,37,38
 623.7 869 623.7 869 549 780 c 0,39,40
 473.4 690 473.4 690 448.2 544 c 0,41,42
 421.2 391 421.2 391 471.6 317 c 0,43,44
 522.9 240 522.9 240 610.2 229 c 0,45,46
 650.7 224 650.7 224 686.7 214 c 1,29,30
EndSplineSet
EndChar
StartChar: uni018E
Encoding: 398 398 398
Width: 1259
Flags: W
TeX: 117 0 0 0
AnchorPoint: "above" 756.318 1520 basechar 0
Fore
1254.6 1493 m 1,0,-1
 993.6 0 l 1,1,-1
 38.7002 0 l 1,2,-1
 89.0996 291 l 1,3,-1
 697.5 291 l 1,4,-1
 757.8 633 l 1,5,-1
 204.3 633 l 1,6,-1
 255.6 924 l 1,7,-1
 809.1 924 l 1,8,-1
 857.7 1202 l 1,9,-1
 269.1 1202 l 1,10,-1
 319.5 1493 l 1,11,-1
 1254.6 1493 l 1,0,-1
EndSplineSet
EndChar
StartChar: uni018F
Encoding: 399 399 399
Width: 1566
Flags: W
TeX: 117 0 0 0
Fore
1132.2 829 m 8,0,-1
 93.5996 829 l 17,1,2
 72 702 72 702 66.5996 569 c 0,3,4
 56.7002 311 56.7002 311 229.5 136 c 0,5,6
 392.4 -29 392.4 -29 659.7 -29 c 0,7,8
 868.5 -29 868.5 -29 1027.8 50 c 0,9,10
 1188 128 1188 128 1305 287 c 0,11,12
 1400.4 416 1400.4 416 1450.8 578 c 24,13,14
 1504.8 755 1504.8 755 1509.3 912 c 0,15,16
 1513.8 1071 1513.8 1071 1458 1202 c 0,17,18
 1389.6 1362 1389.6 1362 1248.3 1441 c 0,19,20
 1107.9 1520 1107.9 1520 891 1520 c 0,21,22
 770.4 1520 770.4 1520 638.1 1492 c 128,-1,23
 505.8 1464 505.8 1464 367.2 1409 c 1,24,-1
 312.3 1100 l 1,25,26
 447.3 1171 447.3 1171 564.3 1206 c 128,-1,27
 681.3 1241 681.3 1241 787.5 1241 c 0,28,29
 1019.7 1241 1019.7 1241 1105.2 1069 c 0,30,31
 1152.9 973 1152.9 973 1132.2 829 c 8,0,-1
1081.8 571 m 17,32,33
 1056.6 502 1056.6 502 1021.5 442 c 0,34,35
 964.8 347 964.8 347 883.8 298 c 0,36,37
 803.7 250 803.7 250 700.2 250 c 0,38,39
 573.3 250 573.3 250 502.2 345 c 0,40,41
 440.1 428 440.1 428 432 571 c 9,42,-1
 1081.8 571 l 17,32,33
EndSplineSet
EndChar
StartChar: uni0190
Encoding: 400 400 400
Width: 1282
Flags: W
TeX: 117 0 0 0
AnchorPoint: "above" 843.3 1520 basechar 0
Fore
411.3 805 m 1,0,1
 295.2 839 295.2 839 247.5 922 c 0,2,3
 200.7 1006 200.7 1006 223.2 1137 c 0,4,5
 256.5 1329 256.5 1329 403.2 1424 c 0,6,7
 550.8 1520 550.8 1520 812.7 1520 c 0,8,9
 909.9 1520 909.9 1520 1007.1 1504 c 0,10,11
 1105.2 1488 1105.2 1488 1202.4 1456 c 1,12,-1
 1152.9 1174 l 1,13,14
 1075.5 1215 1075.5 1215 993.6 1236 c 128,-1,15
 911.7 1257 911.7 1257 828 1257 c 0,16,17
 714.6 1257 714.6 1257 644.4 1210 c 128,-1,18
 574.2 1163 574.2 1163 558.9 1077 c 0,19,20
 542.7 984 542.7 984 599.4 938 c 0,21,22
 655.2 893 655.2 893 785.7 893 c 2,23,-1
 931.5 893 l 1,24,-1
 887.4 645 l 1,25,-1
 748.8 645 l 2,26,27
 602.1 645 602.1 645 518.4 592 c 0,28,29
 433.8 540 433.8 540 415.8 438 c 0,30,31
 398.7 339 398.7 339 462.6 286 c 128,-1,32
 526.5 233 526.5 233 664.2 233 c 0,33,34
 756.9 233 756.9 233 857.7 260 c 0,35,36
 958.5 288 958.5 288 1065.6 342 c 1,37,-1
 1013.4 45 l 1,38,39
 905.4 8 905.4 8 798.3 -10 c 0,40,41
 690.3 -29 690.3 -29 586.8 -29 c 0,42,43
 293.4 -29 293.4 -29 161.1 86 c 0,44,45
 27.9004 202 27.9004 202 67.5 424 c 0,46,47
 92.7002 573 92.7002 573 180.9 670 c 0,48,49
 268.2 766 268.2 766 411.3 805 c 1,0,1
EndSplineSet
EndChar
StartChar: uni0191
Encoding: 401 401 401
Width: 1259
Flags: W
TeX: 117 0 0 0
Fore
99.9004 145 m 2,0,-1
 335.7 1493 l 1,1,-1
 1270.8 1493 l 1,2,-1
 1219.5 1202 l 1,3,-1
 630.9 1202 l 1,4,-1
 582.3 924 l 1,5,-1
 1135.8 924 l 1,6,-1
 1085.4 633 l 1,7,-1
 531.9 633 l 1,8,-1
 446.4 145 l 2,9,10
 397.8 -134 397.8 -134 236.7 -272 c 0,11,12
 76.5 -410 76.5 -410 -199.8 -410 c 2,13,-1
 -270 -410 l 1,14,-1
 -218.7 -119 l 1,15,-1
 -164.7 -119 l 2,16,17
 -56.7002 -119 -56.7002 -119 9.90039 -52 c 0,18,19
 77.4004 15 77.4004 15 99.9004 145 c 2,0,-1
EndSplineSet
EndChar
StartChar: florin
Encoding: 402 402 402
Width: 801
Flags: W
AnchorPoint: "above" 521.67 1520 basechar 0
Fore
991.8 1556 m 1,0,-1
 950.4 1321 l 1,1,-1
 772.2 1321 l 2,2,3
 703.8 1321 703.8 1321 672.3 1294 c 0,4,5
 639.9 1266 639.9 1266 628.2 1198 c 2,6,-1
 614.7 1120 l 1,7,-1
 890.1 1120 l 1,8,-1
 845.1 864 l 1,9,-1
 569.7 864 l 1,10,-1
 406.8 -68 l 2,11,12
 374.4 -251 374.4 -251 267.3 -338 c 0,13,14
 160.2 -426 160.2 -426 -32.4004 -426 c 2,15,-1
 -279 -426 l 1,16,-1
 -237.6 -191 l 1,17,-1
 -59.4004 -191 l 2,18,19
 9 -191 9 -191 40.5 -164 c 0,20,21
 72.9004 -136 72.9004 -136 84.5996 -68 c 2,22,-1
 247.5 864 l 1,23,-1
 87.2998 864 l 1,24,-1
 132.3 1120 l 1,25,-1
 292.5 1120 l 1,26,-1
 306 1198 l 2,27,28
 338.4 1381 338.4 1381 445.5 1468 c 0,29,30
 552.6 1556 552.6 1556 745.2 1556 c 2,31,-1
 991.8 1556 l 1,0,-1
EndSplineSet
EndChar
StartChar: uni0193
Encoding: 403 403 403
Width: 1512
Flags: W
TeX: 117 0 0 0
AnchorPoint: "above" 939.951 1520 basechar 0
Fore
1233.9 111 m 1,0,1
 1091.7 41 1091.7 41 945.9 6 c 0,2,3
 800.1 -29 800.1 -29 651.6 -29 c 0,4,5
 315.9 -29 315.9 -29 156.6 180 c 0,6,7
 -3.59961 388 -3.59961 388 59.4004 745 c 0,8,9
 122.4 1106 122.4 1106 358.2 1313 c 0,10,11
 594 1520 594 1520 941.4 1520 c 0,12,13
 1022.4 1520 1022.4 1520 1098 1510 c 1,14,15
 1154.7 1663 1154.7 1663 1260.9 1754 c 0,16,17
 1422 1892 1422 1892 1698.3 1892 c 2,18,-1
 1768.5 1892 l 1,19,-1
 1717.2 1601 l 1,20,-1
 1663.2 1601 l 2,21,22
 1555.2 1601 1555.2 1601 1488.6 1534 c 0,23,24
 1421.1 1467 1421.1 1467 1398.6 1337 c 2,25,-1
 1357.2 1100 l 1,26,27
 1257.3 1171 1257.3 1171 1152 1206 c 0,28,29
 1046.7 1241 1046.7 1241 935.1 1241 c 0,30,31
 728.1 1241 728.1 1241 594 1112 c 0,32,33
 459 984 459 984 417.6 745 c 0,34,35
 376.2 508 376.2 508 461.7 379 c 0,36,37
 547.2 250 547.2 250 746.1 250 c 0,38,39
 800.1 250 800.1 250 846.9 258 c 0,40,41
 894.6 265 894.6 265 935.1 281 c 1,42,-1
 985.5 571 l 1,43,-1
 774 571 l 1,44,-1
 819 829 l 1,45,-1
 1359 829 l 1,46,-1
 1233.9 111 l 1,0,1
EndSplineSet
EndChar
StartChar: uni0194
Encoding: 404 404 404
Width: 1461
Flags: W
TeX: 0 0 0 0
Fore
781.2 818 m 1,0,-1
 1272.6 1493 l 1,1,-1
 1625.4 1493 l 1,2,-1
 902.7 497 l 1,3,-1
 936.9 405 l 2,4,5
 1015.2 198 1015.2 198 1026.9 99 c 128,-1,6
 1039.5 0 1039.5 0 1039.5 -44 c 128,-1,0
 1039.5 -88 1039.5 -88 1035 -114 c 0,1,2
 1009.8 -267 1009.8 -267 910.8 -349 c 128,-1,3
 811.8 -430 811.8 -430 562.5 -430 c 128,-1,4
 314.1 -430 314.1 -430 243 -349 c 0,5,6
 192.6 -291 192.6 -291 192.6 -196 c 0,0,0
 192.6 -158 192.6 -158 202.5 -105 c 128,-1,1
 212.4 -52 212.4 -52 270.9 73 c 128,-1,2
 329.4 198 329.4 198 479.7 405 c 2,3,-1
 547.2 497 l 1,4,-1
 172.8 1493 l 1,5,-1
 525.6 1493 l 1,6,-1
 781.2 818 l 1,0,-1
649.8 150 m 2,7,8
 538.2 -4 538.2 -4 524.7 -45 c 0,9,10
 504 -106 504 -106 504 -123 c 128,-1,0
 504 -139 504 -139 523.8 -167 c 128,-1,1
 542.7 -195 542.7 -195 603.9 -195 c 128,-1,0
 664.2 -195 664.2 -195 697.5 -164 c 128,-1,1
 729.9 -133 729.9 -133 732.6 -109 c 128,-1,2
 735.3 -86 735.3 -86 735.3 -44 c 128,-1,0
 735.3 -3 735.3 -3 678.6 150 c 2,1,-1
 668.7 175 l 1,2,-1
 649.8 150 l 2,7,8
EndSplineSet
EndChar
StartChar: uni0195
Encoding: 405 405 405
Width: 1926
Flags: W
TeX: 117 0 0 0
Fore
799.2 520 m 2,0,1
 825.3 667 825.3 667 828.9 722 c 0,2,3
 832.5 777 832.5 777 822.6 803 c 0,4,5
 810 838 810 838 781.2 858 c 0,6,7
 751.5 877 751.5 877 710.1 877 c 0,8,9
 609.3 877 609.3 877 537.3 790 c 0,10,11
 464.4 704 464.4 704 437.4 551 c 2,12,-1
 341.1 0 l 1,13,-1
 18.9004 0 l 1,14,-1
 290.7 1556 l 1,15,-1
 612.9 1556 l 1,16,-1
 508.5 956 l 1,17,18
 598.5 1054 598.5 1054 688.5 1100 c 0,19,20
 778.5 1147 778.5 1147 877.5 1147 c 0,21,22
 1052.1 1147 1052.1 1147 1121.4 1028 c 0,23,24
 1191.6 909 1191.6 909 1152 682 c 2,25,-1
 1112.4 460 l 2,26,27
 1083.6 291 1083.6 291 1089.9 279 c 0,28,29
 1117.8 227 1117.8 227 1160.1 231 c 2,30,-1
 1179 233 l 2,31,32
 1285.2 233 1285.2 233 1376.1 330 c 0,33,34
 1459.8 418 1459.8 418 1484.1 560 c 0,35,36
 1503 667 1503 667 1471.5 782 c 0,37,38
 1449.9 866 1449.9 866 1386.9 938 c 1,39,-1
 1417.5 1120 l 1,40,41
 1541.7 1117 1541.7 1117 1619.1 1077 c 0,42,43
 1654.2 1059 1654.2 1059 1697.4 1027 c 0,44,45
 1747.8 990 1747.8 990 1772.1 923 c 0,46,47
 1773.9 918 1773.9 918 1800 835 c 0,48,49
 1834.2 727 1834.2 727 1807.2 569 c 0,50,51
 1762.2 315 1762.2 315 1597.5 158 c 0,52,53
 1431 0 1431 0 1212.3 0 c 2,54,-1
 1089 -2 l 2,55,56
 907.2 -5 907.2 -5 828 116 c 0,57,58
 749.7 236 749.7 236 788.4 460 c 2,59,-1
 799.2 520 l 2,0,1
EndSplineSet
EndChar
StartChar: uni0196
Encoding: 406 406 406
Width: 802
Flags: W
TeX: 117 0 0 0
AnchorPoint: "above" 475.519 1520 basechar 0
Fore
646.2 1493 m 1,0,-1
 482.4 555 l 2,1,2
 459.9 425 459.9 425 503.1 358 c 0,3,4
 546.3 291 546.3 291 654.3 291 c 2,5,-1
 708.3 291 l 1,6,-1
 657.9 0 l 1,7,-1
 587.7 0 l 2,8,9
 311.4 0 311.4 0 198.9 138 c 0,10,11
 87.2998 276 87.2998 276 135.9 555 c 2,12,-1
 299.7 1493 l 1,13,-1
 646.2 1493 l 1,0,-1
EndSplineSet
EndChar
StartChar: uni0197
Encoding: 407 407 407
Width: 717
Flags: W
TeX: 117 0 0 0
AnchorPoint: "above" 475.519 1520 basechar 0
Fore
311.4 1493 m 1,0,-1
 657.9 1493 l 1,1,-1
 550.8 881 l 1,2,-1
 731.7 881 l 1,3,-1
 686.7 621 l 1,4,-1
 505.8 621 l 1,5,-1
 396.9 0 l 1,6,-1
 50.4004 0 l 1,7,-1
 159.3 621 l 1,8,-1
 -12.5996 621 l 1,9,-1
 32.4004 881 l 1,10,-1
 204.3 881 l 1,11,-1
 311.4 1493 l 1,0,-1
EndSplineSet
EndChar
StartChar: uni0198
Encoding: 408 408 408
Width: 1428
Flags: W
TeX: 117 0 0 0
AnchorPoint: "below" 662.194 0 basechar 0
AnchorPoint: "above" 738.206 1520 basechar 0
Fore
1565.1 1222 m 1,0,-1
 1379.7 1055 l 1,1,-1
 1355.4 1091 l 2,2,3
 1304.1 1167 1304.1 1167 1248.3 1162 c 0,4,5
 1179 1155 1179 1155 1074.6 1059 c 2,6,-1
 777.6 786 l 1,7,-1
 1353.6 0 l 1,8,-1
 919.8 0 l 1,9,-1
 487.8 588 l 1,10,-1
 385.2 0 l 1,11,-1
 38.7002 0 l 1,12,-1
 299.7 1493 l 1,13,-1
 646.2 1493 l 1,14,-1
 550.8 948 l 1,15,-1
 979.2 1340 l 2,16,17
 1140.3 1487 1140.3 1487 1259.1 1494 c 0,18,19
 1369.8 1500 1369.8 1500 1462.5 1369 c 2,20,-1
 1565.1 1222 l 1,0,-1
EndSplineSet
EndChar
StartChar: uni0199
Encoding: 409 409 409
Width: 1225
Flags: W
TeX: 117 0 0 0
AnchorPoint: "above" 450.206 1520 basechar 0
Fore
465.3 709 m 1,0,-1
 907.2 1120 l 1,1,-1
 1281.6 1120 l 1,2,-1
 700.2 606 l 1,3,-1
 1125 0 l 1,4,-1
 734.4 0 l 1,5,-1
 423 467 l 1,6,-1
 341.1 0 l 1,7,-1
 18.9004 0 l 1,8,-1
 209.7 1094 l 2,9,10
 249.3 1317 249.3 1317 369 1438 c 0,11,12
 486.9 1556 486.9 1556 671.4 1556 c 2,13,-1
 924.3 1556 l 1,14,-1
 883.8 1321 l 1,15,-1
 734.4 1321 l 2,16,17
 643.5 1321 643.5 1321 600.3 1275 c 0,18,19
 556.2 1229 556.2 1229 531.9 1094 c 2,20,-1
 465.3 709 l 1,0,-1
EndSplineSet
EndChar
StartChar: uni019A
Encoding: 410 410 410
Width: 664
Flags: W
TeX: 117 0 0 0
AnchorPoint: "above" 469.107 1520 basechar 0
Fore
309.6 1556 m 1,0,-1
 631.8 1556 l 1,1,-1
 513.9 881 l 1,2,-1
 673.2 881 l 1,3,-1
 627.3 621 l 1,4,-1
 468 621 l 1,5,-1
 360 0 l 1,6,-1
 37.7998 0 l 1,7,-1
 145.8 621 l 1,8,-1
 -18.9004 621 l 1,9,-1
 27 881 l 1,10,-1
 191.7 881 l 1,11,-1
 309.6 1556 l 1,0,-1
EndSplineSet
EndChar
StartChar: uni019B
Encoding: 411 411 411
Width: 1090
Flags: W
TeX: 117 0 0 0
AnchorPoint: "above" 670.707 1520 basechar 0
Fore
-81 0 m 1,0,-1
 411.3 1020 l 1,1,-1
 378 1229 l 1,2,-1
 74.7002 1128 l 1,3,-1
 63.9004 1257 l 1,4,-1
 359.1 1354 l 1,5,-1
 326.7 1556 l 1,6,-1
 648.9 1556 l 1,7,-1
 665.1 1455 l 1,8,-1
 978.3 1554 l 1,9,-1
 987.3 1425 l 1,10,-1
 685.8 1328 l 1,11,-1
 900 0 l 1,12,-1
 577.8 0 l 1,13,-1
 495 514 l 1,14,-1
 241.2 0 l 1,15,-1
 -81 0 l 1,0,-1
EndSplineSet
EndChar
StartChar: uni019C
Encoding: 412 412 412
Width: 1920
Flags: W
TeX: 117 0 0 0
Fore
743.4 186 m 1,0,1
 663.3 82 663.3 82 569.7 28 c 128,-1,2
 476.1 -27 476.1 -27 375.3 -27 c 0,3,4
 211.5 -27 211.5 -27 131.4 92 c 128,-1,5
 59.4004 199 59.4004 199 101.7 438 c 2,6,-1
 286.2 1493 l 1,7,-1
 610.2 1493 l 1,8,-1
 442.8 536 l 1,9,10
 439.2 523 439.2 523 436.5 509 c 128,-1,11
 433.8 495 433.8 495 429.3 469 c 0,12,13
 408.6 350 408.6 350 430.2 296 c 128,-1,14
 452.7 243 452.7 243 522.9 243 c 0,15,16
 614.7 243 614.7 243 679.5 327 c 128,-1,17
 743.4 411 743.4 411 773.1 570 c 1,18,-1
 935.1 1493 l 1,19,-1
 1259.1 1493 l 1,20,-1
 1091.7 536 l 2,21,22
 1059.3 350 1059.3 350 1078.2 296 c 128,-1,23
 1098 243 1098 243 1171.8 243 c 0,24,25
 1264.5 243 1264.5 243 1329.3 328 c 128,-1,26
 1395 413 1395 413 1422 569 c 2,27,-1
 1584 1493 l 1,28,-1
 1908 1493 l 1,29,-1
 1647 0 l 1,30,-1
 1323 0 l 1,31,-1
 1350.9 164 l 1,32,33
 1275.3 69 1275.3 69 1189.8 21 c 128,-1,34
 1104.3 -27 1104.3 -27 1011.6 -27 c 0,35,36
 907.2 -27 907.2 -27 837 29 c 128,-1,37
 766.8 85 766.8 85 743.4 186 c 1,0,1
EndSplineSet
EndChar
StartChar: uni019D
Encoding: 413 413 413
Width: 1542
Flags: W
TeX: 117 0 0 0
AnchorPoint: "above" 962.28 1520 basechar 0
Fore
99.9004 145 m 2,0,-1
 335.7 1493 l 1,1,-1
 722.7 1493 l 1,2,-1
 1032.3 469 l 1,3,-1
 1211.4 1493 l 1,4,-1
 1539.9 1493 l 1,5,-1
 1278.9 0 l 1,6,-1
 891.9 0 l 1,7,-1
 582.3 1024 l 1,8,-1
 428.4 145 l 2,9,10
 386.1 -97 386.1 -97 291.6 -215 c 0,11,12
 266.4 -247 266.4 -247 236.7 -272 c 0,13,14
 76.5 -410 76.5 -410 -199.8 -410 c 2,15,-1
 -270 -410 l 1,16,-1
 -218.7 -119 l 1,17,-1
 -164.7 -119 l 2,18,19
 -56.7002 -119 -56.7002 -119 9.90039 -52 c 0,20,21
 77.4004 15 77.4004 15 99.9004 145 c 2,0,-1
EndSplineSet
EndChar
StartChar: uni019F
Encoding: 415 415 415
Width: 1566
Flags: W
TeX: 117 0 0 0
Fore
918.9 1520 m 0,0,1
 1242.9 1520 1242.9 1520 1389.6 1314 c 0,2,3
 1537.2 1108 1537.2 1108 1474.2 745 c 0,4,5
 1411.2 383 1411.2 383 1191.6 177 c 0,6,7
 971.1 -29 971.1 -29 647.1 -29 c 0,8,9
 324 -29 324 -29 176.4 177 c 0,10,11
 28.7998 383 28.7998 383 91.7998 745 c 0,12,13
 154.8 1108 154.8 1108 375.3 1314 c 0,14,15
 595.8 1520 595.8 1520 918.9 1520 c 0,0,1
869.4 1241 m 0,16,17
 711 1241 711 1241 601.2 1111 c 0,18,19
 511.2 1005 511.2 1005 468 829 c 1,20,-1
 1128.6 829 l 1,21,22
 1145.7 1005 1145.7 1005 1093.5 1111 c 0,23,24
 1028.7 1241 1028.7 1241 869.4 1241 c 0,16,17
433.8 571 m 1,25,26
 434.7 457 434.7 457 473.4 380 c 0,27,28
 538.2 250 538.2 250 696.6 250 c 0,29,30
 855.9 250 855.9 250 965.7 380 c 0,31,32
 1030.5 457 1030.5 457 1071.9 571 c 1,33,-1
 433.8 571 l 1,25,26
EndSplineSet
EndChar
StartChar: uni01A2
Encoding: 418 418 418
Width: 2052
Flags: W
TeX: 117 0 0 0
Fore
869.4 1241 m 0,0,1
 711 1241 711 1241 601.2 1111 c 0,2,3
 491.4 981 491.4 981 450 745 c 0,4,5
 408.6 510 408.6 510 473.4 380 c 0,6,7
 538.2 250 538.2 250 696.6 250 c 0,8,9
 855.9 250 855.9 250 965.7 380 c 1,10,-1
 1093.5 1111 l 1,11,12
 1028.7 1241 1028.7 1241 869.4 1241 c 0,0,1
1436.4 0 m 1,13,-1
 1600.2 938 l 2,14,15
 1623.6 1068 1623.6 1068 1579.5 1135 c 0,16,17
 1536.3 1202 1536.3 1202 1428.3 1202 c 2,18,-1
 1370.7 1202 l 1,19,-1
 1191.6 177 l 1,20,21
 971.1 -29 971.1 -29 647.1 -29 c 0,22,23
 324 -29 324 -29 176.4 177 c 0,24,25
 28.7998 383 28.7998 383 91.7998 745 c 0,26,27
 154.8 1108 154.8 1108 375.3 1314 c 0,28,29
 595.8 1520 595.8 1520 918.9 1520 c 0,30,31
 1035.9 1520 1035.9 1520 1130.4 1493 c 2,32,-1
 1494.9 1493 l 2,33,34
 1773.9 1493 1773.9 1493 1883.7 1355 c 0,35,36
 1995.3 1215 1995.3 1215 1946.7 938 c 2,37,-1
 1782.9 0 l 1,38,-1
 1436.4 0 l 1,13,-1
EndSplineSet
EndChar
StartChar: uni01A3
Encoding: 419 419 419
Width: 1773
Flags: W
TeX: 117 0 0 0
Fore
729 891 m 0,0,1
 621.9 891 621.9 891 550.8 806 c 0,2,3
 478.8 720 478.8 720 450.9 559 c 0,4,5
 423 398 423 398 464.4 312 c 0,6,7
 505.8 227 505.8 227 612.9 227 c 0,8,9
 718.2 227 718.2 227 788.4 312 c 1,10,-1
 874.8 806 l 1,11,12
 834.3 891 834.3 891 729 891 c 0,0,1
1127.7 -442 m 1,13,-1
 1319.4 658 l 2,14,15
 1343.7 793 1343.7 793 1317.6 839 c 0,16,17
 1291.5 885 1291.5 885 1199.7 885 c 2,18,-1
 1134 885 l 1,19,-1
 1001.7 127 l 1,20,21
 828 -29 828 -29 567.9 -29 c 0,22,23
 306.9 -29 306.9 -29 187.2 127 c 0,24,25
 66.5996 283 66.5996 283 115.2 559 c 0,26,27
 163.8 835 163.8 835 338.4 991 c 0,28,29
 512.1 1147 512.1 1147 773.1 1147 c 0,30,31
 882 1147 882 1147 965.7 1120 c 2,32,-1
 1343.7 1120 l 2,33,34
 1528.2 1120 1528.2 1120 1604.7 1002 c 0,35,36
 1681.2 883 1681.2 883 1641.6 658 c 2,37,-1
 1449.9 -442 l 1,38,-1
 1127.7 -442 l 1,13,-1
EndSplineSet
EndChar
StartChar: uni01A4
Encoding: 420 420 420
Width: 1440
Flags: W
TeX: 117 0 0 0
AnchorPoint: "above" 924.615 1520 basechar 0
Fore
687.6 1214 m 1,0,-1
 614.7 797 l 1,1,-1
 806.4 797 l 2,2,3
 907.2 797 907.2 797 971.1 852 c 0,4,5
 1035.9 906 1035.9 906 1053 1006 c 0,6,7
 1071 1106 1071 1106 1025.1 1160 c 0,8,9
 980.1 1214 980.1 1214 879.3 1214 c 2,10,-1
 687.6 1214 l 1,0,-1
343.8 1231 m 1,11,12
 278.1 1231 278.1 1231 272.7 1230 c 0,13,14
 231.3 1226 231.3 1226 215.1 1210 c 0,15,16
 181.8 1176 181.8 1176 171 1126 c 0,17,18
 167.4 1112 167.4 1112 162 1079 c 1,19,-1
 -67.5 1079 l 1,20,-1
 -54 1156 l 2,21,22
 -30.5996 1294 -30.5996 1294 24.2998 1359 c 0,23,24
 45 1383 45 1383 79.2002 1412 c 0,25,26
 157.5 1475 157.5 1475 285.3 1488 c 0,27,28
 331.2 1493 331.2 1493 389.7 1493 c 2,29,-1
 964.8 1493 l 2,30,31
 1221.3 1493 1221.3 1493 1336.5 1366 c 0,32,33
 1451.7 1240 1451.7 1240 1410.3 1006 c 0,34,35
 1369.8 771 1369.8 771 1210.5 644 c 0,36,37
 1051.2 518 1051.2 518 794.7 518 c 2,38,-1
 566.1 518 l 1,39,-1
 475.2 0 l 1,40,-1
 128.7 0 l 1,41,-1
 343.8 1231 l 1,11,12
EndSplineSet
EndChar
StartChar: uni01A5
Encoding: 421 421 421
Width: 1319
Flags: W
TeX: 117 0 0 0
Fore
587.7 1198 m 2,0,-1
 545.4 956 l 1,1,2
 629.1 1054 629.1 1054 718.2 1100 c 0,3,4
 807.3 1147 807.3 1147 912.6 1147 c 0,5,6
 1098.9 1147 1098.9 1147 1189.8 982 c 0,7,8
 1280.7 818 1280.7 818 1235.7 559 c 0,9,10
 1189.8 300 1189.8 300 1042.2 136 c 0,11,12
 893.7 -29 893.7 -29 707.4 -29 c 0,13,14
 602.1 -29 602.1 -29 529.2 18 c 0,15,16
 456.3 64 456.3 64 406.8 162 c 1,17,-1
 303.3 -426 l 1,18,-1
 -18.9004 -426 l 1,19,-1
 265.5 1198 l 2,20,21
 295.2 1366 295.2 1366 405 1468 c 0,22,23
 498.6 1556 498.6 1556 704.7 1556 c 2,24,-1
 951.3 1556 l 1,25,-1
 909.9 1321 l 1,26,-1
 731.7 1321 l 2,27,28
 663.3 1321 663.3 1321 631.8 1294 c 0,29,30
 599.4 1266 599.4 1266 587.7 1198 c 2,0,-1
747.9 887 m 0,31,32
 644.4 887 644.4 887 574.2 802 c 0,33,34
 504 718 504 718 476.1 559 c 0,35,36
 448.2 400 448.2 400 488.7 316 c 0,37,38
 529.2 231 529.2 231 632.7 231 c 0,39,40
 736.2 231 736.2 231 805.5 315 c 0,41,42
 874.8 399 874.8 399 902.7 559 c 0,43,44
 930.6 719 930.6 719 891 803 c 0,45,46
 851.4 887 851.4 887 747.9 887 c 0,31,32
EndSplineSet
EndChar
StartChar: uni01A6
Encoding: 422 422 422
Width: 1359
Flags: W
TeX: 117 0 0 0
Fore
468.9 258 m 1,0,-1
 423.9 0 l 1,1,-1
 77.4004 0 l 1,2,-1
 338.4 1493 l 1,3,-1
 684.9 1493 l 1,4,-1
 639.9 1233 l 1,5,-1
 868.5 1233 l 2,6,7
 1125 1233 1125 1233 1239.3 1106 c 0,8,9
 1354.5 980 1354.5 980 1314 745 c 0,10,11
 1272.6 511 1272.6 511 1113.3 384 c 0,12,13
 1034.1 322 1034.1 322 931.5 290 c 1,14,-1
 976.5 -74 l 2,15,16
 986.4 -151 986.4 -151 1017 -178 c 0,17,18
 1049.4 -207 1049.4 -207 1131.3 -207 c 2,19,-1
 1232.1 -207 l 1,20,-1
 1190.7 -442 l 1,21,-1
 1004.4 -442 l 2,22,23
 864.9 -442 864.9 -442 792.9 -368 c 0,24,25
 726.3 -299 726.3 -299 689.4 -106 c 2,26,-1
 648 111 l 2,27,28
 629.1 212 629.1 212 624.6 218 c 0,29,30
 603.9 247 603.9 247 561.6 258 c 2,31,-1
 468.9 258 l 1,0,-1
591.3 956 m 1,32,-1
 517.5 537 l 1,33,-1
 709.2 537 l 2,34,35
 810 537 810 537 874.8 592 c 0,36,37
 938.7 646 938.7 646 956.7 745 c 0,38,39
 973.8 846 973.8 846 928.8 901 c 0,40,41
 883.8 956 883.8 956 783 956 c 2,42,-1
 591.3 956 l 1,32,-1
EndSplineSet
EndChar
StartChar: uni01A7
Encoding: 423 423 423
Width: 1327
Flags: W
TeX: 117 0 0 0
AnchorPoint: "above" 768.193 1520 basechar 0
Fore
258.3 1446 m 1,0,-1
 203.4 1130 l 1,1,2
 323.1 1185 323.1 1185 433.8 1213 c 0,3,4
 543.6 1241 543.6 1241 637.2 1241 c 0,5,6
 761.4 1241 761.4 1241 814.5 1203 c 128,-1,7
 867.6 1165 867.6 1165 853.2 1085 c 0,8,9
 842.4 1025 842.4 1025 796.5 992 c 0,10,11
 750.6 958 750.6 958 641.7 934 c 2,12,-1
 487.8 901 l 2,13,14
 255.6 851 255.6 851 143.1 749 c 128,-1,15
 30.5996 647 30.5996 647 -2.7002 459 c 0,16,17
 -45.9004 212 -45.9004 212 64.7998 92 c 0,18,19
 175.5 -29 175.5 -29 446.4 -29 c 0,20,21
 574.2 -29 574.2 -29 708.3 -2 c 0,22,23
 841.5 25 841.5 25 979.2 78 c 1,24,-1
 1035.9 403 l 1,25,26
 894.6 327 894.6 327 767.7 288 c 0,27,28
 640.8 250 640.8 250 529.2 250 c 0,29,30
 415.8 250 415.8 250 362.7 292 c 128,-1,31
 309.6 334 309.6 334 323.1 412 c 0,32,33
 335.7 482 335.7 482 383.4 520 c 128,-1,34
 431.1 558 431.1 558 558 588 c 2,35,-1
 698.4 621 l 2,36,37
 908.1 669 908.1 669 1019.7 774 c 128,-1,38
 1131.3 879 1131.3 879 1162.8 1057 c 0,39,40
 1201.5 1280 1201.5 1280 1092.6 1400 c 0,41,42
 984.6 1520 984.6 1520 741.6 1520 c 0,43,44
 630.9 1520 630.9 1520 510.3 1502 c 0,45,46
 389.7 1483 389.7 1483 258.3 1446 c 1,0,-1
EndSplineSet
EndChar
StartChar: uni01A8
Encoding: 424 424 424
Width: 1097
Flags: W
TeX: 117 0 0 0
AnchorPoint: "above" 644.666 1147 basechar 0
Fore
187.2 1085 m 1,0,-1
 139.5 813 l 1,1,2
 252 861 252 861 351.9 885 c 0,3,4
 452.7 909 452.7 909 538.2 909 c 0,5,6
 630 909 630 909 670.5 884 c 0,7,8
 710.1 858 710.1 858 701.1 805 c 0,9,10
 693 762 693 762 655.2 739 c 0,11,12
 618.3 716 618.3 716 528.3 705 c 1,13,-1
 470.7 696 l 2,14,15
 216.9 661 216.9 661 117 581 c 0,16,17
 18 501 18 501 -12.5996 330 c 0,18,19
 -43.2002 151 -43.2002 151 59.4004 61 c 0,20,21
 162.9 -29 162.9 -29 398.7 -29 c 0,22,23
 498.6 -29 498.6 -29 608.4 -12 c 0,24,25
 718.2 6 718.2 6 836.1 41 c 1,26,-1
 883.8 313 l 1,27,28
 778.5 261 778.5 261 673.2 235 c 0,29,30
 567 209 567 209 462.6 209 c 0,31,32
 368.1 209 368.1 209 325.8 238 c 0,33,34
 282.6 267 282.6 267 292.5 324 c 0,35,36
 301.5 372 301.5 372 338.4 396 c 0,37,38
 375.3 419 375.3 419 475.2 432 c 2,39,-1
 533.7 440 l 2,40,41
 754.2 470 754.2 470 854.1 551 c 0,42,43
 954.9 632 954.9 632 983.7 797 c 0,44,45
 1015.2 975 1015.2 975 920.7 1061 c 0,46,47
 825.3 1147 825.3 1147 598.5 1147 c 0,48,49
 509.4 1147 509.4 1147 408.6 1132 c 128,-1,50
 307.8 1117 307.8 1117 187.2 1085 c 1,0,-1
EndSplineSet
EndChar
StartChar: uni01AA
Encoding: 426 426 426
Width: 1017
Flags: W
TeX: 117 0 0 0
Fore
426.6 1554 m 1,31,32
 528.3 1554 l 2,30,-1
 712.8 1554 712.8 1554 789.3 1436 c 0,28,29
 853.2 1337 853.2 1337 838.8 1180 c 1,26,27
 943.2 1179 943.2 1179 992.7 1179 c 1,24,25
 955.8 968 l 1,23,-1
 804.6 968 l 1,22,-1
 620.1 -86 l 2,21,-1
 608.4 -154 608.4 -154 630.9 -182 c 0,19,20
 653.4 -209 653.4 -209 721.8 -209 c 2,17,18
 900 -209 l 1,16,-1
 858.6 -444 l 1,15,-1
 612 -444 l 2,14,-1
 419.4 -444 419.4 -444 342.9 -356 c 0,12,13
 266.4 -269 266.4 -269 297.9 -86 c 2,10,11
 482.4 968 l 1,9,-1
 295.2 969 l 2,8,-1
 18 970 18 970 63 1245 c 0,6,7
 108.9 1528 108.9 1528 369 1553 c 1,4,5
 369 1554 l 1,3,-1
 375.3 1554 l 1,2,-1
 426.6 1554 l 1,31,32
514.8 1180 m 1,33,34
 518.4 1244 518.4 1244 502.2 1273 c 0,42,43
 476.1 1319 476.1 1319 384.3 1319 c 2,40,41
 344.7 1319 l 2,39,-1
 259.2 1312 259.2 1312 250.2 1254 c 0,37,38
 238.5 1179 238.5 1179 332.1 1179 c 0,35,36
 389.7 1179 389.7 1179 514.8 1180 c 1,33,34
EndSplineSet
EndChar
StartChar: uni01AB
Encoding: 427 427 427
Width: 881
Flags: W
TeX: 117 0 0 0
AnchorPoint: "above" 533.391 1520 basechar 0
Fore
671.4 1438 m 1,0,-1
 615.6 1120 l 1,1,-1
 947.7 1120 l 1,2,-1
 902.7 864 l 1,3,-1
 570.6 864 l 1,4,-1
 487.8 389 l 2,5,6
 474.3 311 474.3 311 496.8 284 c 0,7,8
 520.2 256 520.2 256 603 256 c 2,9,-1
 768.6 256 l 1,10,-1
 723.6 0 l 2,11,12
 682.2 -210 682.2 -210 569.7 -324 c 0,13,14
 451.8 -442 451.8 -442 267.3 -442 c 2,15,-1
 108 -442 l 1,16,-1
 149.4 -207 l 1,17,-1
 205.2 -207 l 2,18,19
 297 -207 297 -207 339.3 -161 c 0,20,21
 378.9 -118 378.9 -118 401.4 1 c 1,22,23
 248.4 11 248.4 11 192.6 88 c 0,24,25
 128.7 177 128.7 177 165.6 389 c 2,26,-1
 248.4 864 l 1,27,-1
 88.2002 864 l 1,28,-1
 133.2 1120 l 1,29,-1
 293.4 1120 l 1,30,-1
 349.2 1438 l 1,31,-1
 671.4 1438 l 1,0,-1
EndSplineSet
EndChar
StartChar: uni01AC
Encoding: 428 428 428
Width: 1302
Flags: W
TeX: 117 0 0 0
AnchorPoint: "above" 820.219 1520 basechar 0
Fore
710.1 1493 m 1,0,-1
 1422.9 1493 l 1,1,-1
 1372.5 1202 l 1,2,-1
 927 1202 l 1,3,-1
 716.4 0 l 1,4,-1
 369.9 0 l 1,5,-1
 580.5 1202 l 1,6,-1
 577.8 1202 l 2,7,8
 440.1 1202 440.1 1202 389.7 1164 c 0,9,10
 339.3 1126 339.3 1126 320.4 1021 c 2,11,-1
 312.3 972 l 1,12,-1
 66.5996 972 l 1,13,-1
 97.2002 1149 l 2,14,15
 128.7 1330 128.7 1330 229.5 1412 c 0,16,17
 330.3 1493 330.3 1493 522.9 1493 c 2,18,-1
 710.1 1493 l 1,0,-1
EndSplineSet
EndChar
StartChar: uni01AD
Encoding: 429 429 429
Width: 881
Flags: W
TeX: 117 0 0 0
AnchorPoint: "above" 514.718 1755 basechar 0
Fore
580.5 1198 m 2,0,-1
 566.1 1120 l 1,1,-1
 898.2 1120 l 1,2,-1
 854.1 864 l 1,3,-1
 522 864 l 1,4,-1
 438.3 389 l 2,5,6
 424.8 311 424.8 311 448.2 284 c 0,7,8
 471.6 256 471.6 256 554.4 256 c 2,9,-1
 720 256 l 1,10,-1
 675 0 l 1,11,-1
 398.7 0 l 2,12,13
 207.9 0 207.9 0 143.1 88 c 0,14,15
 79.2002 177 79.2002 177 116.1 389 c 2,16,-1
 199.8 864 l 1,17,-1
 39.5996 864 l 1,18,-1
 83.7002 1120 l 1,19,-1
 243.9 1120 l 1,20,-1
 258.3 1198 l 2,21,22
 287.1 1366 287.1 1366 396.9 1468 c 0,23,24
 491.4 1556 491.4 1556 696.6 1556 c 2,25,-1
 943.2 1556 l 1,26,-1
 902.7 1321 l 1,27,-1
 724.5 1321 l 2,28,29
 656.1 1321 656.1 1321 623.7 1294 c 0,30,31
 592.2 1266 592.2 1266 580.5 1198 c 2,0,-1
EndSplineSet
EndChar
StartChar: uni01AE
Encoding: 430 430 430
Width: 1257
Flags: W
TeX: 117 0 0 0
AnchorPoint: "above" 811.081 1520 basechar 0
Fore
570.6 1202 m 1,0,-1
 124.2 1202 l 1,1,-1
 175.5 1493 l 1,2,-1
 1413.9 1493 l 1,3,-1
 1362.6 1202 l 1,4,-1
 917.1 1202 l 1,5,-1
 732.6 145 l 2,6,7
 710.1 15 710.1 15 753.3 -52 c 0,8,9
 797.4 -119 797.4 -119 905.4 -119 c 2,10,-1
 959.4 -119 l 1,11,-1
 908.1 -410 l 1,12,-1
 837.9 -410 l 2,13,14
 561.6 -410 561.6 -410 449.1 -272 c 0,15,16
 337.5 -134 337.5 -134 386.1 145 c 2,17,-1
 570.6 1202 l 1,0,-1
EndSplineSet
EndChar
StartChar: uni01B1
Encoding: 433 433 433
Width: 1417
Flags: W
TeX: 117 0 0 0
Fore
1191.6 1224 m 1,0,-1
 1453.5 1224 l 1,1,-1
 1498.5 1480 l 1,2,-1
 950.4 1480 l 1,3,-1
 899.1 1189 l 1,4,5
 997.2 1103 997.2 1103 1034.1 972 c 0,6,7
 1070.1 840 1070.1 840 1041.3 675 c 0,8,9
 1006.2 472 1006.2 472 894.6 356 c 0,10,11
 782.1 239 782.1 239 621.9 239 c 0,12,13
 462.6 239 462.6 239 392.4 356 c 0,14,15
 321.3 472 321.3 472 356.4 675 c 0,16,17
 385.2 839 385.2 839 468 972 c 0,18,19
 550.8 1104 550.8 1104 678.6 1189 c 1,20,-1
 729.9 1480 l 1,21,-1
 181.8 1480 l 1,22,-1
 136.8 1224 l 1,23,-1
 398.7 1224 l 1,24,25
 263.7 1103 263.7 1103 184.5 964 c 0,26,27
 105.3 825 105.3 825 76.5 661 c 0,28,29
 22.5 348 22.5 348 158.4 160 c 0,30,31
 294.3 -29 294.3 -29 575.1 -29 c 0,32,33
 856.8 -29 856.8 -29 1059.3 160 c 0,34,35
 1261.8 348 1261.8 348 1315.8 661 c 0,36,37
 1344.6 825 1344.6 825 1314 964 c 0,38,39
 1283.4 1103 1283.4 1103 1191.6 1224 c 1,0,-1
EndSplineSet
EndChar
StartChar: uni01B2
Encoding: 434 434 434
Width: 1499
Flags: W
TeX: 117 0 0 0
AnchorPoint: "above" 475.519 1520 basechar 0
Fore
657.9 0 m 0,0,-1
 587.7 0 l 2,1,2
 311.4 0 311.4 0 198.9 138 c 0,3,4
 87.2998 276 87.2998 276 135.9 555 c 2,5,-1
 299.7 1493 l 1,6,-1
 646.2 1493 l 1,7,-1
 482.4 555 l 2,8,9
 459.9 425 459.9 425 503.1 358 c 128,-1,10
 546.3 291 546.3 291 654.3 291 c 2,11,-1
 708.3 291 l 0,12,13
 868.5 291 868.5 291 981 408 c 0,14,15
 1109.7 542 1109.7 542 1133.1 675 c 0,16,17
 1169.1 878 1169.1 878 1125.9 972 c 0,18,19
 1050.3 1134 1050.3 1134 916.2 1229 c 1,20,-1
 941.4 1374 l 1,21,-1
 1184.4 1374 l 1,22,23
 1332 1237 1332 1237 1405.8 964 c 0,24,25
 1439.1 841 1439.1 841 1407.6 661 c 0,26,27
 1363.5 408 1363.5 408 1145.7 212 c 0,28,29
 910.8 0 910.8 0 657.9 0 c 0,0,-1
EndSplineSet
EndChar
StartChar: uni01B3
Encoding: 435 435 435
Width: 1334
Flags: W
TeX: 117 0 0 0
AnchorPoint: "above" 799.449 1527 basechar 0
Fore
958.5 1303 m 2,0,1
 1089 1476 1089 1476 1215 1511 c 0,2,3
 1326.6 1542 1326.6 1542 1445.4 1439 c 2,4,-1
 1578.6 1325 l 1,5,-1
 1421.1 1125 l 1,6,-1
 1389.6 1154 l 2,7,8
 1328.4 1209 1328.4 1209 1287 1196 c 0,9,10
 1242 1182 1242 1182 1149.3 1061 c 2,11,-1
 818.1 629 l 1,12,-1
 707.4 0 l 1,13,-1
 360.9 0 l 1,14,-1
 471.6 629 l 1,15,-1
 110.7 1493 l 1,16,-1
 489.6 1493 l 1,17,-1
 702 961 l 1,18,-1
 958.5 1303 l 2,0,1
EndSplineSet
EndChar
StartChar: uni01B4
Encoding: 436 436 436
Width: 1336
Flags: W
TeX: 117 0 0 0
AnchorPoint: "above" 729.39 1147 basechar 0
AnchorPoint: "below" 453.506 -430 basechar 0
Fore
1098.9 737 m 1,0,1
 1170.9 872 1170.9 872 1214.1 895 c 0,2,3
 1261.8 920 1261.8 920 1348.2 877 c 2,4,-1
 1442.7 830 l 1,5,-1
 1566.9 1052 l 1,6,-1
 1352.7 1158 l 2,7,8
 1211.4 1229 1211.4 1229 1105.2 1176 c 0,9,10
 971.1 1110 971.1 1110 882 924 c 2,11,-1
 612 360 l 1,12,-1
 474.3 1120 l 1,13,-1
 152.1 1120 l 1,14,-1
 397.8 -43 l 1,15,-1
 383.4 -74 l 1,16,17
 350.1 -149 350.1 -149 306.9 -178 c 0,18,19
 264.6 -207 264.6 -207 182.7 -207 c 2,20,-1
 81.9004 -207 l 1,21,-1
 41.4004 -442 l 1,22,-1
 227.7 -442 l 2,23,24
 367.2 -442 367.2 -442 465.3 -368 c 0,25,26
 561.6 -294 561.6 -294 659.7 -106 c 2,27,-1
 1098.9 737 l 1,0,1
EndSplineSet
EndChar
StartChar: uni01B5
Encoding: 437 437 437
Width: 1336
Flags: W
TeX: 117 0 0 0
AnchorPoint: "above" 780.618 1520 basechar 0
Fore
234 1493 m 1,0,-1
 1363.5 1493 l 1,1,-1
 1323 1260 l 1,2,-1
 974.7 881 l 1,3,-1
 1149.3 881 l 1,4,-1
 1104.3 621 l 1,5,-1
 735.3 621 l 1,6,-1
 432 291 l 1,7,-1
 1173.6 291 l 1,8,-1
 1123.2 0 l 1,9,-1
 -47.7002 0 l 1,10,-1
 -7.2002 233 l 1,11,-1
 349.2 621 l 1,12,-1
 189 621 l 1,13,-1
 234 881 l 1,14,-1
 588.6 881 l 1,15,-1
 883.8 1202 l 1,16,-1
 183.6 1202 l 1,17,-1
 234 1493 l 1,0,-1
EndSplineSet
EndChar
StartChar: uni01B6
Encoding: 438 438 438
Width: 1072
Flags: W
TeX: 117 0 0 0
AnchorPoint: "above" 639.092 1147 basechar 0
Fore
203.4 1120 m 1,0,-1
 1082.7 1120 l 1,1,-1
 1038.6 870 l 1,2,-1
 843.3 682 l 1,3,-1
 954.9 682 l 1,4,-1
 916.2 461 l 1,5,-1
 613.8 461 l 1,6,-1
 400.5 256 l 1,7,-1
 931.5 256 l 1,8,-1
 886.5 0 l 1,9,-1
 -15.2998 0 l 1,10,-1
 28.7998 250 l 1,11,-1
 248.4 461 l 1,12,-1
 143.1 461 l 1,13,-1
 181.8 682 l 1,14,-1
 477.9 682 l 1,15,-1
 666.9 864 l 1,16,-1
 158.4 864 l 1,17,-1
 203.4 1120 l 1,0,-1
EndSplineSet
EndChar
StartChar: uni01B7
Encoding: 439 439 439
Width: 1423
Flags: W
TeX: 117 0 0 0
Fore
615.6 195 m 8,0,1
 756.9 195 756.9 195 839.7 248 c 128,-1,2
 922.5 301 922.5 301 939.6 400 c 0,3,4
 957.6 502 957.6 502 891.9 554 c 0,5,6
 825.3 607 825.3 607 678.6 607 c 2,7,-1
 510.3 607 l 1,8,-1
 553.5 852 l 1,9,-1
 889.2 1202 l 1,10,-1
 218.7 1202 l 1,11,-1
 270 1493 l 1,12,-1
 1369.8 1493 l 1,13,-1
 1325.7 1243 l 1,14,-1
 903.6 809 l 1,15,16
 1021.5 798 1021.5 798 1090.8 777 c 0,17,18
 1198.8 744 1198.8 744 1256.4 632 c 0,19,20
 1308.6 529 1308.6 529 1283.4 386 c 0,21,22
 1244.7 164 1244.7 164 1071.9 48 c 0,23,24
 898.2 -67 898.2 -67 571.5 -67 c 16,25,26
 432.9 -67 432.9 -67 297.9 -37 c 0,27,28
 163.8 -6 163.8 -6 37.7998 55 c 1,29,-1
 88.2002 345 l 1,30,31
 216 271 216 271 348.3 233 c 128,-1,32
 480.6 195 480.6 195 615.6 195 c 8,0,1
EndSplineSet
EndChar
StartChar: uni01B8
Encoding: 440 440 440
Width: 1423
Flags: W
TeX: 117 0 0 0
Fore
620.1 195 m 16,0,1
 754.2 195 754.2 195 900 233 c 128,-1,29
 1045.8 271 1045.8 271 1199.7 345 c 1,27,28
 1148.4 55 l 1,26,-1
 1001.7 -6 1001.7 -6 855.9 -37 c 128,-1,25
 711 -67 711 -67 571.5 -67 c 8,23,24
 244.8 -67 244.8 -67 112.5 48 c 128,-1,22
 -20.7002 164 -20.7002 164 18 386 c 0,20,21
 43.2002 529 43.2002 529 132.3 632 c 0,18,19
 228.6 744 228.6 744 347.4 777 c 0,16,17
 424.8 798 424.8 798 547.2 809 c 1,14,15
 276.3 1243 l 1,13,-1
 320.4 1493 l 1,12,-1
 1420.2 1493 l 1,11,-1
 1368.9 1202 l 1,10,-1
 698.4 1202 l 1,9,-1
 911.7 852 l 1,8,-1
 868.5 607 l 1,7,-1
 700.2 607 l 2,6,-1
 553.5 607 553.5 607 469.8 554 c 128,-1,5
 385.2 502 385.2 502 367.2 400 c 0,3,4
 350.1 301 350.1 301 414 248 c 128,-1,2
 477.9 195 477.9 195 620.1 195 c 16,0,1
EndSplineSet
EndChar
StartChar: uni01B9
Encoding: 441 441 441
Width: 1180
Flags: W
TeX: 117 0 0 0
AnchorPoint: "above" 771.179 1147 basechar 0
Fore
904.5 479 m 1,0,-1
 639 864 l 1,1,-1
 1147.5 864 l 1,2,-1
 1192.5 1120 l 1,3,-1
 313.2 1120 l 1,4,-1
 269.1 870 l 1,5,-1
 569.7 436 l 1,6,7
 422.1 427 422.1 427 340.2 404 c 0,8,9
 221.4 371 221.4 371 125.1 258 c 0,10,11
 36 156 36 156 10.7998 13 c 0,12,13
 -27.9004 -209 -27.9004 -209 105.3 -324 c 0,14,15
 237.6 -440 237.6 -440 531 -440 c 0,16,17
 634.5 -440 634.5 -440 741.6 -422 c 0,18,19
 849.6 -403 849.6 -403 957.6 -366 c 1,20,-1
 1009.8 -69 l 1,21,22
 902.7 -123 902.7 -123 801.9 -150 c 0,23,24
 701.1 -178 701.1 -178 608.4 -178 c 0,25,26
 470.7 -178 470.7 -178 406.8 -125 c 0,27,28
 342.9 -72 342.9 -72 360 27 c 0,29,30
 378 129 378 129 462.6 182 c 0,31,32
 546.3 234 546.3 234 693 234 c 2,33,-1
 861.3 234 l 1,34,-1
 904.5 479 l 1,0,-1
EndSplineSet
EndChar
StartChar: uni01BA
Encoding: 442 442 442
Width: 1072
Flags: W
TeX: 117 0 0 0
Fore
697.5 546 m 17,0,-1
 794.7 529 794.7 529 856.8 481 c 0,56,57
 927.9 425 927.9 425 927.9 322 c 0,54,55
 927.9 294 927.9 294 922.5 261 c 0,52,53
 898.2 123 898.2 123 803.7 56 c 0,50,51
 712.8 -9 712.8 -9 501.3 -36 c 2,48,49
 446.4 -43 l 2,47,-1
 349.2 -55 349.2 -55 316.8 -73 c 0,45,46
 281.7 -92 281.7 -92 274.5 -132 c 0,43,44
 273.6 -140 273.6 -140 273.6 -147 c 0,41,42
 273.6 -184 273.6 -184 307.8 -204 c 0,39,40
 349.2 -228 349.2 -228 439.2 -228 c 0,37,38
 538.2 -228 538.2 -228 638.1 -206 c 0,35,36
 738 -185 738 -185 836.1 -142 c 1,33,34
 797.4 -368 l 1,32,-1
 676.8 -399 676.8 -399 582.3 -412 c 0,30,31
 477.9 -426 477.9 -426 382.5 -426 c 0,28,29
 161.1 -426 161.1 -426 59.4004 -351 c 0,26,27
 -20.7002 -292 -20.7002 -292 -20.7002 -186 c 0,24,25
 -20.7002 -158 -20.7002 -158 -15.2998 -127 c 0,22,23
 9.90039 14 9.90039 14 103.5 81 c 0,20,21
 182.7 138 182.7 138 435.6 175 c 2,18,19
 491.4 183 l 2,17,-1
 583.2 196 583.2 196 610.2 210 c 0,15,16
 645.3 228 645.3 228 652.5 266 c 0,13,14
 653.4 274 653.4 274 653.4 281 c 0,11,12
 653.4 315 653.4 315 621 331 c 0,9,10
 579.6 352 579.6 352 357.3 352 c 10,7,8
 130.5 352 l 17,6,-1
 662.4 864 l 1,5,-1
 153.9 864 l 1,4,-1
 198.9 1120 l 1,3,-1
 1078.2 1120 l 1,2,-1
 1034.1 870 l 1,1,-1
 697.5 546 l 17,0,-1
EndSplineSet
EndChar
StartChar: uni01BB
Encoding: 443 443 443
Width: 1282
Flags: W
TeX: 117 0 0 0
Fore
447.3 283 m 1,0,-1
 1038.6 283 l 1,1,-1
 989.1 0 l 1,2,-1
 12.5996 0 l 1,3,-1
 62.0996 283 l 1,4,-1
 376.2 546 l 1,5,-1
 172.8 546 l 1,6,-1
 218.7 806 l 1,7,-1
 683.1 806 l 1,8,9
 728.1 850 728.1 850 756.9 893 c 0,10,11
 799.2 956 799.2 956 810.9 1024 c 0,12,13
 829.8 1129 829.8 1129 777.6 1193 c 0,14,15
 725.4 1257 725.4 1257 620.1 1257 c 0,16,17
 539.1 1257 539.1 1257 435.6 1218 c 0,18,19
 333 1180 333 1180 209.7 1104 c 1,20,-1
 267.3 1432 l 1,21,22
 391.5 1475 391.5 1475 509.4 1498 c 0,23,24
 628.2 1520 628.2 1520 738 1520 c 0,25,26
 979.2 1520 979.2 1520 1091.7 1402 c 0,27,28
 1205.1 1284 1205.1 1284 1168.2 1073 c 0,29,30
 1146.6 951 1146.6 951 1071.9 846 c 0,31,32
 1058.4 827 1058.4 827 1040.4 806 c 1,33,-1
 1064.7 806 l 1,34,-1
 1018.8 546 l 1,35,-1
 763.2 546 l 1,36,-1
 447.3 283 l 1,0,-1
EndSplineSet
EndChar
StartChar: uni01BC
Encoding: 444 444 444
Width: 1423
Flags: W
TeX: 117 0 0 0
Fore
150.3 607 m 1,0,-1
 193.5 852 l 1,1,-1
 306 1493 l 1,2,-1
 1260.9 1493 l 1,3,-1
 1209.6 1202 l 1,4,-1
 601.2 1202 l 1,5,-1
 540 852 l 1,6,-1
 737.1 852 l 2,7,8
 966.6 852 966.6 852 1107.9 792 c 0,9,10
 1203.3 752 1203.3 752 1256.4 632 c 0,11,12
 1306.8 517 1306.8 517 1283.4 386 c 0,13,14
 1244.7 164 1244.7 164 1071.9 48 c 0,15,16
 898.2 -67 898.2 -67 571.5 -67 c 0,17,18
 228.6 -67 228.6 -67 112.5 48 c 0,19,20
 -18 178 -18 178 20.7002 400 c 1,21,-1
 367.2 400 l 1,22,23
 350.1 301 350.1 301 414 248 c 0,24,25
 477.9 195 477.9 195 615.6 195 c 0,26,27
 756.9 195 756.9 195 839.7 248 c 0,28,29
 922.5 301 922.5 301 939.6 400 c 0,30,31
 957.6 502 957.6 502 891.9 554 c 0,32,33
 825.3 607 825.3 607 678.6 607 c 2,34,-1
 496.8 607 l 1,35,-1
 150.3 607 l 1,0,-1
EndSplineSet
EndChar
StartChar: uni01BD
Encoding: 445 445 445
Width: 1180
Flags: W
TeX: 117 0 0 0
Fore
135.9 234 m 1,0,-1
 179.1 479 l 1,1,-1
 291.6 1120 l 1,2,-1
 1055.7 1120 l 1,3,-1
 1017 899 l 1,4,-1
 575.1 899 l 1,5,-1
 501.3 479 l 1,6,-1
 506.7 479 l 2,7,8
 725.4 479 725.4 479 815.4 432 c 0,9,10
 948.6 362 948.6 362 996.3 258 c 0,11,12
 1046.7 143 1046.7 143 1023.3 13 c 0,13,14
 984.6 -209 984.6 -209 811.8 -324 c 0,15,16
 638.1 -440 638.1 -440 344.7 -440 c 0,17,18
 241.2 -440 241.2 -440 140.4 -422 c 0,19,20
 40.5 -403 40.5 -403 -54.9004 -366 c 1,21,-1
 -3.59961 -69 l 1,22,23
 84.5996 -123 84.5996 -123 175.5 -150 c 0,24,25
 266.4 -178 266.4 -178 359.1 -178 c 0,26,27
 496.8 -178 496.8 -178 579.6 -125 c 0,28,29
 662.4 -72 662.4 -72 679.5 27 c 0,30,31
 697.5 129 697.5 129 631.8 182 c 0,32,33
 565.2 234 565.2 234 418.5 234 c 2,34,-1
 135.9 234 l 1,0,-1
EndSplineSet
EndChar
StartChar: uni01BE
Encoding: 446 446 446
Width: 1055
Flags: W
TeX: 117 0 0 0
Fore
260.1 789 m 1,0,-1
 313.2 1096 l 1,1,-1
 171.9 1096 l 1,2,-1
 206.1 1290 l 1,3,-1
 347.4 1290 l 1,4,-1
 373.5 1438 l 1,5,-1
 695.7 1438 l 1,6,-1
 669.6 1290 l 1,7,-1
 901.8 1290 l 1,8,-1
 867.6 1096 l 1,9,-1
 635.4 1096 l 1,10,-1
 623.7 1029 l 1,11,12
 787.5 998 787.5 998 863.1 904 c 0,13,14
 977.4 759 977.4 759 936.9 528 c 0,15,16
 899.1 313 899.1 313 756.9 180 c 0,17,18
 532.8 -30 532.8 -30 315 -30 c 0,19,20
 152.1 -30 152.1 -30 82.7998 -12 c 0,21,22
 12.5996 5 12.5996 5 -49.5 40 c 1,23,-1
 2.7002 338 l 1,24,25
 64.7998 295 64.7998 295 131.4 274 c 0,26,27
 198.9 252 198.9 252 270.9 252 c 0,28,29
 432 252 432 252 540.9 366 c 0,30,31
 604.8 432 604.8 432 621.9 528 c 0,32,33
 634.5 599 634.5 599 595.8 675 c 0,34,35
 539.1 789 539.1 789 343.8 789 c 2,36,-1
 260.1 789 l 1,0,-1
EndSplineSet
EndChar
StartChar: uni01BF
Encoding: 447 447 447
Width: 1319
Flags: W
TeX: 117 0 0 0
Fore
351 -132 m 1,1,-1
 299.7 -426 l 1,2,-1
 -22.5 -426 l 1,3,-1
 248.4 1120 l 1,4,-1
 570.6 1120 l 1,5,-1
 541.8 955 l 1,6,7
 639 1066 639 1066 722.7 1103 c 0,8,9
 823.5 1147 823.5 1147 992.7 1147 c 0,10,-1
 999 1147 l 0,11,12
 1180.8 1147 1180.8 1147 1233 1035 c 0,13,14
 1277.1 943 1277.1 943 1277.1 850 c 0,15,16
 1277.1 809 1277.1 809 1269 769 c 0,17,18
 1181.7 342 1181.7 342 351 -132 c 1,1,-1
399.6 145 m 17,19,20
 886.5 479 886.5 479 913.5 643 c 0,21,22
 919.8 681 919.8 681 919.8 713 c 0,23,24
 919.8 778 919.8 778 893.7 822 c 0,25,26
 855 887 855 887 741.6 887 c 0,27,28
 661.5 887 661.5 887 494.1 684 c 1,29,30
 447.3 414 447.3 414 399.6 145 c 17,19,20
EndSplineSet
EndChar
StartChar: uni01C0
Encoding: 448 448 448
Width: 685
Flags: W
TeX: 117 0 0 0
Fore
337.5 1493 m 1,0,-1
 684 1493 l 1,1,-1
 347.4 -426 l 1,2,-1
 0.900391 -426 l 1,3,-1
 337.5 1493 l 1,0,-1
EndSplineSet
EndChar
StartChar: uni01C2
Encoding: 450 450 450
Width: 1002
Flags: W
TeX: 117 0 0 0
Fore
493.2 1493 m 1,0,-1
 839.7 1493 l 1,1,-1
 741.6 933 l 1,2,-1
 1057.5 933 l 1,3,-1
 1016.1 698 l 1,4,-1
 700.2 698 l 1,5,-1
 661.5 478 l 1,6,-1
 977.4 478 l 1,7,-1
 936 241 l 1,8,-1
 620.1 241 l 1,9,-1
 503.1 -426 l 1,10,-1
 156.6 -426 l 1,11,-1
 273.6 241 l 1,12,-1
 -42.2998 241 l 1,13,-1
 -0.900391 478 l 1,14,-1
 315 478 l 1,15,-1
 353.7 698 l 1,16,-1
 37.7998 698 l 1,17,-1
 79.2002 933 l 1,18,-1
 395.1 933 l 1,19,-1
 493.2 1493 l 1,0,-1
EndSplineSet
EndChar
StartChar: uni01E4
Encoding: 484 484 484
Width: 1512
Flags: W
Fore
1302.3 382 m 1,0,-1
 1255.5 111 l 1,1,2
 1124.1 40 1124.1 40 982.8 6 c 128,-1,3
 841.5 -29 841.5 -29 680.4 -29 c 0,4,5
 394.2 -29 394.2 -29 230.4 132 c 128,-1,6
 66.5996 294 66.5996 294 66.5996 573 c 0,7,8
 66.5996 754 66.5996 754 117.9 912 c 128,-1,9
 169.2 1071 169.2 1071 270.9 1202 c 0,10,11
 395.1 1362 395.1 1362 563.4 1441 c 128,-1,12
 732.6 1520 732.6 1520 949.5 1520 c 0,13,14
 1070.1 1520 1070.1 1520 1192.5 1492 c 128,-1,15
 1314.9 1464 1314.9 1464 1433.7 1409 c 1,16,-1
 1380.6 1100 l 1,17,18
 1270.8 1171 1270.8 1171 1166.4 1206 c 128,-1,19
 1061.1 1241 1061.1 1241 954.9 1241 c 0,20,21
 722.7 1241 722.7 1241 576.9 1069 c 128,-1,22
 431.1 897 431.1 897 431.1 627 c 0,23,24
 431.1 448 431.1 448 516.6 349 c 128,-1,25
 601.2 250 601.2 250 756 250 c 0,26,27
 806.4 250 806.4 250 856.8 258 c 128,-1,28
 907.2 265 907.2 265 958.5 281 c 1,29,-1
 976.5 382 l 1,30,-1
 872.1 382 l 1,31,-1
 883.8 469 l 1,32,-1
 991.8 469 l 1,33,-1
 1009.8 571 l 1,34,-1
 798.3 571 l 1,35,-1
 842.4 829 l 1,36,-1
 1380.6 829 l 1,37,-1
 1317.6 469 l 1,38,-1
 1428.3 469 l 1,39,-1
 1416.6 382 l 1,40,-1
 1302.3 382 l 1,0,-1
EndSplineSet
EndChar
StartChar: uni01E5
Encoding: 485 485 485
Width: 1319
Flags: W
Fore
680.4 887 m 0,0,1
 561.6 887 561.6 887 482.4 768 c 128,-1,2
 404.1 649 404.1 649 404.1 469 c 0,3,4
 404.1 367 404.1 367 446.4 314 c 128,-1,5
 488.7 260 488.7 260 569.7 260 c 0,6,7
 687.6 260 687.6 260 766.8 378 c 128,-1,8
 846 497 846 497 846 674 c 0,9,10
 846 778 846 778 803.7 832 c 128,-1,11
 761.4 887 761.4 887 680.4 887 c 0,0,1
705.6 -44 m 1,12,13
 739.8 21 739.8 21 756 113 c 2,14,-1
 770.4 190 l 1,15,16
 693 92 693 92 612.9 46 c 128,-1,17
 532.8 0 532.8 0 438.3 0 c 0,18,19
 267.3 0 267.3 0 167.4 122 c 128,-1,20
 68.4004 245 68.4004 245 68.4004 457 c 0,21,22
 68.4004 570 68.4004 570 102.6 684 c 128,-1,23
 137.7 797 137.7 797 202.5 897 c 0,24,25
 281.7 1018 281.7 1018 384.3 1082 c 128,-1,26
 486.9 1145 486.9 1145 604.8 1145 c 0,27,28
 711 1145 711 1145 783 1099 c 128,-1,29
 855.9 1053 855.9 1053 905.4 954 c 1,30,-1
 932.4 1120 l 1,31,-1
 1257.3 1120 l 1,32,-1
 1087.2 147 l 2,33,34
 1069.2 42 1069.2 42 1035.9 -44 c 1,35,-1
 1179.9 -44 l 1,36,-1
 1160.1 -133 l 1,37,-1
 995.4 -133 l 1,38,39
 942.3 -231 942.3 -231 864 -298 c 0,40,41
 693 -442 693 -442 388.8 -442 c 0,42,43
 295.2 -442 295.2 -442 208.8 -426 c 128,-1,44
 121.5 -410 121.5 -410 36.9004 -377 c 1,45,-1
 84.5996 -98 l 1,46,47
 161.1 -152 161.1 -152 237.6 -178 c 128,-1,48
 314.1 -205 314.1 -205 394.2 -205 c 0,49,50
 549.9 -205 549.9 -205 635.4 -133 c 1,51,-1
 253.8 -133 l 1,52,-1
 273.6 -44 l 1,53,-1
 705.6 -44 l 1,12,13
EndSplineSet
EndChar
StartChar: uni01F0
Encoding: 496 496 496
Width: 631
Flags: W
Fore
252.9 1120 m 1,0,-1
 576.9 1120 l 1,1,-1
 383.4 20 l 2,2,3
 342 -215 342 -215 228.6 -328 c 128,-1,4
 116.1 -442 116.1 -442 -75.5996 -442 c 2,5,-1
 -235.8 -442 l 1,6,-1
 -195.3 -207 l 1,7,-1
 -138.6 -207 l 2,8,9
 -47.7002 -207 -47.7002 -207 -5.40039 -162 c 128,-1,10
 36 -116 36 -116 59.4004 20 c 2,11,-1
 252.9 1120 l 1,0,-1
562.5 1263 m 1,12,-1
 328.5 1263 l 1,13,-1
 163.8 1639 l 1,14,-1
 322.2 1639 l 1,15,-1
 462.6 1412 l 1,16,-1
 682.2 1639 l 1,17,-1
 858.6 1639 l 1,18,-1
 562.5 1263 l 1,12,-1
EndSplineSet
EndChar
StartChar: uni01F6
Encoding: 502 502 502
Width: 2375
Flags: W
TeX: 117 0 0 0
Fore
1060.2 924 m 1,0,-1
 1160.1 1493 l 1,1,-1
 1506.6 1493 l 1,2,-1
 1350 598 l 2,3,4
 1317.6 413 1317.6 413 1358.1 334 c 0,5,6
 1398.6 254 1398.6 254 1521.9 254 c 0,7,8
 1646.1 254 1646.1 254 1714.5 334 c 0,9,10
 1782.9 413 1782.9 413 1815.3 598 c 2,11,-1
 1906.2 1120 l 1,12,-1
 2252.7 1120 l 1,13,-1
 2161.8 598 l 2,14,15
 2106 281 2106 281 1935.9 126 c 0,16,17
 1765.8 -29 1765.8 -29 1472.4 -29 c 0,18,19
 1180.8 -30 1180.8 -30 1063.8 126 c 0,20,21
 947.7 281 947.7 281 1003.5 598 c 2,22,-1
 1009.8 633 l 1,23,-1
 498.6 633 l 1,24,-1
 387.9 0 l 1,25,-1
 41.4004 0 l 1,26,-1
 302.4 1493 l 1,27,-1
 648.9 1493 l 1,28,-1
 549 924 l 1,29,-1
 1060.2 924 l 1,0,-1
EndSplineSet
EndChar
StartChar: uni01F7
Encoding: 503 503 503
Width: 1450
VWidth: 2216
Flags: W
TeX: 117 0 0 0
Fore
412.2 113 m 1,1,-1
 317.7 -426 l 1,2,-1
 -36.9004 -426 l 1,3,-1
 298.8 1493 l 1,4,-1
 653.4 1493 l 1,5,-1
 621 1308 l 1,6,7
 723.6 1426 723.6 1426 820.8 1471 c 0,8,9
 927 1520 927 1520 1124.1 1520 c 0,10,11
 1323.9 1520 1323.9 1520 1381.5 1396 c 0,12,13
 1428.3 1295 1428.3 1295 1428.3 1189 c 0,14,15
 1428.3 1147 1428.3 1147 1420.2 1104 c 0,16,17
 1340.1 642 1340.1 642 412.2 113 c 1,1,-1
465.3 417 m 17,18,19
 998.1 785 998.1 785 1029.6 965 c 0,20,21
 1036.8 1006 1036.8 1006 1036.8 1041 c 0,22,23
 1036.8 1113 1036.8 1113 1008 1162 c 0,24,25
 965.7 1234 965.7 1234 840.6 1234 c 0,26,27
 753.3 1234 753.3 1234 568.8 1010 c 1,28,-1
 465.3 417 l 17,18,19
EndSplineSet
EndChar
StartChar: uni021C
Encoding: 540 540 540
Width: 1272
Flags: W
TeX: 117 0 0 0
Fore
-34.2002 -147 m 1,0,1
 117 -112 117 -112 322.2 -25 c 0,2,3
 474.3 39 474.3 39 587.7 132 c 0,4,5
 680.4 207 680.4 207 696.6 300 c 0,6,7
 700.2 321 700.2 321 700.2 341 c 0,8,9
 700.2 402 700.2 402 662.4 444 c 0,10,11
 613.8 498 613.8 498 537.3 498 c 0,12,13
 486 498 486 498 424.8 473 c 2,14,-1
 215.1 388 l 1,15,-1
 260.1 642 l 1,16,-1
 486.9 737 l 2,17,18
 621 793 621 793 715.5 880 c 0,19,20
 792 951 792 951 811.8 1066 c 0,21,22
 815.4 1087 815.4 1087 815.4 1105 c 0,23,24
 815.4 1170 815.4 1170 770.4 1207 c 0,25,26
 711.9 1256 711.9 1256 619.2 1256 c 0,27,28
 544.5 1256 544.5 1256 434.7 1208 c 0,29,30
 354.6 1174 354.6 1174 242.1 1100 c 1,31,32
 264.6 1232 264.6 1232 286.2 1356 c 1,33,34
 403.2 1421 403.2 1421 498.6 1464 c 0,35,36
 624.6 1520 624.6 1520 742.5 1520 c 0,37,38
 963 1520 963 1520 1073.7 1416 c 0,39,40
 1176.3 1320 1176.3 1320 1176.3 1193 c 0,41,42
 1176.3 1164 1176.3 1164 1170.9 1133 c 0,43,44
 1142.1 967 1142.1 967 1060.2 864 c 0,45,46
 966.6 747 966.6 747 836.1 674 c 1,47,48
 964.8 655 964.8 655 1019.7 546 c 0,49,50
 1063.8 457 1063.8 457 1063.8 370 c 0,51,52
 1063.8 341 1063.8 341 1058.4 311 c 0,53,54
 1027.8 132 1027.8 132 781.2 -46 c 0,55,56
 616.5 -165 616.5 -165 315.9 -298 c 0,57,58
 109.8 -389 109.8 -389 -83.7002 -430 c 1,59,-1
 -34.2002 -147 l 1,0,1
EndSplineSet
EndChar
StartChar: uni021D
Encoding: 541 541 541
Width: 1119
Flags: W
TeX: 117 0 0 0
Fore
-47.7002 -204 m 1,0,1
 88.2002 -175 88.2002 -175 271.8 -105 c 0,2,3
 407.7 -52 407.7 -52 508.5 22 c 0,4,5
 590.4 83 590.4 83 603.9 159 c 0,6,7
 606.6 174 606.6 174 606.6 189 c 0,8,9
 606.6 240 606.6 240 570.6 275 c 0,10,11
 525.6 319 525.6 319 456.3 319 c 0,12,13
 411.3 319 411.3 319 355.5 299 c 2,14,-1
 169.2 230 l 1,15,-1
 205.2 436 l 1,16,-1
 408.6 513 l 2,17,18
 528.3 558 528.3 558 611.1 628 c 0,19,20
 678.6 686 678.6 686 695.7 779 c 0,21,22
 697.5 794 697.5 794 697.5 808 c 0,23,24
 697.5 863 697.5 863 656.1 893 c 0,25,26
 602.1 933 602.1 933 518.4 933 c 0,27,28
 450.9 933 450.9 933 353.7 894 c 0,29,30
 281.7 866 281.7 866 181.8 807 c 1,31,32
 200.7 913 200.7 913 217.8 1014 c 1,33,34
 321.3 1067 321.3 1067 406.8 1101 c 0,35,36
 519.3 1147 519.3 1147 625.5 1147 c 0,37,38
 824.4 1147 824.4 1147 926.1 1063 c 0,39,40
 1020.6 983 1020.6 983 1020.6 877 c 0,41,42
 1020.6 856 1020.6 856 1017 833 c 0,43,44
 993.6 699 993.6 699 921.6 615 c 0,45,46
 838.8 520 838.8 520 723.6 461 c 1,47,48
 839.7 446 839.7 446 891 358 c 0,49,50
 933.3 283 933.3 283 933.3 210 c 0,51,52
 933.3 189 933.3 189 929.7 167 c 0,53,54
 904.5 23 904.5 23 684.9 -122 c 0,55,56
 539.1 -218 539.1 -218 270 -326 c 0,57,58
 86.4004 -399 86.4004 -399 -87.2998 -433 c 1,59,-1
 -47.7002 -204 l 1,0,1
EndSplineSet
EndChar
StartChar: uni0220
Encoding: 544 544 544
Width: 1542
Flags: W
TeX: 117 0 0 0
Fore
1046.7 691 m 18,0,1
 1078.2 873 1078.2 873 1083.6 956 c 0,2,3
 1088.1 1029 1088.1 1029 1071.9 1064 c 0,4,5
 1050.3 1110 1050.3 1110 1005.3 1136 c 0,6,7
 958.5 1162 958.5 1162 895.5 1162 c 0,8,9
 754.2 1162 754.2 1162 653.4 1047 c 128,-1,10
 553.5 932 553.5 932 518.4 730 c 2,11,-1
 390.6 0 l 1,12,-1
 59.4004 0 l 1,13,-1
 320.4 1493 l 1,14,-1
 654.3 1493 l 1,15,-1
 614.7 1266 l 1,16,17
 738.9 1401 738.9 1401 851.4 1459 c 0,18,19
 969.3 1520 969.3 1520 1098.9 1520 c 0,20,21
 1303.2 1520 1303.2 1520 1382.4 1362 c 0,22,23
 1461.6 1204 1461.6 1204 1408.5 903 c 2,24,-1
 1176.3 -426 l 1,25,-1
 851.4 -426 l 9,26,-1
 1046.7 691 l 18,0,1
EndSplineSet
EndChar
StartChar: uni0221
Encoding: 545 545 545
Width: 1593
Flags: W
TeX: 117 0 0 0
AnchorPoint: "above" 1145.88 1520 basechar 0
AnchorPoint: "below" 533.465 0 basechar 0
Fore
1170 230 m 0,0,1
 1290.6 230 1290.6 230 1305 319 c 0,2,3
 1309.5 344 1309.5 344 1285.2 344 c 0,4,5
 1217.7 344 1217.7 344 1170.9 293 c 2,6,-1
 1129.5 246 l 1,7,8
 1145.7 230 1145.7 230 1170 230 c 0,0,1
546.3 231 m 0,9,10
 649.8 231 649.8 231 719.1 315 c 0,11,12
 787.5 399 787.5 399 815.4 559 c 128,-1,13
 843.3 719 843.3 719 804.6 803 c 0,14,15
 764.1 887 764.1 887 660.6 887 c 0,16,17
 558 887 558 887 489.6 803 c 0,18,19
 419.4 719 419.4 719 391.5 559 c 128,-1,20
 363.6 399 363.6 399 404.1 315 c 0,21,22
 443.7 231 443.7 231 546.3 231 c 0,9,10
1132.2 514 m 9,23,24
 1216.8 606 1216.8 606 1312.2 606 c 0,25,26
 1396.8 606 1396.8 606 1432.8 550 c 0,27,28
 1477.8 481 1477.8 481 1449 327 c 0,29,30
 1421.1 167 1421.1 167 1346.4 80 c 0,31,32
 1259.1 -25 1259.1 -25 1109.7 -26 c 0,33,34
 1027.8 -26 1027.8 -26 968.4 0 c 17,35,36
 922.5 -74 922.5 -74 882 -154 c 25,37,-1
 747 -82 l 17,38,39
 774 -27 774 -27 835.2 86 c 17,40,41
 823.5 100 823.5 100 816.3 118 c 1,42,43
 763.2 50 763.2 50 694.8 15 c 0,44,45
 607.5 -29 607.5 -29 380.7 -29 c 0,46,47
 194.4 -29 194.4 -29 103.5 136 c 0,48,49
 12.5996 300 12.5996 300 57.5996 559 c 0,50,51
 103.5 818 103.5 818 252 982 c 0,52,53
 400.5 1147 400.5 1147 586.8 1147 c 0,54,55
 691.2 1147 691.2 1147 763.2 1100 c 0,56,57
 836.1 1054 836.1 1054 885.6 956 c 1,58,-1
 990 1556 l 1,59,-1
 1314 1556 l 1,60,-1
 1132.2 514 l 9,23,24
EndSplineSet
EndChar
StartChar: uni0222
Encoding: 546 546 546
Width: 1491
Flags: W
TeX: 117 0 0 0
Fore
732.6 668 m 0,0,1
 587.7 668 587.7 668 498.6 609 c 128,-1,2
 409.5 550 409.5 550 389.7 440 c 0,3,4
 386.1 416 386.1 416 386.1 395 c 0,5,6
 386.1 317 386.1 317 440.1 272 c 0,7,8
 507.6 213 507.6 213 652.5 213 c 0,9,10
 798.3 213 798.3 213 885.6 272 c 0,11,12
 972 330 972 330 990.9 440 c 0,13,14
 995.4 465 995.4 465 995.4 488 c 0,15,16
 995.4 564 995.4 564 944.1 610 c 0,17,18
 878.4 668 878.4 668 732.6 668 c 0,0,1
904.5 1346 m 9,19,-1
 935.1 1519 l 1,20,21
 1187.1 1511 1187.1 1511 1309.5 1422 c 0,22,23
 1417.5 1343 1417.5 1343 1417.5 1205 c 0,24,25
 1417.5 1171 1417.5 1171 1411.2 1133 c 0,26,27
 1388.7 1006 1388.7 1006 1299.6 921 c 0,28,29
 1208.7 836 1208.7 836 1054.8 795 c 1,30,31
 1211.4 753 1211.4 753 1278.9 658 c 0,32,33
 1327.5 590 1327.5 590 1327.5 495 c 0,34,35
 1327.5 459 1327.5 459 1320.3 420 c 0,36,37
 1281.6 198 1281.6 198 1102.5 84 c 0,38,39
 923.4 -29 923.4 -29 610.2 -29 c 0,40,41
 296.1 -29 296.1 -29 155.7 84 c 0,42,43
 45.9004 173 45.9004 173 45.9004 329 c 0,44,45
 45.9004 372 45.9004 372 54 420 c 0,46,47
 79.2002 564 79.2002 564 180 658 c 0,48,49
 279.9 753 279.9 753 450.9 795 c 1,50,51
 305.1 825 305.1 825 250.2 911 c 0,52,53
 202.5 985 202.5 985 202.5 1052 c 0,54,55
 202.5 1068 202.5 1068 205.2 1083 c 0,56,57
 224.1 1191 224.1 1191 394.2 1291 c 0,58,59
 510.3 1360 510.3 1360 795.6 1369 c 1,60,-1
 768.6 1215 l 17,61,62
 667.8 1217 667.8 1217 612.9 1180 c 0,63,64
 529.2 1124 529.2 1124 519.3 1064 c 0,65,66
 517.5 1053 517.5 1053 517.5 1043 c 0,67,68
 517.5 988 517.5 988 572.4 947 c 0,69,70
 623.7 909 623.7 909 774.9 909 c 0,71,72
 894.6 909 894.6 909 991.8 967 c 0,73,74
 1072.8 1015 1072.8 1015 1093.5 1134 c 0,75,76
 1098 1158 1098 1158 1098 1179 c 0,77,78
 1098 1252 1098 1252 1048.5 1290 c 0,79,80
 985.5 1338 985.5 1338 904.5 1346 c 9,19,-1
EndSplineSet
EndChar
StartChar: uni0223
Encoding: 547 547 547
Width: 1214
Flags: W
TeX: 117 0 0 0
Fore
854.1 1218 m 9,0,-1
 1191.6 1323 l 1,1,2
 1209.6 1275 1209.6 1275 1209.6 1216 c 0,3,4
 1209.6 1177 1209.6 1177 1201.5 1133 c 8,5,6
 1179.9 1007 1179.9 1007 1101.6 921 c 0,7,8
 1025.1 836 1025.1 836 895.5 795 c 1,9,10
 1023.3 754 1023.3 754 1077.3 658 c 0,11,12
 1114.2 594 1114.2 594 1114.2 507 c 0,13,14
 1114.2 466 1114.2 466 1106.1 420 c 0,15,16
 1067.4 198 1067.4 198 913.5 84 c 0,17,18
 761.4 -29 761.4 -29 500.4 -29 c 0,19,20
 238.5 -29 238.5 -29 125.1 84 c 0,21,22
 40.5 169 40.5 169 40.5 314 c 0,23,24
 40.5 364 40.5 364 50.4004 420 c 0,25,26
 75.5996 564 75.5996 564 161.1 658 c 0,27,28
 247.5 753 247.5 753 392.4 795 c 1,29,30
 277.2 836 277.2 836 229.5 921 c 0,31,32
 197.1 979 197.1 979 197.1 1056 c 0,33,34
 197.1 1092 197.1 1092 204.3 1133 c 0,35,36
 224.1 1244 224.1 1244 280.8 1323 c 1,37,-1
 581.4 1218 l 17,38,39
 539.1 1171 539.1 1171 525.6 1094 c 0,40,41
 521.1 1067 521.1 1067 521.1 1045 c 0,42,43
 521.1 991 521.1 991 546.3 957 c 0,44,45
 582.3 909 582.3 909 665.1 909 c 0,46,47
 746.1 909 746.1 909 798.3 957 c 128,-1,48
 850.5 1005 850.5 1005 866.7 1094 c 16,49,50
 871.2 1120 871.2 1120 871.2 1143 c 0,51,52
 871.2 1187 871.2 1187 854.1 1218 c 9,0,-1
622.8 668 m 0,53,54
 525.6 668 525.6 668 462.6 609 c 0,55,56
 400.5 550 400.5 550 381.6 440 c 0,57,58
 375.3 405 375.3 405 375.3 376 c 0,59,60
 375.3 312 375.3 312 404.1 272 c 0,61,62
 445.5 213 445.5 213 542.7 213 c 0,63,64
 639 213 639 213 701.1 272 c 0,65,66
 762.3 330 762.3 330 782.1 440 c 0,67,68
 788.4 476 788.4 476 788.4 506 c 0,69,70
 788.4 570 788.4 570 760.5 610 c 0,71,72
 719.1 668 719.1 668 622.8 668 c 0,53,54
EndSplineSet
EndChar
StartChar: uni0224
Encoding: 548 548 548
Width: 1336
Flags: W
TeX: 117 0 0 0
Fore
1161.9 0 m 1,0,1
 1108.8 -268 1108.8 -268 942.3 -377 c 0,2,3
 841.5 -442 841.5 -442 703.8 -442 c 2,4,-1
 450.9 -442 l 1,5,-1
 492.3 -207 l 1,6,-1
 641.7 -207 l 2,7,8
 733.5 -207 733.5 -207 775.8 -161 c 0,9,10
 814.5 -118 814.5 -118 837.9 0 c 1,11,-1
 -9 0 l 1,12,-1
 31.5 233 l 1,13,-1
 921.6 1202 l 1,14,-1
 221.4 1202 l 1,15,-1
 272.7 1493 l 1,16,-1
 1402.2 1493 l 1,17,-1
 1361.7 1260 l 1,18,-1
 470.7 291 l 1,19,-1
 1212.3 291 l 1,20,-1
 1161.9 0 l 1,0,1
EndSplineSet
EndChar
StartChar: uni0225
Encoding: 549 549 549
Width: 1072
Flags: W
TeX: 117 0 0 0
Fore
925.2 0 m 1,0,1
 873 -268 873 -268 705.6 -377 c 0,2,3
 604.8 -442 604.8 -442 467.1 -442 c 2,4,-1
 214.2 -442 l 1,5,-1
 255.6 -207 l 1,6,-1
 405 -207 l 2,7,8
 496.8 -207 496.8 -207 539.1 -161 c 0,9,10
 577.8 -118 577.8 -118 601.2 0 c 1,11,-1
 23.4004 0 l 1,12,-1
 67.5 250 l 1,13,-1
 705.6 864 l 1,14,-1
 197.1 864 l 1,15,-1
 242.1 1120 l 1,16,-1
 1121.4 1120 l 1,17,-1
 1077.3 870 l 1,18,-1
 439.2 256 l 1,19,-1
 970.2 256 l 1,20,-1
 925.2 0 l 1,0,1
EndSplineSet
EndChar
StartChar: uni0234
Encoding: 564 564 564
Width: 906
Flags: W
TeX: 117 0 0 0
AnchorPoint: "above" 463.678 1520 basechar 0
AnchorPoint: "below" 197.765 0 basechar 0
Fore
494.1 230 m 0,0,1
 614.7 230 614.7 230 629.1 319 c 0,2,3
 633.6 344 633.6 344 609.3 344 c 0,4,5
 541.8 344 541.8 344 495 293 c 2,6,-1
 453.6 246 l 1,7,8
 469.8 230 469.8 230 494.1 230 c 0,0,1
444.6 514 m 9,9,10
 529.2 606 529.2 606 624.6 606 c 0,11,12
 702.9 606 702.9 606 739.8 558 c 0,13,14
 792 490 792 490 761.4 327 c 0,15,16
 733.5 166 733.5 166 658.8 78 c 0,17,18
 571.5 -26 571.5 -26 422.1 -26 c 0,19,20
 340.2 -26 340.2 -26 280.8 0 c 17,21,22
 234.9 -74 234.9 -74 194.4 -154 c 25,23,-1
 59.4004 -82 l 17,24,25
 86.4004 -27 86.4004 -27 147.6 86 c 17,26,27
 66.5996 198 66.5996 198 129.6 559 c 18,28,-1
 304.2 1556 l 1,29,-1
 626.4 1556 l 1,30,-1
 444.6 514 l 9,9,10
EndSplineSet
EndChar
StartChar: uni0235
Encoding: 565 565 565
Width: 1597
Flags: W
TeX: 117 0 0 0
Fore
1170.9 514 m 25,0,0
 1255.5 606 1255.5 606 1350.9 606 c 0,0,0
 1423.8 606 1423.8 606 1461.6 564 c 0,0,0
 1520.1 498 1520.1 498 1488.6 327 c 0,0,0
 1456.2 154 1456.2 154 1374.3 66 c 0,0,0
 1288.8 -26 1288.8 -26 1148.4 -26 c 0,0,0
 1066.5 -26 1066.5 -26 1007.1 0 c 17,0,0
 962.1 -74 962.1 -74 921.6 -154 c 25,0,0
 786.6 -82 l 17,0,0
 813.6 -27 813.6 -27 874.8 86 c 17,0,0
 789.3 205 789.3 205 848.7 522 c 0,4,5
 873.9 656 873.9 656 878.4 722 c 0,6,7
 882 777 882 777 872.1 803 c 0,7,8
 858.6 838 858.6 838 829.8 858 c 128,-1,9
 801 877 801 877 759.6 877 c 0,10,11
 658.8 877 658.8 877 585.9 790 c 128,-1,12
 513 704 513 704 486.9 551 c 2,13,-1
 389.7 0 l 1,14,-1
 67.5 0 l 1,15,-1
 263.7 1120 l 1,16,-1
 585.9 1120 l 1,17,-1
 557.1 956 l 1,18,19
 647.1 1054 647.1 1054 737.1 1100 c 128,-1,20
 827.1 1147 827.1 1147 926.1 1147 c 0,21,22
 1100.7 1147 1100.7 1147 1170.9 1028 c 128,-1,23
 1240.2 909 1240.2 909 1200.6 682 c 10,0,-1
 1170.9 514 l 25,0,0
1221.3 230 m 0,0,0
 1342.8 234 1342.8 234 1355.4 319 c 0,1,2
 1359 344 1359 344 1335.6 344 c 0,0,0
 1269 346 1269 346 1221.3 293 c 2,0,0
 1179.9 246 l 1,1,2
 1197 230 1197 230 1221.3 230 c 0,0,0
EndSplineSet
EndChar
StartChar: uni0236
Encoding: 566 566 566
Width: 943
Flags: W
TeX: 117 0 0 0
AnchorPoint: "above" 508.374 1520 basechar 0
AnchorPoint: "below" 242.462 0 basechar 0
Fore
528.3 240 m 0,0,1
 649.8 244 649.8 244 662.4 329 c 0,2,3
 666 354 666 354 642.6 354 c 0,4,5
 576 356 576 356 528.3 303 c 2,6,-1
 486.9 256 l 1,7,8
 504 240 504 240 528.3 240 c 0,0,1
646.2 1438 m 1,9,-1
 590.4 1120 l 1,10,-1
 922.5 1120 l 1,11,-1
 877.5 864 l 1,12,-1
 545.4 864 l 1,13,-1
 484.2 508 l 25,14,15
 576 604 576 604 671.4 604 c 0,16,17
 753.3 604 753.3 604 790.2 552 c 0,18,19
 837.9 483 837.9 483 809.1 325 c 0,20,21
 779.4 167 779.4 167 708.3 80 c 0,22,23
 621 -28 621 -28 468.9 -28 c 0,24,25
 387 -28 387 -28 327.6 -2 c 17,26,27
 282.6 -76 282.6 -76 241.2 -156 c 25,28,-1
 106.2 -84 l 17,29,30
 135.9 -22 135.9 -22 186.3 68 c 1,31,32
 175.5 77 175.5 77 168.3 88 c 16,33,34
 103.5 177 103.5 177 140.4 389 c 2,35,-1
 223.2 864 l 1,36,-1
 63 864 l 1,37,-1
 108 1120 l 1,38,-1
 268.2 1120 l 1,39,-1
 324 1438 l 1,40,-1
 646.2 1438 l 1,9,-1
EndSplineSet
EndChar
StartChar: dotlessj
Encoding: 567 567 567
Width: 631
Flags: W
AnchorPoint: "below" 181.369 -430 basechar 0
AnchorPoint: "above" 441.9 1147 basechar 0
Fore
252.9 1120 m 1,0,-1
 576.9 1120 l 1,1,-1
 383.4 20 l 2,2,3
 342 -215 342 -215 229.05 -328.5 c 128,-1,4
 116.1 -442 116.1 -442 -75.5996 -442 c 2,5,-1
 -235.8 -442 l 1,6,-1
 -195.3 -207 l 1,7,-1
 -138.6 -207 l 2,8,9
 -47.7002 -207 -47.7002 -207 -5.84961 -161.5 c 128,-1,10
 36 -116 36 -116 59.4004 20 c 1,11,-1
 252.9 1120 l 1,0,-1
EndSplineSet
EndChar
StartChar: uni0238
Encoding: 568 568 568
Width: 2005
Flags: W
TeX: 117 0 0 0
Fore
534.6 231 m 0,0,1
 638.1 231 638.1 231 707.4 315 c 0,2,3
 776.7 399 776.7 399 804.6 559 c 0,4,5
 832.5 719 832.5 719 792.9 803 c 0,6,7
 753.3 887 753.3 887 649.8 887 c 0,8,9
 547.2 887 547.2 887 477.9 803 c 0,10,11
 408.6 719 408.6 719 380.7 559 c 0,12,13
 352.8 399 352.8 399 392.4 315 c 0,14,15
 432 231 432 231 534.6 231 c 0,0,1
1283.4 231 m 0,16,17
 1386.9 231 1386.9 231 1456.2 315 c 0,18,19
 1525.5 399 1525.5 399 1553.4 559 c 0,20,21
 1581.3 719 1581.3 719 1541.7 803 c 0,22,23
 1502.1 887 1502.1 887 1398.6 887 c 0,24,25
 1295.1 887 1295.1 887 1224.9 802 c 0,26,27
 1167.3 733 1167.3 733 1138.5 614 c 2,28,-1
 1119.6 504 l 2,29,30
 1106.1 385 1106.1 385 1139.4 316 c 0,31,32
 1179.9 231 1179.9 231 1283.4 231 c 0,16,17
1301.4 1556 m 1,33,-1
 1303.2 1556 l 1,34,-1
 1198.8 959 l 1,35,36
 1281.6 1055 1281.6 1055 1369.8 1100 c 0,37,38
 1458.9 1147 1458.9 1147 1564.2 1147 c 0,39,40
 1750.5 1147 1750.5 1147 1841.4 982 c 0,41,42
 1932.3 818 1932.3 818 1886.4 559 c 0,43,44
 1841.4 300 1841.4 300 1692.9 136 c 0,45,46
 1544.4 -29 1544.4 -29 1358.1 -29 c 0,47,48
 1252.8 -29 1252.8 -29 1179.9 18 c 0,49,50
 1107.9 63 1107.9 63 1059.3 159 c 1,51,-1
 1031.4 0 l 1,52,-1
 1029.6 0 l 1,53,-1
 707.4 0 l 1,54,-1
 735.3 162 l 1,55,56
 651.6 63 651.6 63 563.4 17 c 0,57,58
 475.2 -29 475.2 -29 369.9 -29 c 0,59,60
 183.6 -29 183.6 -29 92.7002 136 c 0,61,62
 1.7998 300 1.7998 300 46.7998 559 c 0,63,64
 92.7002 818 92.7002 818 241.2 982 c 0,65,66
 389.7 1147 389.7 1147 576 1147 c 0,67,68
 680.4 1147 680.4 1147 752.4 1100 c 0,69,70
 824.4 1054 824.4 1054 873.9 956 c 1,71,-1
 979.2 1556 l 1,72,-1
 1301.4 1556 l 1,33,-1
EndSplineSet
EndChar
StartChar: uni0239
Encoding: 569 569 569
Width: 2005
Flags: W
TeX: 117 0 0 0
Fore
720 887 m 0,0,1
 617.4 887 617.4 887 549 803 c 0,2,3
 479.7 719 479.7 719 451.8 559 c 0,4,5
 423 399 423 399 463.5 315 c 0,6,7
 503.1 231 503.1 231 605.7 231 c 0,8,9
 709.2 231 709.2 231 778.5 315 c 0,10,11
 846.9 399 846.9 399 875.7 559 c 0,12,13
 903.6 719 903.6 719 864 803 c 0,14,15
 823.5 887 823.5 887 720 887 c 0,0,1
1468.8 887 m 0,16,17
 1365.3 887 1365.3 887 1295.1 802 c 0,18,19
 1238.4 733 1238.4 733 1208.7 614 c 2,20,-1
 1189.8 504 l 2,21,22
 1177.2 385 1177.2 385 1210.5 316 c 0,23,24
 1251 231 1251 231 1354.5 231 c 0,25,26
 1458 231 1458 231 1527.3 315 c 0,27,28
 1595.7 399 1595.7 399 1624.5 559 c 0,29,30
 1652.4 719 1652.4 719 1612.8 803 c 0,31,32
 1572.3 887 1572.3 887 1468.8 887 c 0,16,17
1129.5 159 m 1,33,-1
 1026.9 -426 l 1,34,-1
 1025.1 -426 l 1,35,-1
 702.9 -426 l 1,36,-1
 805.5 162 l 1,37,38
 721.8 63 721.8 63 633.6 17 c 0,39,40
 545.4 -29 545.4 -29 440.1 -29 c 0,41,42
 253.8 -29 253.8 -29 162.9 136 c 0,43,44
 72 300 72 300 117.9 559 c 0,45,46
 162.9 818 162.9 818 311.4 982 c 0,47,48
 459 1145 459 1145 645.3 1145 c 0,49,50
 750.6 1145 750.6 1145 823.5 1099 c 0,51,52
 895.5 1053 895.5 1053 944.1 954 c 1,53,-1
 973.8 1120 l 1,54,-1
 1296 1120 l 1,55,-1
 1297.8 1120 l 1,56,-1
 1269 959 l 1,57,58
 1351.8 1055 1351.8 1055 1440 1100 c 0,59,60
 1529.1 1147 1529.1 1147 1634.4 1147 c 0,61,62
 1820.7 1147 1820.7 1147 1911.6 982 c 0,63,64
 2002.5 818 2002.5 818 1957.5 559 c 0,65,66
 1911.6 300 1911.6 300 1763.1 136 c 0,67,68
 1614.6 -29 1614.6 -29 1428.3 -29 c 0,69,70
 1323 -29 1323 -29 1250.1 18 c 0,71,72
 1178.1 63 1178.1 63 1129.5 159 c 1,33,-1
EndSplineSet
EndChar
StartChar: uni023A
Encoding: 570 570 570
Width: 1426
Flags: W
TeX: 117 0 0 0
Fore
901.8 272 m 1,0,-1
 360 272 l 1,1,-1
 226.8 0 l 1,2,-1
 12.5996 0 l 1,3,-1
 -66.5996 -74 l 1,4,-1
 -120.6 0 l 1,5,-1
 -121.5 0 l 1,6,-1
 -121.5 1 l 1,7,-1
 -149.4 39 l 1,8,-1
 -59.4004 122 l 1,9,-1
 637.2 1493 l 1,10,-1
 1050.3 1493 l 1,11,-1
 1097.1 1198 l 1,12,-1
 1493.1 1567 l 1,13,-1
 1575 1452 l 1,14,-1
 1123.2 1032 l 1,15,-1
 1287 0 l 1,16,-1
 938.7 0 l 1,17,-1
 901.8 272 l 1,0,-1
573.3 711 m 1,18,-1
 810.9 932 l 1,19,-1
 783 1143 l 1,20,-1
 573.3 711 l 1,18,-1
603 549 m 1,21,-1
 863.1 549 l 1,22,-1
 834.3 763 l 1,23,-1
 603 549 l 1,21,-1
EndSplineSet
EndChar
StartChar: uni023B
Encoding: 571 571 571
Width: 1352
Flags: W
TeX: 117 0 0 0
Fore
-103.5 -74 m 1,0,-1
 -186.3 39 l 1,1,-1
 113.4 317 l 1,2,3
 47.7002 495 47.7002 495 91.7998 745 c 0,4,5
 153.9 1103 153.9 1103 387 1312 c 0,6,7
 619.2 1520 619.2 1520 954.9 1520 c 0,8,9
 1067.4 1520 1067.4 1520 1166.4 1492 c 0,10,11
 1242.9 1470 1242.9 1470 1312.2 1432 c 1,12,-1
 1456.2 1567 l 1,13,-1
 1538.1 1452 l 1,14,-1
 1323 1252 l 1,15,-1
 1296.9 1100 l 1,16,17
 1259.1 1133 1259.1 1133 1221.3 1157 c 1,18,-1
 459.9 450 l 1,19,20
 472.5 413 472.5 413 492.3 382 c 0,21,22
 575.1 250 575.1 250 760.5 250 c 0,23,24
 864 250 864 250 963.9 284 c 0,25,26
 1063.8 318 1063.8 318 1172.7 391 c 1,27,-1
 1118.7 82 l 1,28,29
 1013.4 27 1013.4 27 905.4 -1 c 0,30,31
 796.5 -29 796.5 -29 684 -29 c 0,32,33
 348.3 -29 348.3 -29 189 180 c 2,34,-1
 180.9 190 l 1,35,-1
 -103.5 -74 l 1,0,-1
436.5 618 m 1,36,-1
 1084.5 1221 l 1,37,38
 1014.3 1241 1014.3 1241 934.2 1241 c 0,39,40
 748.8 1241 748.8 1241 619.2 1109 c 0,41,42
 490.5 977 490.5 977 450 745 c 0,43,44
 438.3 677 438.3 677 436.5 618 c 1,36,-1
EndSplineSet
EndChar
StartChar: uni023C
Encoding: 572 572 572
Width: 1092
Flags: W
TeX: 117 0 0 0
Fore
-27 -94 m 1,0,-1
 -111.6 0 l 1,1,-1
 104.4 213 l 1,2,3
 42.2998 352 42.2998 352 79.2002 559 c 0,4,5
 126.9 836 126.9 836 308.7 992 c 0,6,7
 489.6 1147 489.6 1147 762.3 1147 c 0,8,9
 841.5 1147 841.5 1147 915.3 1132 c 0,10,11
 963 1122 963 1122 1008.9 1105 c 1,12,-1
 1122.3 1217 l 1,13,-1
 1202.4 1116 l 1,14,-1
 1037.7 954 l 1,15,-1
 1009.8 793 l 1,16,17
 971.1 827 971.1 827 930.6 849 c 1,18,-1
 426.6 352 l 1,19,20
 434.7 332 434.7 332 446.4 314 c 0,21,22
 506.7 227 506.7 227 641.7 227 c 0,23,24
 717.3 227 717.3 227 789.3 252 c 0,25,26
 862.2 277 862.2 277 927.9 326 c 1,27,-1
 876.6 33 l 1,28,29
 795.6 2 795.6 2 715.5 -14 c 0,30,31
 634.5 -29 634.5 -29 556.2 -29 c 0,32,33
 303.3 -29 303.3 -29 175.5 105 c 1,34,-1
 -27 -94 l 1,0,-1
407.7 512 m 1,35,-1
 790.2 890 l 1,36,37
 774 891 774 891 757.8 891 c 0,38,39
 622.8 891 622.8 891 532.8 804 c 0,40,41
 441.9 716 441.9 716 414.9 559 c 0,42,43
 410.4 535 410.4 535 407.7 512 c 1,35,-1
EndSplineSet
EndChar
